<svg width="262" height="193" viewBox="0 0 262 193" fill="none" xmlns="http://www.w3.org/2000/svg">
<path d="M131.712 108.538C123.446 111.172 115.239 111.172 107.344 107.428C94.7079 101.434 88.0862 91.3551 87.7011 77.3101C87.6715 75.993 87.7455 74.661 87.7603 73.3438C87.8492 73.0182 87.9974 72.6926 88.0418 72.367C88.975 65.796 91.7748 60.1129 96.1448 55.155C99.2408 51.6474 103.063 49.1463 107.136 46.9707C110.499 46.1271 113.847 45.2984 117.21 44.4548C120.054 44.4844 122.972 44.1736 125.757 44.6028C134.541 45.9643 141.593 50.4191 147.192 57.2565C152.125 64.0644 154.362 71.6418 153.74 80.0333C153.384 84.858 151.918 89.3423 149.577 93.5602C149.355 93.9598 149.192 94.3742 148.999 94.7886C148.703 95.129 148.407 95.4694 148.096 95.795C145.8 98.2369 143.755 101.019 141.133 103.047C138.274 105.252 134.882 106.747 131.712 108.538Z" fill="black"/>
<path d="M147.207 57.2565C141.607 50.4191 134.556 45.9643 125.772 44.6028C122.987 44.1736 120.083 44.4844 117.224 44.4548C116.202 41.9092 114.943 39.4377 114.202 36.8329C109.669 20.8048 120.143 4.05156 136.808 1.34321C149.829 -0.773149 161.872 5.59073 167.368 17.2085C167.487 17.4601 167.576 17.7413 167.664 18.0077C167.561 18.3333 167.501 18.6737 167.339 18.9697C165.931 21.5152 165.22 24.2532 165.205 27.1539C165.176 31.1202 166.672 34.5982 168.938 37.7801C167.427 41.702 165.546 45.402 162.657 48.5247C158.421 53.0682 153.236 55.9097 147.222 57.2861L147.207 57.2565Z" fill="black"/>
<path d="M192.344 55.9097C192.951 55.4213 193.558 54.933 194.166 54.4446C196.477 55.7913 198.891 56.8273 201.617 56.8717C206.979 56.9457 210.935 54.415 213.942 50.1823C225.763 52.0026 234.918 61.7704 236.414 73.7138C238.192 87.8179 228.296 101.626 213.305 103.728C210.238 104.157 207.039 103.609 203.898 103.52C203.78 103.402 203.632 103.298 203.543 103.15C200.936 98.4145 197.04 95.3066 191.766 94.0042C190.403 93.6638 189.011 93.427 187.618 93.1458C186.641 91.4438 185.678 89.7271 184.7 88.0251C185.041 87.8179 185.367 87.5811 185.722 87.4035C194.358 82.7712 198.669 73.4918 196.166 64.094C195.41 61.2376 193.633 58.6477 192.314 55.9245L192.344 55.9097Z" fill="black"/>
<path d="M107.151 46.9707C103.077 49.1463 99.2556 51.6622 96.1596 55.155C91.7748 60.1129 88.9898 65.796 88.0566 72.367C88.0121 72.7074 87.8788 73.0182 87.7751 73.3438C86.8567 73.477 85.9383 73.625 85.0198 73.773C85.0198 73.3734 85.0198 72.9738 85.0643 72.5742C85.9383 64.4344 79.4796 57.0789 71.3025 56.9013C66.9029 56.8125 63.2884 58.5737 60.1775 61.5336C51.2746 47.3111 59.6739 27.8347 76.3243 24.12C91.4785 20.7308 105.788 31.3422 107.166 46.9559L107.151 46.9707Z" fill="black"/>
<path d="M192.344 55.9097C193.662 58.6181 195.44 61.208 196.195 64.0792C198.699 73.477 194.373 82.7564 185.752 87.3887C185.396 87.5811 185.07 87.8031 184.73 88.0103C180.167 89.7567 175.545 90.2303 170.746 89.0019C160.835 86.4564 154.095 76.2001 155.784 66.0919C157.28 57.0641 163.28 50.5818 172.227 48.8059C179.723 47.3259 186.166 49.6495 191.499 55.0958C191.781 55.377 192.077 55.6285 192.359 55.9097H192.344Z" fill="black"/>
<path d="M187.633 93.1458C189.011 93.427 190.403 93.6786 191.781 94.0042C197.054 95.3066 200.95 98.3997 203.558 103.15C203.632 103.298 203.795 103.387 203.913 103.52C206.15 108.552 206.55 113.643 204.594 118.883C201.558 126.993 192.61 132.158 183.959 130.678C175.234 129.183 168.672 121.65 168.242 113.066C167.738 103.18 175.116 93.353 187.648 93.1606L187.633 93.1458Z" fill="black"/>
<path d="M168.924 37.7505C166.657 34.5686 165.161 31.1055 165.191 27.1243C165.205 24.2236 165.916 21.4856 167.324 18.9401C167.487 18.6441 167.546 18.3037 167.65 17.9781C169.635 16.1873 171.383 14.0118 173.634 12.665C184.522 6.10874 198.477 13.9822 198.684 26.6507C198.699 27.7459 198.654 28.8263 198.639 29.9215C198.21 31.2239 197.854 32.5558 197.321 33.8138C195.558 38.0021 192.329 40.7549 188.329 42.7084C183.115 44.3956 178.019 44.3512 173.279 41.3321C171.694 40.3257 170.36 38.9493 168.909 37.7357L168.924 37.7505Z" fill="black"/>
<path d="M131.712 108.538C134.882 106.732 138.274 105.237 141.133 103.047C143.755 101.019 145.8 98.2517 148.096 95.795C148.407 95.4694 148.688 95.129 148.999 94.7886C157.562 94.7442 165.694 102.618 165.146 112.474C164.968 115.641 163.798 118.483 162.213 121.191C159.532 124.595 156.095 126.83 151.918 127.955C147.518 128.65 143.341 128.162 139.519 125.705C134.408 122.42 131.727 117.758 131.653 111.645C131.653 110.609 131.697 109.573 131.727 108.552L131.712 108.538Z" fill="black"/>
<path d="M60.1627 61.5484C63.2735 58.5737 66.8732 56.8125 71.2877 56.9161C79.4647 57.0937 85.9382 64.4344 85.0494 72.589C85.005 72.9886 85.0198 73.3882 85.005 73.7878C83.4051 80.2257 79.4203 84.1328 72.8283 85.3908C65.2882 86.8116 57.0222 80.2405 56.5927 72.589C56.3556 68.3859 57.6296 64.8044 60.1479 61.5632L60.1627 61.5484Z" fill="black"/>
<path d="M107.818 174.085C107.818 168.846 107.862 163.622 107.788 158.383C107.773 156.844 108.188 156.222 109.832 156.267C113.625 156.37 117.432 156.296 121.239 156.296C130.008 156.311 137.682 163.504 138.482 172.428C139.267 181.13 132.927 189.862 124.29 191.061C119.254 191.756 114.084 191.416 108.958 191.49C107.655 191.505 107.803 190.469 107.803 189.61C107.803 184.43 107.803 179.251 107.803 174.085H107.818ZM114.469 185.318C116.75 185.318 118.883 185.363 121.002 185.318C125.387 185.2 129.416 182.137 130.838 177.904C132.364 173.345 131.001 168.062 127.816 165.22C123.876 161.698 119.195 162.497 114.469 162.482V185.318Z" fill="black"/>
<path d="M37.6314 173.923C37.6314 168.639 37.661 163.356 37.6017 158.072C37.5869 156.711 38.0461 156.267 39.3942 156.296C43.4234 156.37 47.4527 156.296 51.4672 156.326C59.7183 156.415 67.3325 163.874 68.088 172.102C68.9323 181.278 62.6514 189.892 53.2004 191.342C50.5043 191.756 47.6897 191.505 44.9344 191.534C43.1568 191.549 41.3644 191.46 39.5867 191.564C38.0906 191.653 37.5721 191.164 37.5869 189.625C37.661 184.401 37.6165 179.177 37.6165 173.937L37.6314 173.923ZM44.2382 185.333C46.3269 185.333 48.2675 185.378 50.1932 185.333C54.9632 185.185 58.4443 182.936 60.2368 178.525C62.0588 174.026 61.4663 169.72 58.2221 165.99C54.4003 161.609 49.2748 162.453 44.2382 162.542V185.348V185.333Z" fill="black"/>
<path d="M79.1092 170.415H95.7004C95.7004 166.538 95.7004 162.764 95.7004 158.99C95.7004 156.326 95.7004 156.311 98.2927 156.326C102.811 156.355 102.218 155.749 102.233 160.263C102.248 169.971 102.203 179.695 102.278 189.403C102.278 191.061 101.789 191.608 100.115 191.579C95.7152 191.505 95.7152 191.579 95.7152 187.228C95.7152 183.794 95.7152 180.361 95.7152 176.809H79.124C79.124 177.386 79.124 177.993 79.124 178.599C79.124 182.329 79.0944 186.073 79.1389 189.803C79.1537 191.016 78.8278 191.594 77.4946 191.549C71.5988 191.401 72.5913 192.422 72.5616 186.68C72.5024 177.312 72.5468 167.944 72.5616 158.575C72.5616 156.326 72.5617 156.326 74.7392 156.326C77.6624 156.316 79.124 157.752 79.124 160.633C79.124 163.844 79.124 167.056 79.124 170.43L79.1092 170.415Z" fill="black"/>
<path d="M188.344 42.7232C192.344 40.7696 195.558 38.0169 197.336 33.8286C197.869 32.5706 198.225 31.2386 198.654 29.9363C204.18 28.8115 208.979 30.1139 212.579 34.5242C216.208 38.9789 216.653 43.9664 214.297 49.2055C214.164 49.5163 214.06 49.8419 213.957 50.1675C210.935 54.415 206.994 56.9309 201.632 56.8569C198.906 56.8125 196.492 55.7765 194.181 54.4298C190.418 51.4254 188.329 47.5923 188.359 42.7084L188.344 42.7232Z" fill="black"/>
<path d="M30.6542 191.52C28.3729 192.333 27.1286 190.75 26.5805 188.53C25.8695 185.629 24.1511 184.904 21.3217 185.141C18.0627 185.407 14.7593 185.244 11.4855 185.185C10.3745 185.156 9.5894 185.378 9.27832 186.547C9.18943 186.872 8.99686 187.168 8.84873 187.479C6.56744 192.319 8.00435 191.445 2.2419 191.505C0.597595 191.519 0.316139 191.031 1.02719 189.492C3.5603 184.016 6.10822 178.555 8.64133 173.079C11.0115 167.973 13.352 162.852 15.7074 157.747C15.8703 157.377 15.9888 156.962 16.2555 156.681C16.6258 156.296 17.1591 155.704 17.5443 155.763C18.0479 155.837 18.6701 156.355 18.8923 156.829C20.7736 160.766 22.566 164.732 24.3881 168.698C27.3212 175.121 30.2543 181.544 33.1873 187.953C33.3503 188.323 33.5577 188.678 33.7058 189.033C34.6391 191.179 34.4169 191.505 32.0911 191.505C31.7504 191.505 31.3949 191.505 30.6394 191.505L30.6542 191.52ZM12.5225 179.295H22.4475C20.7588 175.565 19.1441 172.043 17.4257 168.254C15.7518 172.043 14.1816 175.565 12.5225 179.295Z" fill="black"/>
<path d="M221.808 173.641C224.741 171.126 227.97 170.223 231.644 171.259C235.14 172.25 237.629 175.61 237.732 179.739C237.821 183.128 237.732 186.517 237.777 189.906C237.792 191.105 237.332 191.549 236.147 191.52C231.2 191.401 231.585 192.334 231.585 187.08C231.585 184.786 231.6 182.477 231.555 180.183C231.511 177.667 230.118 176.291 227.718 176.32C225.348 176.35 223.245 178.244 223.23 180.42C223.2 183.528 223.171 186.636 223.245 189.729C223.274 191.09 222.786 191.564 221.438 191.52C216.801 191.386 217.068 192.304 217.068 187.213C217.068 182.788 217.023 178.363 217.112 173.937C217.127 173.123 217.571 171.762 218.104 171.599C219.349 171.229 220.919 171.096 221.393 172.99C221.437 173.153 221.586 173.271 221.808 173.612V173.641Z" fill="black"/>
<path d="M170.894 173.36C172.657 172.576 174.197 171.599 175.886 171.199C181.811 169.808 186.566 173.286 186.937 179.251C187.144 182.684 187.144 186.132 187.263 189.566C187.307 190.928 186.759 191.564 185.322 191.534C180.315 191.431 181.174 192.141 181.071 187.376C181.011 184.623 181.071 181.855 180.715 179.147C180.419 176.883 178.389 175.891 176.167 176.513C173.649 177.223 172.449 178.792 172.449 181.367C172.449 184.238 172.42 187.124 172.449 189.995C172.464 191.09 172.079 191.549 170.953 191.534C165.739 191.446 166.613 192.141 166.568 187.331C166.524 182.788 166.539 178.244 166.568 173.701C166.568 172.872 166.124 171.658 167.546 171.525C168.82 171.407 170.301 171.111 170.686 172.99C170.716 173.153 170.835 173.286 170.879 173.36H170.894Z" fill="black"/>
<path d="M247.909 182.64C248.191 185.777 250.946 187.45 254.249 186.576C254.798 186.428 255.375 186.251 255.849 185.94C256.96 185.215 257.642 185.333 258.531 186.473C260.516 189.033 260.664 189.048 257.82 190.617C254.012 192.718 250.102 192.733 246.472 190.276C242.873 187.834 241.421 184.179 242.014 179.961C242.606 175.743 244.932 172.635 249.183 171.362C255.805 169.379 261.76 173.937 261.627 180.775C261.597 182.151 261.093 182.58 259.775 182.551C256.264 182.492 252.753 182.521 249.242 182.551C248.798 182.551 248.354 182.625 247.909 182.654V182.64ZM248.206 179.058H255.642C255.168 176.675 253.998 175.625 252.057 175.625C250.042 175.625 248.709 176.705 248.191 179.058H248.206Z" fill="black"/>
<path d="M141.326 181.441C141.37 175.876 145.785 170.918 151.784 170.859C157.191 170.8 162.095 175.861 162.05 181.337C161.991 187.168 157.799 192.097 151.755 192.082C145.074 192.067 141.385 186.517 141.341 181.456L141.326 181.441ZM146.851 181.53C146.881 184.327 149.073 186.621 151.784 186.665C154.258 186.71 156.569 184.09 156.525 181.322C156.48 178.555 154.288 176.32 151.666 176.335C148.955 176.35 146.822 178.644 146.851 181.53Z" fill="black"/>
<path d="M151.903 127.94C156.08 126.815 159.517 124.58 162.198 121.176C167.709 122.656 169.886 125.498 170.035 131.447C169.605 134.467 167.857 136.613 165.502 138.374C158.732 141.556 153.103 137.619 151.947 132.543C151.621 131.077 151.903 129.479 151.903 127.94Z" fill="black"/>
<path d="M92.2784 15.625C92.2932 11.0518 96.2632 7.15952 100.811 7.24832C105.329 7.33711 109.151 11.2146 109.107 15.699C109.077 20.2129 105.24 24.046 100.737 24.0756C96.1447 24.1052 92.2488 20.2129 92.2636 15.625H92.2784Z" fill="black"/>
<path d="M192.818 173.745C192.818 168.565 192.847 163.4 192.788 158.22C192.773 156.829 193.158 156.252 194.64 156.296C199.365 156.444 199.01 155.541 199.01 160.588C199.01 170.193 198.98 179.798 199.039 189.388C199.039 191.046 198.551 191.608 196.877 191.549C192.181 191.401 192.847 192.126 192.818 187.538C192.788 182.936 192.818 178.333 192.818 173.745Z" fill="black"/>
<path d="M211.142 181.692C211.142 184.386 211.113 187.08 211.157 189.773C211.187 190.987 210.801 191.564 209.483 191.534C204.121 191.416 204.995 192.23 204.95 187.154C204.906 182.566 204.98 177.978 204.92 173.39C204.906 172.013 205.291 171.421 206.772 171.466C211.912 171.614 211.068 170.741 211.142 175.832C211.172 177.785 211.142 179.739 211.142 181.678V181.692Z" fill="black"/>
<path d="M165.516 138.374C167.872 136.613 169.62 134.467 170.049 131.447C175.516 130.471 178.76 135.887 176.938 139.661C175.767 142.103 173.753 143.332 170.835 143.198C168.301 143.08 166.539 141.482 165.516 138.374Z" fill="black"/>
<path d="M164.139 155.275C161.65 155.26 159.68 153.277 159.68 150.805C159.68 148.245 161.695 146.292 164.317 146.306C166.879 146.306 168.953 148.393 168.894 150.894C168.835 153.44 166.82 155.305 164.139 155.29V155.275Z" fill="black"/>
<path d="M208.091 157.347C209.957 157.377 211.498 158.886 211.483 160.692C211.468 162.601 209.883 164.229 208.031 164.244C206.18 164.244 204.58 162.63 204.565 160.721C204.565 158.738 206.017 157.332 208.076 157.362L208.091 157.347Z" fill="black"/>
</svg>
