<svg xmlns="http://www.w3.org/2000/svg" viewBox="0 0 500 121.1"><path d="M180.3 108.4V107 54.7c0-3.1-.1-6.2-.6-9.3-2.6-15.7-15.2-28.3-31-31-16.1-2.8-32.2 4.9-40.1 19-3.8 6.8-4.9 14.2-4.9 21.9.1 17.2 0 34.4 0 51.6v1.5h16.6V94.5c0-14.3-.1-28.5 0-42.8.1-14.6 14-24.8 27.9-20.7 9.3 2.8 15.4 11.2 15.4 21.3v56.2c5.7-.1 11.1-.1 16.7-.1zM252.6 108.4h16.5v-1.9-51.8c0-2.1 0-4.2.3-6.2 2-12.7 14-20.7 26.5-17.7 1.1.3 1.6 0 2.2-.9 2.1-3 4.3-5.9 6.6-8.7.9-1.1 2-2.1 2.9-3.1-.1-.2-.2-.3-.2-.3-.3-.2-.7-.3-1.1-.5-14.4-5.9-27.9-4.2-40 5.7-9.3 7.6-13.7 17.7-13.7 29.8v54.5c-.1.1-.1.5 0 1.1zM0 58.8c.4-2.6.6-5.2 1.2-7.7 4.3-17.6 14.4-30.3 32.1-35.5 17.2-5 32.2 0 44.4 13 6.9 7.4 10.9 16.3 12.1 26.3.5 4.1.5 8.3.5 12.5.1 13.3 0 26.5 0 39.8 0 .4 0 .9-.1 1.4H73.8V98.2c-.5.4-.7.5-.9.7-14 13.1-33.8 15.3-50.1 5.2C9.1 95.4 1.8 82.5.2 66.4c0-.5-.2-.9-.2-1.4v-6.2zM74.6 64c0-10-2.2-17-6.4-22.8-10.7-15-30.6-16.4-43.1-3-12.3 13.2-11.6 35.6 1.4 48C38.1 97 55.9 96.4 66.3 84.7c5.9-6.6 8.2-14.5 8.3-20.7zM209.5 0v15.1h44.1c-.3.5-.5.8-.7 1-4 4.2-7.2 9-9.5 14.4-.4 1-1 1.1-1.9 1.1h-31.8c0 .7-.1 1.1-.1 1.6v36.9c0 11 6.7 19.5 17.2 21.5 3.4.7 7 .4 10.4.5h1.8v16.3c-3.7 0-7.3.3-10.9 0-12.5-1.1-22.4-6.7-29.3-17.4-4.1-6.3-5.8-13.3-5.8-20.7V1.4c0-.4.1-.9.1-1.3C198.6 0 204 0 209.5 0zM426.2 97.7v23.4h-16.5c0-.4-.1-.9-.1-1.3V63.6c0-8.2 1.3-16.2 5-23.6 6.9-13.7 17.5-22.8 32.8-25.6 14.7-2.7 27.5 1.7 38.1 12 8.5 8.2 13.3 18.3 14.3 30 1.5 18.3-4.3 34-19.4 45-13.7 10-28.7 11.4-44.2 4-3.8-1.7-6.9-4.4-10-7.7zm-.1-37.6c0 8.3 1.5 14.4 4.7 20.1 9.8 16.9 31.8 19.2 44.9 4.8 11.9-13.2 11.4-35.3-1.2-47.8-10.6-10.5-26.3-11-37.4-1.1-7.7 6.9-10.9 15.7-11 24zM351.5 13.7c26.9.1 48.5 21.6 48.5 48.5 0 26.4-22 48-48.6 48-26.8 0-48.6-21.7-48.5-48.4.1-26.5 21.9-48.1 48.6-48.1zm31 48.3c-.2-1.9-.3-3.9-.6-5.8-.4-2-.9-4.1-1.7-6-7.3-19.3-29.8-26.7-46.4-15.2-13.6 9.5-17.9 28.3-9.8 43 6.6 12 20 18.5 32.8 15.9 15-3 25.6-16.3 25.7-31.9z"/><path d="M180.3 108.4h-16.6v-1.7-54.5c0-10.1-6.1-18.5-15.4-21.3-13.9-4.1-27.8 6.1-27.9 20.7-.1 14.3 0 28.5 0 42.8v13.9h-16.6v-1.5c0-17.2.1-34.4 0-51.6 0-7.7 1.1-15 4.9-21.9 7.9-14.1 24-21.8 40.1-19 15.7 2.7 28.4 15.3 31 31 .5 3 .6 6.2.6 9.3.1 17.4 0 34.9 0 52.3-.1.5-.1.9-.1 1.5zM252.6 108.4c0-.6-.1-1-.1-1.4V52.5c0-12 4.4-22.2 13.7-29.8 12.1-9.8 25.6-11.5 40-5.7.4.1.7.3 1.1.5.1 0 .1.1.2.3-1 1-2.1 2-2.9 3.1l-6.6 8.7c-.6.9-1 1.2-2.2.9-12.5-3-24.5 5-26.5 17.7-.3 2-.3 4.2-.3 6.2V108.1c-5.5.3-10.9.3-16.4.3z"/></svg>
