<svg xmlns="http://www.w3.org/2000/svg" viewBox="0 0 500 128.9"><path d="M140.1.3v15.8h38.2V128h16.1V16.1h38.2V.3h-92.5m-33 55.4H50.8l2.3-4.9s14.6-34.4 39.6-34.4h14.1l.3 39.3zM93 .3c-35.3 0-53.1 41-54.5 44.2 0 .3-30.7 66.3-38.5 83.2h17.8L43.6 72h63.7v55.7h16.1V0L93 .3zm299.1 14.9h14.1c25.3 0 39.6 34.4 39.6 34.4l2.3 4.9h-56.3l.3-39.3zM376.6.3V128h16.1V72h63.7l25.8 55.7H500c-7.7-16.9-38.5-83.2-38.5-83.2C460.1 41 442.6.3 407 .3h-30.4zM339 52.8h-64.6c-4.9 0-8.9 3.7-8.9 8.6 0 4.9 4 8.6 8.9 8.6H339c4.9 0 8.9-3.7 8.9-8.6 0-4.6-4-8.6-8.9-8.6"/><path d="M231.9 64.6c0-35.6 29-64.3 64.9-64.3 17.8 0 35.6 8.3 47.9 21.5 1.4 1.4 2 3.4 2 5.5 0 4.6-3.7 8-8.3 8-2.3 0-4.6-.9-6-2.6-9.5-10-22.7-16.1-35.6-16.1-26.7 0-48.5 21.5-48.5 47.9s21.8 47.9 48.5 47.9c12.9 0 26.1-6 35.6-16.1 1.4-1.7 3.7-2.6 6-2.6 4.6 0 8.3 3.7 8.3 8 0 2-.9 4-2 5.5-12.3 13.5-30.1 21.5-47.9 21.5-35.9.2-64.9-28.5-64.9-64.1"/></svg>
