<svg width="206" height="28" viewBox="0 0 206 28" fill="none" xmlns="http://www.w3.org/2000/svg">
<path d="M43.1592 24.696V10.264L42.2241 8.29199H47.9092L46.9491 10.292V16.08H53.8011V10.266L52.8662 8.29398H58.5511L57.5912 10.294V24.7L58.5511 26.672H52.8662L53.8011 24.7V18.367H46.9491V24.7L47.9092 26.672H42.2241L43.1592 24.696Z" fill="black"/>
<path d="M74.156 26.669L74.441 25.008L73.3251 21.971H67.125L66.035 24.982L66.3461 26.669H61.8301L63.4651 24.697L69.045 10.291L68.3181 8.29102H72.2891L78.5181 24.721L80.1271 26.668L74.156 26.669ZM72.5211 19.769L70.2111 13.462L67.927 19.769H72.5211Z" fill="black"/>
<path d="M97.3389 8.29199L95.7819 10.264L90.2539 26.664H87.1909L81.6619 10.264L80.1309 8.29199H86.1519L85.7889 10.057L89.3708 21.841L92.9009 10.083L92.5889 8.29199H97.3389Z" fill="black"/>
<path d="M116.736 26.6691H110.948L110.506 24.6971L107.906 18.7791H105.829V24.6971L106.764 26.6691H101.106L102.041 24.6971V10.2641L101.106 8.2921H109.49C110.348 8.2808 111.202 8.40325 112.021 8.65507C112.727 8.87239 113.383 9.22497 113.954 9.6931C114.487 10.1382 114.912 10.6968 115.2 11.3281C115.503 12.0054 115.653 12.7405 115.642 13.4821C115.694 14.6318 115.309 15.7585 114.564 16.6361C113.778 17.4816 112.764 18.0811 111.644 18.3621L114.759 24.6951L116.736 26.6691ZM105.836 16.8321H108.873C109.271 16.8405 109.664 16.7465 110.015 16.5591C110.344 16.3776 110.628 16.1247 110.846 15.8191C111.078 15.493 111.249 15.1283 111.352 14.7421C111.467 14.3146 111.524 13.8736 111.52 13.4311C111.522 13.028 111.47 12.6264 111.365 12.2371C111.266 11.8675 111.099 11.5198 110.871 11.2121C110.652 10.9143 110.369 10.6702 110.041 10.4981C109.679 10.3174 109.278 10.2281 108.873 10.2381H105.836V16.8321Z" fill="black"/>
<path d="M121.417 24.67V10.264L120.508 8.29199H132.318L132.993 10.965L131.098 10.342H125.206V15.429H129.774L131.695 14.858L131.176 18.077L129.826 17.402H125.206V24.592H131.228L133.148 23.502L132.629 26.669H120.507L121.417 24.67Z" fill="black"/>
<path d="M138.331 24.67V10.264L137.423 8.29201H144.431C145.779 8.27244 147.118 8.51 148.376 8.99199C149.498 9.42283 150.516 10.0864 151.362 10.939C152.184 11.7826 152.824 12.7851 153.244 13.885C153.694 15.0661 153.919 16.3211 153.906 17.585C153.904 18.692 153.724 19.7915 153.375 20.842C153.027 21.9107 152.476 22.9021 151.752 23.762C150.989 24.6544 150.041 25.3707 148.974 25.862C147.718 26.4246 146.351 26.698 144.974 26.662H137.421L138.331 24.67ZM144.768 24.722C145.969 24.789 147.153 24.4101 148.091 23.658C148.901 22.9548 149.487 22.0302 149.778 20.998C150.095 19.872 150.188 18.6947 150.051 17.533C149.934 16.3326 149.613 15.1609 149.103 14.068C148.64 13.0557 147.973 12.1499 147.143 11.407C146.389 10.7169 145.402 10.3369 144.379 10.343H142.147V24.723L144.768 24.722Z" fill="black"/>
<path d="M167.315 26.669L167.601 25.008L166.485 21.971H160.285L159.195 24.982L159.507 26.669H154.991L156.626 24.697L162.207 10.291L161.48 8.29102H165.451L171.68 24.721L173.29 26.668L167.315 26.669ZM165.68 19.769L163.37 13.462L161.086 19.769H165.68Z" fill="black"/>
<path d="M176.995 24.696V10.291L176.061 8.29102H181.745L180.812 10.291V24.463H186.756L188.728 23.191L188.521 26.669H176.061L176.995 24.696Z" fill="black"/>
<path d="M197.988 27.033C196.752 27.0414 195.526 26.8077 194.38 26.345C193.252 25.8843 192.208 25.2395 191.291 24.437L192.978 20.414L193.342 20.314C193.458 21.1098 193.704 21.8813 194.069 22.598C194.353 23.1475 194.736 23.6402 195.198 24.052C195.597 24.4016 196.066 24.6623 196.574 24.817C197.041 24.9604 197.526 25.0349 198.014 25.038C198.448 25.0402 198.88 24.9833 199.299 24.869C199.684 24.7671 200.045 24.5907 200.362 24.35C200.662 24.1195 200.911 23.8277 201.09 23.494C201.278 23.1292 201.371 22.7232 201.362 22.313C201.381 21.9256 201.299 21.5398 201.124 21.1939C200.948 20.8479 200.686 20.5536 200.362 20.34C199.519 19.8089 198.606 19.3983 197.65 19.12C197.117 18.9474 196.517 18.7474 195.85 18.52C195.179 18.2932 194.545 17.9698 193.968 17.56C193.371 17.1341 192.867 16.5894 192.49 15.96C192.063 15.2056 191.855 14.3471 191.89 13.481C191.881 12.7157 192.027 11.9565 192.319 11.249C192.6 10.5803 193.026 9.98202 193.565 9.49702C194.155 8.97852 194.843 8.58554 195.59 8.34202C196.482 8.05145 197.416 7.91089 198.354 7.92603C199.034 7.92151 199.712 7.98683 200.379 8.12101C200.945 8.23415 201.501 8.39473 202.041 8.60102C202.477 8.76805 202.899 8.97214 203.3 9.21104C203.58 9.37378 203.845 9.56046 204.092 9.76902L202.509 13.688L202.094 13.788C201.965 13.169 201.751 12.5707 201.458 12.01C201.221 11.5586 200.91 11.1505 200.537 10.803C200.22 10.5098 199.85 10.2806 199.446 10.128C199.089 9.994 198.711 9.92359 198.33 9.92002C197.628 9.89183 196.944 10.1387 196.422 10.608C196.173 10.8466 195.979 11.1357 195.851 11.4559C195.724 11.776 195.666 12.1198 195.683 12.464C195.666 12.8899 195.779 13.3107 196.007 13.671C196.226 13.9919 196.509 14.2642 196.838 14.471C197.199 14.699 197.586 14.8821 197.992 15.016C198.425 15.1627 198.849 15.296 199.264 15.416C199.973 15.6234 200.683 15.8527 201.392 16.104C202.071 16.339 202.71 16.6762 203.287 17.104C203.84 17.5186 204.3 18.0446 204.637 18.648C205.007 19.3647 205.186 20.1649 205.156 20.971C205.17 21.8397 204.988 22.7003 204.624 23.489C204.278 24.2225 203.772 24.8698 203.145 25.384C202.471 25.9259 201.7 26.3354 200.873 26.591C199.941 26.8891 198.967 27.0382 197.988 27.033Z" fill="black"/>
<path d="M25.7599 7.27805V5.97205C25.7599 4.60857 25.2183 3.30095 24.2542 2.33682C23.2901 1.3727 21.9824 0.831055 20.619 0.831055H0.834961L1.75494 2.85507H2.22495C3.05041 2.85693 3.84143 3.18613 4.42447 3.77048C5.00751 4.35483 5.33496 5.14658 5.33496 5.97205V7.27905C5.33701 7.68363 5.20199 8.07699 4.95193 8.39505C3.35953 10.512 2.52264 13.1016 2.57495 15.7501V27.1291L6.34595 19.8971L10.1169 27.1291V15.748C10.1692 13.0996 9.3323 10.51 7.73996 8.39307C7.48991 8.075 7.35488 7.68165 7.35693 7.27707V5.97205C7.35821 4.8452 6.98735 3.7495 6.30194 2.85507H11.4149C11.8245 2.85468 12.2302 2.93499 12.6087 3.09146C12.9872 3.24793 13.3312 3.47746 13.6209 3.76694C13.9107 4.05642 14.1406 4.40017 14.2974 4.77853C14.4542 5.1569 14.5349 5.56246 14.5349 5.97205V7.27905C14.537 7.68363 14.402 8.07699 14.1519 8.39505C12.5595 10.512 11.7226 13.1016 11.775 15.7501V27.1291L15.546 19.8971L19.317 27.1291V15.748C19.3692 13.0996 18.5323 10.51 16.9399 8.39307C16.6899 8.075 16.5549 7.68165 16.5569 7.27707V5.97205C16.5579 4.84493 16.1863 3.74913 15.4999 2.85507H20.615C21.0245 2.85468 21.4302 2.93499 21.8087 3.09146C22.1872 3.24793 22.5312 3.47746 22.821 3.76694C23.1107 4.05642 23.3406 4.40017 23.4974 4.77853C23.6542 5.1569 23.735 5.56246 23.735 5.97205V7.27905C23.737 7.68363 23.602 8.07699 23.352 8.39505C21.7596 10.512 20.9226 13.1016 20.9749 15.7501V27.1291L24.7459 19.8971L28.5169 27.1291V15.748C28.5693 13.0996 27.7324 10.51 26.14 8.39307C25.8912 8.07488 25.7573 7.68193 25.7599 7.27805V7.27805ZM8.09894 18.8721L6.35095 15.5201L4.60294 18.8721V15.7511C4.55848 13.6664 5.16994 11.6205 6.35095 9.90207C7.53203 11.6204 8.14346 13.6664 8.09894 15.7511V18.8721ZM17.299 18.8721L15.5509 15.5201L13.8029 18.8721V15.7511C13.7584 13.6664 14.3699 11.6204 15.5509 9.90207C16.7319 11.6205 17.3434 13.6664 17.299 15.7511V18.8721ZM26.499 18.8721L24.7509 15.5201L23.003 18.8721V15.7511C22.9584 13.6664 23.5699 11.6204 24.7509 9.90207C25.932 11.6204 26.5435 13.6664 26.499 15.7511V18.8721Z" fill="black"/>
</svg>
