<svg width="656" height="118" viewBox="0 0 656 118" fill="none" xmlns="http://www.w3.org/2000/svg">
<g clip-path="url(#clip0_1001_29)">
<path d="M0 26.1948C2.49158 22.5196 6.26594 20.7437 10.213 19.1651C13.9627 17.6852 17.8111 16.6492 21.8321 16.4519C26.988 16.2053 31.6998 17.4879 35.6468 20.9904C38.015 23.0623 39.1251 25.7508 39.1251 28.908C39.1251 37.4423 39.1005 45.9519 39.1005 54.4862C39.1005 56.7061 40.5066 58.482 42.4555 58.8767C44.651 59.3206 46.6492 58.334 47.4633 56.2621C47.7347 55.5715 47.784 54.7575 47.784 54.0175C47.784 42.8194 47.784 31.6212 47.7593 20.4477C47.7593 19.9051 47.7593 19.3378 47.7593 18.6965H80.6432V117.334H48.08C48.006 116.397 47.8827 115.459 47.8827 114.497C47.858 104.187 47.8333 93.8524 47.8087 83.5422C47.8087 81.125 46.3532 79.4724 43.985 79.0777C42.0114 78.7571 39.9639 80.015 39.3225 82.0376C39.1005 82.7036 39.1005 83.4435 39.1005 84.1588C39.0758 94.6417 39.0265 105.1 39.0758 115.583C39.0758 117.063 38.7058 117.482 37.201 117.482C27.654 117.408 18.1071 117.457 8.5355 117.457H6.78399C6.78399 116.717 6.78399 116.076 6.78399 115.435C6.78399 89.0426 6.78399 62.6505 6.78399 36.2583C6.78399 33.1752 5.69856 31.7446 2.88628 30.5113C1.82551 30.0426 0.962094 29.1053 0 28.39C0 27.6747 0 26.9594 0 26.2441L0 26.1948Z" fill="#1D1D1B"/>
<path d="M656 107.838C652.25 113.264 646.626 115.558 640.557 117.063C631.997 119.184 624.794 116.52 618.602 110.576C618.306 110.304 618.01 110.008 617.64 109.663C616.751 110.428 615.913 111.143 615.049 111.858C607.55 118.247 599.088 119.061 590.084 115.977C581.105 112.894 575.579 106.777 573.852 97.2316C571.015 81.3963 583.276 67.0163 599.36 67.4849C605.132 67.6576 610.658 68.7182 615.74 71.6288C615.937 71.7521 616.184 71.8261 616.579 71.9741V70.3215C616.579 59.3946 616.554 48.4431 616.579 37.5163C616.579 34.5811 615.518 32.0159 612.385 31.2266C609.819 30.5606 609.252 28.39 611.127 26.3675C612.656 24.6902 614.507 23.1609 616.48 22.0757C623.708 18.1538 631.43 16.7726 639.521 18.7951C645.861 20.3737 649.561 25.3315 649.537 31.8432C649.537 41.9561 649.487 52.069 649.438 62.1818C649.389 72.5907 649.29 83.0242 649.29 93.4331C649.29 95.6777 649.586 97.9222 649.759 100.167C649.931 102.362 651.313 103.472 653.286 104.138C654.224 104.459 655.112 104.952 656 105.371V107.838ZM607.895 91.6818C607.895 94.4937 607.871 97.3303 607.895 100.142C607.945 102.88 609.696 104.755 612.188 104.804C614.753 104.853 616.751 103.053 616.801 100.265C616.899 94.6171 616.899 88.9686 616.801 83.3202C616.751 80.5823 614.679 78.6338 612.237 78.6584C609.745 78.6831 607.945 80.681 607.895 83.4929C607.871 86.2061 607.895 88.944 607.895 91.6572V91.6818Z" fill="#1D1D1B"/>
<path d="M505.938 118C505.025 117.753 504.112 117.482 503.2 117.235C499.154 116.101 495.651 114.004 492.691 111.069C491.556 109.959 490.865 109.811 489.632 110.995C485.857 114.571 481.491 116.989 476.212 117.581C465.16 118.814 451.123 112.993 447.867 99.6242C444.216 84.6522 452.702 70.8395 467.824 68.0029C475.052 66.6463 482.108 68.0523 488.694 71.4314C489.089 71.6288 489.508 71.8754 490.051 72.1714C490.569 71.0615 490.989 69.9762 491.581 68.9895C491.827 68.5949 492.37 68.1016 492.789 68.1016C502.632 68.0523 512.5 68.1016 522.343 68.1016C522.442 68.1016 522.54 68.1756 522.886 68.2989C522.886 70.8641 522.886 73.5033 522.886 76.1426C522.886 81.791 522.886 87.4394 522.935 93.0878C522.935 95.1844 523.034 97.2809 523.132 99.3775C523.28 102.066 524.341 103.398 526.907 104.163C529.966 105.075 530.582 107.048 528.387 109.54C525.279 113.092 521.183 115.089 516.768 116.421C514.449 117.112 512.031 117.482 509.663 118H505.963H505.938ZM490.273 91.9778C490.273 89.1166 490.273 86.2308 490.273 83.3696C490.248 80.681 488.448 78.8558 485.882 78.8558C483.316 78.8558 481.54 80.681 481.516 83.3942C481.491 89.0426 481.491 94.691 481.516 100.315C481.516 103.028 483.514 105.075 485.981 105.001C488.448 104.927 490.248 102.954 490.273 100.315C490.273 97.5523 490.273 94.765 490.273 92.0025V91.9778Z" fill="#1D1D1B"/>
<path d="M113.996 118C111.825 117.482 109.605 117.087 107.483 116.421C99.9838 114.078 93.7425 109.934 89.9434 102.855C85.3056 94.2224 86.8105 84.2082 93.6438 77.1785C100.65 69.9762 109.358 66.9916 119.226 67.1643C128.501 67.3123 136.691 70.3215 143.278 77.1292C151.715 85.8114 151.863 98.7855 143.648 107.69C138.344 113.437 131.684 116.495 124.061 117.704C123.666 117.778 123.296 117.901 122.926 118.025H113.996V118ZM113.774 91.6572C113.996 95.3323 113.971 97.9222 114.39 100.413C114.736 102.485 115.279 104.681 116.315 106.481C117.943 109.318 121.545 109.12 123.173 106.259C123.765 105.223 124.209 104.015 124.455 102.831C125.664 96.9603 125.64 91.0159 124.875 85.1208C124.603 83.0242 124.011 80.8783 123.099 78.9791C121.594 75.9206 118.017 75.8959 116.216 78.8311C115.649 79.7684 115.131 80.8537 114.983 81.939C114.44 85.5155 114.094 89.1413 113.798 91.6572H113.774Z" fill="#1D1D1B"/>
<path d="M602.69 0C602.468 0.66597 602.345 1.38127 601.975 1.97324C600.643 4.04515 599.212 6.04306 597.855 8.0903C596.005 10.8282 595.98 13.714 597.806 16.4273C599.187 18.4745 600.593 20.4971 601.95 22.5443C602.32 23.1116 602.542 23.7529 602.838 24.3696L602.493 24.7395C601.851 24.4189 601.161 24.1476 600.569 23.7529C598.694 22.5196 596.819 21.237 594.969 19.9544C591.786 17.7839 588.999 17.8085 585.866 19.9544C583.966 21.2617 582.042 22.5443 580.118 23.8269C579.575 24.1722 578.983 24.4189 578.416 24.7149C578.292 24.6162 578.169 24.5176 578.021 24.4436C578.292 23.8516 578.465 23.1856 578.81 22.6676C580.167 20.6204 581.573 18.5978 582.955 16.5506C584.879 13.714 584.83 10.8282 582.905 7.96697C581.549 5.96906 580.167 3.99582 578.86 1.97324C578.49 1.38127 578.317 0.66597 578.046 0.0246656C578.465 0.0246656 578.86 0.0246656 579.279 0.0246656C581.647 1.67726 583.991 3.37918 586.384 5.00711C588.9 6.70903 591.91 6.7337 594.426 5.00711C596.868 3.35451 599.31 1.67726 601.753 0C602.049 0 602.369 0 602.665 0L602.69 0Z" fill="#1D1D1B"/>
<path d="M601.777 0C599.335 1.67726 596.893 3.35451 594.451 5.00711C591.934 6.70903 588.9 6.70903 586.409 5.00711C584.016 3.37918 581.672 1.70192 579.304 0.0246656C586.803 0.0246656 594.303 0.0246656 601.802 0.0246656L601.777 0Z" fill="white"/>
<path d="M397.468 117.334H376.623C376.623 116.594 376.623 115.928 376.623 115.287C376.598 89.7333 376.549 64.1551 376.524 38.6016C376.524 35.5184 374.699 33.5205 371.96 33.5698C369.592 33.6192 367.693 35.4444 367.569 37.837C367.545 38.3549 367.569 38.8729 367.569 39.3662C367.569 64.6731 367.569 89.9799 367.569 115.287V117.26H335.573C335.573 116.643 335.573 116.051 335.573 115.459C335.573 89.536 335.549 63.6125 335.524 37.689C335.524 33.9891 334.661 32.7312 331.182 31.3253C328.715 30.314 327.926 28.4641 329.554 26.3675C330.936 24.5916 332.712 22.939 334.636 21.8044C344.454 16.1066 354.593 15.86 364.782 20.7437C366.582 21.607 368.087 23.1363 369.641 24.4682C371.689 26.2442 372.75 26.1702 374.477 24.0736C375.611 22.6923 376.697 21.2124 378.078 20.1024C383.16 16.0326 391.893 16.5013 396.703 20.9904C397.813 22.0264 398.825 23.2103 399.861 24.3696C401.341 25.9975 402.501 26.1948 404.277 24.9122C405.757 23.8269 407.163 22.6183 408.594 21.4344C416.217 15.12 428.156 16.8959 433.485 21.607C436.544 24.2956 438.369 27.6008 438.369 31.7939C438.369 59.6167 438.369 87.4394 438.369 115.262V117.334H406.472V115.41C406.472 89.7333 406.472 64.0811 406.472 38.4043C406.472 36.061 405.387 34.4825 403.389 33.7918C401.613 33.1752 399.491 33.7178 398.455 35.3458C397.887 36.2337 397.517 37.4177 397.493 38.4783C397.419 44.4227 397.493 50.3917 397.493 56.3361C397.493 76.3152 397.517 96.2697 397.542 116.249C397.542 116.545 397.517 116.865 397.493 117.359L397.468 117.334Z" fill="black"/>
<path d="M262.479 117.285H230.582C230.582 116.594 230.582 116.002 230.582 115.385C230.582 106.358 230.582 97.3056 230.582 88.278C230.582 86.2554 229.718 84.8002 227.942 83.9615C226.191 83.1476 224.365 83.3449 223.132 84.7755C222.293 85.7375 221.627 87.1927 221.627 88.426C221.504 97.4043 221.578 106.383 221.602 115.385C221.602 115.977 221.602 116.594 221.602 117.309H200.954C200.88 115.731 200.732 114.226 200.708 112.697C200.658 104.582 200.634 96.467 200.609 88.3767C200.609 85.5401 198.709 83.5176 196.144 83.5422C193.578 83.5669 191.679 85.6388 191.679 88.426C191.679 97.4536 191.654 106.506 191.629 115.533C191.629 116.076 191.629 116.643 191.629 117.285H159.658C159.658 116.668 159.658 116.125 159.658 115.583C159.658 106.457 159.609 97.3056 159.658 88.1794C159.658 84.8248 158.893 82.2843 155.02 81.2483C152.948 80.681 152.258 78.6091 153.442 76.8085C154.354 75.4273 155.514 74.0953 156.846 73.1087C163.334 68.4222 170.611 66.7697 178.53 67.6823C183.045 68.2003 187.312 69.3102 190.988 72.0974C192.098 72.936 193.109 73.898 194.146 74.786C195.872 76.2659 196.958 76.1672 198.389 74.3666C198.783 73.898 199.153 73.4047 199.499 72.8867C204.753 65.3391 216.422 66.2517 221.306 71.4068C222.293 72.4427 223.23 73.528 224.242 74.564C225.771 76.1426 226.585 76.2412 228.386 74.9586C230.039 73.75 231.618 72.4181 233.221 71.1355C240.178 65.561 251.205 66.9423 256.386 70.6668C260.308 73.5033 262.578 77.2278 262.553 82.235C262.479 93.3345 262.553 104.409 262.553 115.509V117.309L262.479 117.285Z" fill="black"/>
<path d="M303.06 117.951C295.437 117.753 288.184 116.15 281.277 112.993C272.026 108.775 267.955 101.4 268.103 91.4845C268.202 84.2082 271.927 78.8804 277.7 74.8353C284.04 70.4201 291.144 68.1509 298.841 67.7316C304.589 67.4109 310.189 68.0522 315.567 70.2228C318.7 71.4807 321.463 73.306 323.634 75.9452C329.085 82.5556 327.852 91.4598 320.846 96.393C316.776 99.2542 312.039 100.117 307.303 101.055C305.995 101.301 304.688 101.548 303.356 101.671C302.097 101.77 302.097 102.411 302.393 103.349C303.208 105.988 305.477 107.961 308.388 107.788C312.088 107.542 315.764 106.752 319.44 106.185C321.561 105.84 323.658 105.421 325.78 105.075C327.334 104.804 328.247 105.667 328.641 107.024C329.011 108.331 329.085 109.638 327.729 110.6C323.313 113.758 318.428 115.829 313.125 116.767C309.819 117.359 306.439 117.581 303.084 117.975L303.06 117.951ZM300.223 91.2132C303.972 90.0786 307.352 88.9933 309.844 86.2801C312.236 83.6902 310.88 79.5957 307.475 78.8064C304.268 78.0665 301.456 79.6697 300.839 83.0736C300.346 85.6388 300.445 88.3273 300.247 91.2132H300.223Z" fill="#1D1D1B"/>
<path d="M566.821 117.309H536.75V115.558C536.75 106.013 536.75 96.467 536.75 86.9214C536.75 83.3942 535.862 82.161 532.457 81.0017C532.038 80.8537 531.594 80.7304 531.174 80.533C529.694 79.8671 529.522 79.2011 529.941 77.6225C530.656 74.8353 532.433 72.936 534.85 71.6041C541.683 67.8056 548.961 66.4243 556.608 68.2249C560.506 69.1375 564.157 70.8395 565.982 74.8353C566.501 75.9699 566.871 77.2772 566.871 78.5104C566.945 91.1885 566.92 103.867 566.895 116.545C566.895 116.742 566.846 116.939 566.821 117.334V117.309Z" fill="black"/>
<path d="M575.603 6.46236C574.839 7.7943 574.37 8.75626 573.778 9.64422C570.892 13.8867 567.981 18.1045 565.094 22.347C561.69 27.3294 561.715 33.3971 565.094 38.3549C567.956 42.5481 570.842 46.7165 573.679 50.9344C574.247 51.773 574.765 52.6856 575.159 53.6229C575.307 53.9682 575.209 54.5602 574.987 54.8562C574.863 55.0288 574.197 55.0288 573.877 54.8562C572.816 54.3629 571.755 53.8202 570.793 53.1789C566.649 50.441 562.529 47.6292 558.384 44.8666C553.5 41.5861 547.333 41.5614 542.473 44.8173C538.254 47.6292 534.036 50.4904 529.818 53.3022C528.979 53.8696 528.066 54.3875 527.129 54.8068C526.709 54.9795 526.167 54.8562 525.698 54.8808C525.698 54.3629 525.55 53.7709 525.747 53.3269C526.167 52.3896 526.709 51.5263 527.277 50.663C530.138 46.4699 533.025 42.3014 535.862 38.0836C539.069 33.3478 539.044 27.3294 535.862 22.6183C532.951 18.3265 529.99 14.084 527.104 9.79221C526.512 8.90425 526.019 7.9423 525.599 6.95568C525.18 5.94439 525.747 5.50041 526.66 5.84573C527.745 6.24037 528.806 6.80768 529.793 7.44899C533.987 10.2115 538.131 13.0481 542.325 15.8599C547.357 19.2145 553.475 19.2145 558.508 15.8599C562.554 13.1467 566.575 10.4089 570.645 7.72031C571.755 7.00501 572.939 6.38837 574.173 5.89506C574.469 5.77173 575.036 6.24038 575.653 6.5117L575.603 6.46236Z" fill="black"/>
</g>
<defs>
<clipPath id="clip0_1001_29">
<rect width="656" height="118" fill="white"/>
</clipPath>
</defs>
</svg>
