<svg xmlns="http://www.w3.org/2000/svg" viewBox="0 0 500 81.1"><path d="M174.3 0h2.6v81.1h-2.6zM199 2.8h5.1v11.6h13.3V2.8h5.1v28.6h-5.1V18.9h-13.3v12.6H199V2.8zM241 2.8h4.8l11.5 28.6h-5.4l-3-7.7h-11l-2.9 7.7h-5.1L241 2.8zm6.2 16.6l-3.9-10.1-3.8 10.1h7.7zM264.5 2.8h5.1l14.7 19.6V2.8h4.9v28.6h-4.4l-15.4-20.6v20.6h-4.9V2.8zM299.4 2.8c1.6-.1 3.3-.2 6.9-.2 9.2 0 16.9 3.2 16.9 14.4 0 10.5-7 14.6-16.9 14.6-2.2 0-5.5-.1-6.9-.2V2.8zm5.1 24.3c.6.1 1.8.1 3 .1 6.5 0 10.4-2.7 10.4-10.3 0-7.7-5.3-9.8-11.3-9.8-.9 0-1.8 0-2.2.1v19.9zM331.6 2.8h5.1v24.3h11.2v4.3h-16.3V2.8zM364.7 2.8h4.8L381 31.4h-5.4l-3-7.7h-11l-2.9 7.7h-5.1l11.1-28.6zm6.2 16.6L367 9.3l-3.8 10.1h7.7zM388.2 2.8h9.4c5.4 0 9 2.4 9 7.8 0 4.7-2.4 7.4-6 8.6l8.2 12.2h-5.7l-7.7-11.5h-2.3v11.5H388l.2-28.6zm7.3 12.8c3.5 0 5.9-.7 5.9-4.5 0-2.9-1.4-3.9-5.1-3.9h-3v8.4h2.2zM417 2.8h5.1l14.7 19.6V2.8h4.9v28.6h-4.4l-15.4-20.6v20.6H417V2.8zM459.4 2.8h4.8l11.5 28.6h-5.4l-3-7.7h-11l-2.9 7.7h-5.1l11.1-28.6zm6.2 16.6l-3.9-10.1-3.8 10.1h7.7zM481 25.1c3 1.6 5.8 2.4 8.5 2.4 3.3 0 5.2-1.2 5.2-4 0-2.7-2.4-3.3-5.7-4.7-3.8-1.6-7.7-3.1-7.7-8.1 0-5.7 4.2-8.5 10.1-8.5 3.2 0 6 .7 7.4 1.6l-.3 4.7c-2-1-4-1.8-7.1-1.8-3.1 0-4.9 1.3-4.9 3.4 0 2.5 2 3.1 5.2 4.5 3.9 1.7 8.2 3 8.2 8.5 0 6-4.3 8.8-10.4 8.8-3.4 0-6.8-.9-8.6-1.9l.1-4.9zM199 51h16.1v4.3h-11v8h8.8v4.3h-8.8v11.9H199V51zM220.6 65.6c0-8.6 5-15.2 14.6-15.2 9 0 14.3 5.9 14.3 14.5 0 8.5-5 15.2-14.7 15.2-9 0-14.2-5.8-14.2-14.5zm23.6-.3c0-5.6-2.7-10.5-9.2-10.5-6.5 0-9.1 4.9-9.1 10.7 0 5.8 3.2 10.3 9.2 10.3 6.2-.1 9.1-4.7 9.1-10.5zm-13.3-21.7c1.6 0 2.8 1.3 2.8 2.8s-1.1 2.8-2.8 2.8c-1.6 0-2.8-1.3-2.8-2.8s1.2-2.8 2.8-2.8zm8.6 0c1.6 0 2.8 1.3 2.8 2.8s-1.1 2.8-2.8 2.8c-1.6 0-2.8-1.3-2.8-2.8s1.1-2.8 2.8-2.8zM257.7 51h9.4c5.4 0 9 2.4 9 7.8 0 4.7-2.4 7.4-6 8.6l8.2 12.2h-5.7l-7.7-11.5h-2.3v11.5h-5.1l.2-28.6zm7.3 12.8c3.5 0 5.9-.7 5.9-4.5 0-2.9-1.4-3.9-5.1-3.9h-3v8.4h2.2zM286.4 51h8.9c4.8 0 9 1.6 9 6.8 0 4-2 5.9-4.6 6.7v.1c3.9.6 6 3 6 6.9 0 7.2-6 8.5-12 8.5-3.5 0-5.9-.2-7.4-.5l.1-28.5zm6.8 11.8c3 0 5.9-.4 5.9-4.3 0-2.8-2-3.4-4.9-3.4h-2.7v7.6h1.7zm-1.7 12.8c.5.1 1.8.2 3 .2 2.7 0 6-.4 6-4.7 0-3.3-2.6-4.2-6.2-4.2h-2.8v8.7zM314.2 51h5.1v16.7c0 5.1 1.3 7.9 6.1 7.9 4.5 0 5.8-2.8 5.8-7.7V51h5.1v17.3c0 7.7-3.1 11.8-11.3 11.8-7.2 0-10.8-3.6-10.8-11V51zM345.7 51h5.1l14.7 19.6V51h4.9v28.6H366L350.7 59v20.6h-4.9l-.1-28.6zM380.4 51c1.6-.1 3.3-.2 6.9-.2 9.2 0 16.9 3.2 16.9 14.4 0 10.5-7 14.6-16.9 14.6-2.2 0-5.5-.1-6.9-.2V51zm5.1 24.3c.6.1 1.8.1 3 .1 6.5 0 10.4-2.7 10.4-10.3s-5.3-9.8-11.3-9.8c-.9 0-1.8 0-2.2.1v19.9z"/><g><path d="M0 2.2h19.6v77.3H0V2.2zM113.3 0l44.1 79.5h-22.3l-4.8-8.6H108l7.8-14h6.7l-9.2-16.6-9.6 17.2c-1.5 2.7-3 5.1-4.5 7.1-7.3 9.9-19.2 16.3-32.3 16.3-22.1 0-40.1-18-40.1-40.1S44.8.7 66.9.7c7.5 0 14.3 2 20.3 5.5l-9.5 17.1c-3-1.8-6.8-3-10.8-3-11.3 0-20.5 9.2-20.5 20.5s9.2 20.5 20.5 20.5c6.1 0 11.2-2.6 14.9-6.4 1.6-1.6 3.4-4.3 4-5.3L113.3 0z"/></g></svg>
