<svg xmlns="http://www.w3.org/2000/svg" viewBox="0 0 500 240.9"><path d="M297.9 98.6c-1.3 3.5-4.3 5.7-7.3 5.7-3.8 0-6.6-2.2-6.6-7.3V78.2h-6.4v19.7c0 8.3 4.8 12.2 11.2 12.2 4.3 0 7.3-2 9.2-4.7v4.1h6.5V78.2H298v20.4h-.1zM317.8 89.1c1.3-3.6 4.3-5.8 7.6-5.8 4.2 0 6.7 2.5 6.7 7.8v18.5h6.4V90.2c0-8.6-4.7-12.7-11.4-12.7-4.5 0-7.5 2-9.3 4.8v-4.1h-6.5v31.3h6.5V89.1zM358.5 90.8c-4-.6-7-1.1-7-4 0-2.6 2.4-4.4 5.9-4.4 3.3 0 5.7 1.5 6.7 4.6l5.6-1.8c-1.5-4.6-5.4-7.9-12.3-7.9-6.8 0-12.1 3.8-12.1 9.7 0 6.1 4.7 8.2 11.1 9.3 3.9.7 7.1 1.5 7.1 4.5 0 2.8-2.7 4.2-6.1 4.2-3.8 0-6.6-2-8-5.7l-5.6 1.9c1.9 6.2 7.2 8.9 13.5 8.9 7 0 12.4-3.6 12.4-9.7.1-6.4-4.8-8.6-11.2-9.6zM488.7 90.8c-4-.6-7-1.1-7-4 0-2.6 2.4-4.4 5.9-4.4 3.3 0 5.7 1.5 6.7 4.6l5.6-1.8c-1.5-4.6-5.4-7.9-12.3-7.9-6.8 0-12.1 3.8-12.1 9.7 0 6.1 4.7 8.2 11.1 9.3 3.9.7 7.2 1.5 7.2 4.5 0 2.8-2.7 4.2-6.1 4.2-3.8 0-6.6-2-8-5.7l-5.6 1.9c1.9 6.2 7.2 8.9 13.5 8.9 7 0 12.4-3.6 12.4-9.7 0-6.4-4.9-8.6-11.3-9.6zM321.3 130.9c-4.5 0-7.5 2-9.3 4.8v-4.1h-6.5V163h6.5v-20.4c1.3-3.6 4.3-5.8 7.6-5.8 4.2 0 6.7 2.5 6.7 7.8V163h6.4v-19.4c0-8.5-4.7-12.7-11.4-12.7zM358 154.5l-1.5 1c-2.7 1.9-4.4 2.7-6.6 2.7-2.6 0-5.3-1.5-5.3-4.6 0-2.9 2.2-4.1 7.1-5.4l6.3-1.7v8zm-6.2-23.6c-5.9 0-11.2 2.6-13.3 7.7l5.5 2.3c1.3-2.7 3.8-4.5 7.4-4.5 3.7 0 6.4 1.8 6.6 5.1l-8.6 2.2c-7.7 2-11.2 4.8-11.2 10.2 0 6.1 5.2 9.6 10.6 9.6 3.3 0 6-1 8.9-3.4l.4-.4.1 3.2h6.3v-20.8c-.1-7.7-5.4-11.2-12.7-11.2zM390 143.7c.4-4.9 4.1-7.5 8.3-7.5 3.9 0 7.4 2.4 7.9 7.5H390zm22.7 1.8c-.4-9-5.9-14.7-14.3-14.7s-15.1 6.2-15.1 16.2c0 10.4 7 16.5 15.6 16.5 6.2 0 11.1-2.7 13.5-6.9l-4.6-3.2c-1.8 3.1-5.1 4.8-8.7 4.8-5 0-9.1-3.7-9.3-9.7h23c.1-.8 0-1.7-.1-3zM434.8 130.9c-4.5 0-7.5 2-9.3 4.8v-4.1H419V163h6.5v-20.4c1.3-3.6 4.3-5.8 7.6-5.8 4.2 0 6.7 2.5 6.7 7.8V163h6.4v-19.4c0-8.5-4.6-12.7-11.4-12.7zM292.2 154.5l-1.5 1c-2.7 1.9-4.4 2.7-6.6 2.7-2.6 0-5.3-1.5-5.3-4.6 0-2.9 2.2-4.1 7.2-5.4l6.3-1.7v8h-.1zm-6.2-23.6c-5.9 0-11.2 2.6-13.3 7.7l5.5 2.3c1.3-2.7 3.8-4.5 7.4-4.5 3.7 0 6.4 1.8 6.6 5.1l-8.6 2.2c-7.7 2-11.2 4.8-11.2 10.2 0 6.1 5.2 9.6 10.6 9.6 3.3 0 6-1 8.9-3.4l.4-.4.1 3.2h6.3v-20.8c-.1-7.7-5.4-11.2-12.7-11.2zM371.3 163h6.5v-42.5h-6.5V163zM269.2 131.7h-8.7L248 142.4v-22h-6.5V163h6.5v-13.5l4-3.6 10 17.1h7.5L257 142l12.2-10.3zM454.6 104.2c-4.5 0-8.3-3.1-8.4-8.9v-3.2c.1-6 4-8.9 8.3-8.9 4.7 0 8.3 3.8 8.3 10.4 0 6.9-3.6 10.6-8.2 10.6zm.7-26.8c-4.1 0-7.6 1.8-9.5 4.4v-3.6h-6.1v42.4h6.4v-14.2c2.1 2.4 5.2 3.8 9.2 3.8 7.9 0 14-6.5 14-16.4.1-10.1-5.9-16.4-14-16.4zM418.4 104.7c-2.6 0-5.3-1.5-5.3-4.6 0-2.9 2.2-4.1 7.2-5.4l6.3-1.7v8l-1.5 1c-2.8 1.9-4.5 2.7-6.7 2.7zm8.1 1.6l.1 3.2h6.3V88.7c0-7.8-5.3-11.3-12.6-11.3-5.9 0-11.2 2.6-13.3 7.7l5.5 2.3c1.3-2.7 3.8-4.5 7.4-4.5 3.7 0 6.4 1.8 6.6 5.1l-8.6 2.2c-7.7 2-11.2 4.8-11.2 10.2 0 6.1 5.2 9.6 10.6 9.6 3.3 0 6-1 8.9-3.4l.3-.3zM396.3 109.5h7.5l-12.5-21 12.3-10.3h-8.7L382.4 89V67h-6.5v42.5h6.5V96l4-3.6 9.9 17.1zM241.5 67v42.5h6.5V90.9l5.5-5.3 13.8 23.9h7.7l-16.3-28.4L274 67h-8.7L248 83.3V67h-6.5zM241.5 0H0v240.9h241.5l-59.7-120.5L241.5 0zm-75.7 220.2h-145V20.8h145l-49.4 99.7 49.4 99.7z"/></svg>
