<svg width="587" height="95" viewBox="0 0 587 95" fill="none" xmlns="http://www.w3.org/2000/svg">
  <path d="M7.85745 13.8058C5.30271 13.8058 2.71338 13.8058 0.065234 13.8058C0.065234 13.2215 0.065234 12.7629 0.065234 12.3003C0.876285 12.0614 33.8956 11.985 35.618 12.2294C35.618 12.7043 35.618 13.1905 35.618 13.7718C32.9318 13.7718 30.295 13.7718 27.7719 13.7718C27.6306 13.891 27.5989 13.9132 27.5737 13.9408C27.5466 13.9693 27.5115 13.9999 27.5036 14.0344C27.4699 14.1866 27.42 14.3408 27.42 14.494C27.4185 39.8729 27.4205 65.2513 27.427 90.6302C27.427 90.7406 27.4863 90.8509 27.5347 91.0224C31.0285 91.313 34.3597 90.881 37.4378 89.0602C40.3884 87.3148 42.6654 84.8847 44.5969 82.1121C47.7596 77.5711 49.8724 72.5319 51.5163 67.2869C53.1438 62.0935 54.3053 56.7963 54.8984 51.3813C54.9315 51.0788 55.0452 50.7847 55.1396 50.4162C55.6402 50.4162 56.1103 50.4162 56.5808 50.4162C56.8912 50.4162 57.2016 50.4162 57.6177 50.4162C56.9055 64.5188 56.1982 78.5209 55.4875 92.6003C37.0143 92.6003 18.6097 92.6003 0.0686936 92.6003C0.0479355 92.1505 0.0266831 91.7012 0.000488281 91.1391C2.66247 91.1391 5.25823 91.1391 7.8184 91.1391C8.11445 90.1696 8.14955 15.0482 7.85745 13.8058Z"></path>
  <path d="M127.02 52.2751C126.915 59.3177 125.75 66.1382 122.908 72.6217C120.879 77.2505 118.137 81.4133 114.534 84.9765C111.154 88.319 107.262 90.8999 102.752 92.4901C95.8012 94.9409 89.1448 94.1103 82.7829 90.5723C76.6859 87.181 72.1182 82.2522 68.6743 76.2598C65.4301 70.6143 63.5292 64.5224 62.8734 58.0571C62.6515 55.8698 62.4597 53.6604 62.5067 51.4667C62.7187 41.5943 65.2457 32.4161 71.0941 24.3128C74.9551 18.9633 79.8007 14.7863 85.9747 12.2537C92.5066 9.57375 98.9372 9.95258 105.251 12.9488C112.322 16.3041 117.449 21.6881 121.187 28.4425C124.66 34.7162 126.426 41.4864 126.816 48.6262C126.883 49.8415 126.951 51.0583 127.02 52.2751ZM103.32 52.7549C103.211 46.7729 103.151 41.7712 103.021 36.7705C102.898 32.0471 102.75 27.3228 102.516 22.6039C102.402 20.321 101.979 18.0716 100.959 15.9775C99.9657 13.938 98.3481 12.7384 96.1037 12.4596C95.2101 12.3487 94.2805 12.3483 93.3859 12.4556C91.143 12.7246 89.4542 13.8823 88.524 15.9474C88.0268 17.0509 87.6383 18.2258 87.3744 19.4067C86.7443 22.2255 86.6864 25.1059 86.6207 27.9824C86.4868 33.8097 86.2569 39.6356 86.2031 45.463C86.0958 57.0058 86.1971 68.5477 86.6751 80.0826C86.7729 82.4438 87.0626 84.7922 87.8262 87.0544C88.7998 89.9397 90.675 91.7354 93.8267 91.9482C97.3675 92.1861 99.8135 90.9324 101.135 87.75C101.775 86.2071 102.171 84.5961 102.289 82.9448C102.515 79.8043 102.705 76.6584 102.799 73.5119C103.015 66.2678 103.166 59.0221 103.32 52.7549Z"></path>
  <path d="M158.908 90.8171C158.908 91.5348 158.908 92.0659 158.908 92.6644C150.953 92.6644 143.063 92.6644 135.064 92.6644C135.064 92.0994 135.064 91.5417 135.064 90.8447C138.483 90.8447 141.901 90.8447 145.386 90.8447C145.386 61.5217 145.386 32.3348 145.386 2.99214C144.322 2.87046 143.227 2.95175 142.141 2.93746C141.034 2.92268 139.927 2.93402 138.82 2.93402C137.716 2.93402 136.612 2.93402 135.412 2.93402C135.412 2.30296 135.412 1.74431 135.412 1.11374C146.027 1.11374 156.608 1.11374 167.345 1.11374C171.179 18.9539 175.021 36.8315 178.863 54.7086C178.95 54.7116 179.038 54.7145 179.125 54.717C183.331 36.9054 187.536 19.0938 191.754 1.23394C201.564 1.23394 211.31 1.23394 221.14 1.23394C221.159 1.55267 221.189 1.81722 221.188 2.08176C221.186 2.35369 221.153 2.62562 221.124 3.04091C218.433 3.04091 215.763 3.04091 213.127 3.04091C212.867 4.31338 212.899 89.8219 213.156 90.8107C215.687 90.8107 218.244 90.8107 220.888 90.8107C220.888 91.4624 220.888 92.021 220.888 92.6452C209.223 92.6452 197.616 92.6452 185.907 92.6452C185.907 92.0718 185.907 91.5156 185.907 90.8486C188.56 90.8486 191.195 90.8486 193.797 90.8486C194.078 89.8914 194.13 4.59862 193.793 3.33896C186.829 33.0772 179.981 62.842 173.087 92.6575C172.252 92.6575 171.478 92.6575 170.557 92.6575C168.102 82.7364 165.636 72.77 163.169 62.8041C160.689 52.7908 158.205 42.7786 155.727 32.7643C153.265 22.8166 150.824 12.864 148.331 2.92367C148.226 2.93008 148.12 2.93599 148.015 2.94239C147.934 3.13058 147.807 3.31284 147.781 3.50842C147.74 3.81878 147.764 4.13751 147.764 4.45279C147.764 32.7082 147.764 60.9641 147.764 89.2195C147.764 89.72 147.764 90.22 147.764 90.8185C151.538 90.8171 155.162 90.8171 158.908 90.8171Z"></path>
  <path d="M238.016 61.6524C238.016 62.1913 238.016 62.577 238.016 62.9633C238.016 68.8724 238.017 74.7815 238.015 80.6906C238.015 82.3532 238.168 83.9937 238.677 85.5864C239.799 89.1008 242.25 91.0137 245.861 91.6049C249.059 92.128 251.885 91.2378 254.488 89.4723C257.962 87.1165 260.29 83.8356 261.968 80.0576C263.435 76.751 264.236 73.2716 264.588 69.6818C264.629 69.2611 264.68 68.8418 264.737 68.3255C265.494 68.3738 266.145 68.4152 266.94 68.466C266.694 70.0463 266.506 71.5208 266.23 72.9785C265.509 76.7919 264.363 80.4674 262.406 83.8469C259.525 88.8249 255.442 92.3172 249.688 93.4532C241.341 95.1001 234.307 92.6286 228.689 86.2869C225.375 82.5459 223.385 78.0934 222.259 73.275C220.213 64.5136 220.19 55.7802 223.078 47.1744C225.01 41.4165 228.155 36.4335 232.985 32.6201C235.401 30.7126 238.081 29.3022 241.119 28.6859C245.362 27.8253 249.375 28.5894 253.152 30.6102C257.926 33.164 261.236 37.1001 263.588 41.884C265.772 46.33 266.837 51.0731 267.174 55.9901C267.251 57.1285 267.28 58.2734 267.27 59.4143C267.256 61.2129 266.808 61.6479 265.008 61.6494C256.51 61.6558 248.013 61.6524 239.515 61.6524C239.05 61.6524 238.585 61.6524 238.016 61.6524ZM250.48 59.5168C250.512 59.2 250.551 59.0079 250.546 58.8158C250.392 51.847 250.283 44.8778 250.041 37.9119C249.988 36.405 249.607 34.863 249.112 33.4275C248.34 31.1875 246.716 30.2328 244.246 30.2496C241.795 30.2668 240.197 31.256 239.456 33.5315C238.973 35.0133 238.598 36.5922 238.543 38.14C238.302 45.0265 238.193 51.918 238.04 58.8074C238.035 59.0281 238.087 59.2498 238.117 59.5158C242.254 59.5168 246.31 59.5168 250.48 59.5168Z"></path>
  <path d="M308.223 44.4304C308.2 43.9344 308.183 43.4378 308.152 42.9422C307.859 38.2243 307.627 33.5019 307.256 28.7899C306.621 20.7225 306.95 12.6444 306.86 4.57063C306.855 4.10263 306.86 3.63512 306.86 3.03706C304.327 3.03706 301.892 3.03706 299.365 3.03706C299.365 2.3858 299.365 1.86461 299.365 1.20596C307.45 1.02714 315.545 1.25424 323.733 0C323.733 30.3274 323.733 60.5228 323.733 90.8477C325.767 90.8477 327.643 90.8477 329.564 90.8477C329.564 91.5083 329.564 92.0394 329.564 92.7098C322.445 92.6655 315.396 92.8532 308.257 93.7764C308.257 87.9495 308.257 82.2931 308.257 76.6372C308.177 76.6289 308.098 76.6215 308.019 76.6131C307.855 77.4851 307.695 78.3575 307.526 79.2285C307.021 81.8256 306.367 84.3794 305.183 86.7638C304.781 87.5727 304.336 88.3698 303.827 89.1156C301.72 92.2059 298.719 93.6986 295.024 93.9301C291.739 94.136 288.776 93.2138 286.058 91.4285C282.246 88.9235 279.631 85.4125 277.671 81.3759C275.726 77.3678 274.628 73.1105 274.06 68.7078C273.518 64.5116 273.406 60.3055 273.824 56.0925C274.514 49.1203 276.474 42.5836 280.593 36.8075C282.325 34.3778 284.403 32.2964 286.9 30.6289C290.406 28.2874 294.209 27.813 298.242 28.7722C301.084 29.448 303.199 31.121 304.685 33.6108C306.202 36.1557 306.958 38.9622 307.519 41.8338C307.69 42.7067 307.843 43.5826 308.005 44.4576C308.078 44.4487 308.15 44.4398 308.223 44.4304ZM291.074 59.8316C291.195 65.9732 291.263 71.0538 291.408 76.1328C291.481 78.6492 291.636 81.1675 291.868 83.675C292.023 85.3677 292.503 87.0042 293.433 88.4634C294.654 90.3792 296.379 91.0916 298.61 90.6654C300.036 90.393 301.155 89.6324 302.092 88.5707C303.316 87.186 304.093 85.5519 304.667 83.8208C306.158 79.3319 306.768 74.6899 306.842 69.9877C306.923 64.7885 306.825 59.5868 306.873 54.3865C306.904 50.9475 306.632 47.5399 306.069 44.1541C305.616 41.4298 304.987 38.7489 303.757 36.2473C303.126 34.9626 302.353 33.7802 301.233 32.8585C298.047 30.2367 294.029 31.2949 292.6 35.1315C292.49 35.4266 292.368 35.7247 292.318 36.0321C292.071 37.5445 291.696 39.0549 291.64 40.5761C291.391 47.3444 291.234 54.1171 291.074 59.8316Z"></path>
  <path d="M355.252 90.8156C357.746 90.8156 360.101 90.8156 362.551 90.8156C362.551 91.4821 362.551 92.0398 362.551 92.6659C352.565 92.6659 342.623 92.6659 332.601 92.6659C332.601 92.0891 332.601 91.5565 332.601 90.887C334.482 90.887 336.356 90.887 338.19 90.887C338.456 89.8978 338.522 33.0959 338.278 31.4944C335.867 31.4944 333.433 31.4944 330.9 31.4944C330.9 30.8554 330.9 30.3298 330.9 29.6554C334.909 29.5815 338.965 29.5785 343.013 29.411C347.035 29.2445 351.05 28.912 355.227 28.642C355.235 30.0953 355.247 31.6904 355.251 33.2861C355.256 34.8625 355.252 36.4384 355.252 38.0148C355.252 39.6307 355.252 41.2465 355.252 42.8618C355.252 44.4383 355.252 46.0142 355.252 47.5906C355.252 49.2064 355.252 50.8223 355.252 52.4376C355.252 54.0141 355.252 55.59 355.252 57.1669C355.252 58.7822 355.252 60.3986 355.252 62.0139C355.252 63.5903 355.252 65.1667 355.252 66.7432C355.252 68.359 355.252 69.9748 355.252 71.5902C355.252 73.1666 355.252 74.743 355.252 76.3194C355.252 77.9353 355.252 79.5511 355.252 81.1669C355.252 82.7429 355.252 84.3193 355.252 85.8957C355.252 87.5002 355.252 89.1052 355.252 90.8156Z"></path>
  <path d="M347.75 3.48923C350.369 3.53455 353.034 4.63213 355.089 7.01795C358.115 10.5329 357.98 15.5838 354.807 18.9731C351.051 22.9856 344.429 23.2822 340.328 19.6214C335.529 15.3385 336.367 8.03228 342.024 4.83215C343.612 3.93359 345.329 3.49169 347.75 3.48923Z"></path>
  <path d="M382.486 61.6523C382.437 62.0021 382.397 62.1553 382.398 62.3085C382.408 68.8881 382.386 75.4692 382.466 82.0478C382.481 83.3237 382.763 84.638 383.155 85.8597C384.224 89.1865 386.651 90.9777 390.047 91.5817C393.091 92.1241 395.848 91.3816 398.407 89.7619C401.419 87.8549 403.621 85.2085 405.312 82.1152C407.248 78.5752 408.314 74.7647 408.821 70.7837C408.919 70.0088 409.009 69.2334 409.116 68.3467C409.816 68.3826 410.462 68.4161 411.278 68.4585C411.083 69.8014 410.933 71.0394 410.719 72.2661C410.008 76.3263 408.842 80.2393 406.768 83.8355C403.892 88.8229 399.809 92.3226 394.053 93.4492C385.297 95.1631 378.076 92.3989 372.442 85.5607C369.374 81.8364 367.554 77.4806 366.499 72.8148C364.706 64.8845 364.63 56.9565 366.832 49.0808C368.274 43.919 370.695 39.2666 374.384 35.3246C377.156 32.3624 380.396 30.0766 384.342 28.9652C388.993 27.6553 393.434 28.4071 397.628 30.6746C402.275 33.1871 405.524 37.032 407.85 41.6899C409.936 45.8659 411.045 50.3208 411.438 54.955C411.558 56.3664 411.625 57.7856 411.643 59.202C411.669 61.2104 411.215 61.6498 409.229 61.6508C400.809 61.6543 392.388 61.6523 383.968 61.6523C383.5 61.6523 383.032 61.6523 382.486 61.6523ZM394.875 59.5256C394.875 58.9857 394.881 58.5576 394.874 58.13C394.765 51.9534 394.703 45.7743 394.515 39.5996C394.46 37.805 394.205 35.9813 393.761 34.2423C393.003 31.2702 391.124 30.0805 388.06 30.2741C386.083 30.3988 384.729 31.3712 383.938 33.1467C383.716 33.6472 383.503 34.1748 383.421 34.7103C383.167 36.3793 382.838 38.0543 382.791 39.7336C382.615 46.0664 382.538 52.4017 382.431 58.7369C382.427 58.9901 382.498 59.2438 382.537 59.5256C386.641 59.5256 390.657 59.5256 394.875 59.5256Z"></path>
  <path d="M421.095 3.02406C418.687 3.02406 416.251 3.02406 413.737 3.02406C413.737 2.36246 413.737 1.83485 413.737 1.20281C421.835 1.03039 429.9 1.25404 437.941 0.0195007C437.998 0.31508 438.079 0.536764 438.079 0.758448C438.086 7.73313 438.158 14.7088 438.056 21.6825C437.999 25.4999 437.653 29.3129 437.425 33.1273C437.24 36.2338 437.034 39.3389 436.841 42.445C436.689 44.8825 436.54 47.3205 436.402 49.7591C436.372 50.2744 436.397 50.7931 436.397 51.3094C436.483 51.3187 436.569 51.3281 436.655 51.3375C436.726 51.0626 436.823 50.7921 436.864 50.5128C437.26 47.7802 437.808 45.083 438.732 42.4725C439.753 39.5872 441.135 36.8979 443.173 34.5865C446.833 30.4336 451.502 28.4458 456.997 28.3838C458.528 28.3665 460.093 28.4739 461.588 28.7843C466.203 29.7434 469.003 32.6416 469.987 37.2009C470.324 38.766 470.481 40.3996 470.485 42.0026C470.52 57.7254 470.507 73.4482 470.507 89.1711C470.507 89.6406 470.507 90.1105 470.507 90.7229C473.111 90.88 475.662 90.7007 478.265 90.8298C478.265 91.4456 478.265 91.9786 478.265 92.5924C467.783 92.5924 457.329 92.5924 446.831 92.5924C446.798 92.3156 446.752 92.0884 446.749 91.8604C446.745 91.5535 446.775 91.246 446.797 90.7918C449.074 90.7918 451.305 90.7918 453.664 90.7918C453.664 90.2608 453.664 89.8785 453.664 89.4952C453.664 73.0236 453.667 56.5525 453.654 40.0808C453.653 39.1803 453.588 38.2669 453.43 37.3817C453.045 35.2166 451.56 33.9623 448.93 34.2481C447.549 34.3978 446.384 35.0643 445.335 35.9368C443.661 37.3285 442.503 39.1044 441.573 41.04C440.003 44.3081 439.227 47.7964 438.71 51.3576C438.209 54.7987 438.112 58.2653 438.1 61.731C438.067 70.991 438.089 80.2515 438.089 89.512C438.089 89.8627 438.089 90.214 438.089 90.713C440.024 90.8943 441.908 90.6923 443.841 90.8367C443.841 91.4382 443.841 91.9692 443.841 92.588C433.607 92.588 423.391 92.588 413.117 92.588C413.117 91.9998 413.117 91.4672 413.117 90.8042C415.798 90.8042 418.427 90.8042 421.018 90.8042C421.29 89.8322 421.354 4.48669 421.095 3.02406Z"></path>
  <path d="M516.192 31.4638C513.623 31.4638 511.19 31.4638 508.682 31.4638C508.682 30.8057 508.682 30.2751 508.682 29.6145C516.784 29.5229 524.881 29.6539 533.06 28.4278C533.06 49.2695 533.06 70.0054 533.06 90.8659C535.436 90.8659 537.669 90.8659 539.957 90.8659C539.957 91.5221 539.957 92.0536 539.957 92.7384C532.339 92.66 524.784 92.9704 517.124 93.9182C517.301 86.1184 517.476 78.4383 517.651 70.7581C517.571 70.7458 517.491 70.7325 517.411 70.7197C517.347 70.9961 517.262 71.2685 517.222 71.5483C516.696 75.1815 515.938 78.7585 514.585 82.1857C513.491 84.9558 512.064 87.5293 509.977 89.6973C507.134 92.6507 503.642 94.1823 499.563 94.432C497.82 94.5389 496.083 94.4848 494.377 94.0828C489.694 92.9798 486.718 90.0442 485.243 85.5366C484.602 83.5764 484.288 81.5492 484.277 79.4915C484.248 73.8179 484.251 68.1442 484.249 62.4706C484.247 52.6598 484.249 42.849 484.249 33.0383C484.249 32.5718 484.249 32.1057 484.249 31.4796C481.694 31.4796 479.232 31.4796 476.72 31.4796C476.72 30.786 476.72 30.2559 476.72 29.6106C484.865 29.5263 492.968 29.6697 501.112 28.2282C501.112 28.8125 501.111 29.3155 501.111 29.8185C501.111 47.0369 501.108 64.2549 501.121 81.4729C501.122 82.4118 501.181 83.3705 501.373 84.2863C501.719 85.9425 502.789 86.9376 504.458 87.3406C506.667 87.8736 508.509 87.3056 510.052 85.6661C511.371 84.2631 512.261 82.6039 512.973 80.8393C514.401 77.3032 515.1 73.5937 515.564 69.8325C516.086 65.6027 516.198 61.3518 516.194 57.095C516.187 49.0577 516.192 41.0194 516.192 32.9816C516.192 32.5181 516.192 32.055 516.192 31.4638Z"></path>
  <path d="M551.789 88.0316C550.431 89.4347 549.171 90.7377 547.908 92.0392C546.973 93.0028 546.855 93.0314 545.344 92.6629C545.344 84.9345 545.344 77.1903 545.344 69.357C546.075 69.357 546.759 69.357 547.502 69.357C547.613 70.6324 547.684 71.8837 547.838 73.1241C548.386 77.5337 549.77 81.6437 552.427 85.2571C554.64 88.2671 557.449 90.4933 561.144 91.4116C564.367 92.2131 567.584 92.0555 570.712 90.9549C575.201 89.378 577.669 85.4847 576.91 80.1712C576.569 77.7869 575.402 75.8947 573.522 74.4119C571.486 72.8049 569.158 71.7319 566.778 70.758C563.857 69.5629 560.912 68.4224 558.011 67.18C556.71 66.6224 555.442 65.9524 554.241 65.2021C548.992 61.9212 545.903 57.2308 545.31 51.0478C544.952 47.324 545.328 43.645 546.643 40.1109C548.981 33.8289 553.523 30.0696 560.054 28.6917C563.341 27.9986 566.641 27.9488 569.91 28.8858C572.185 29.538 574.23 30.6061 575.99 32.1968C576.193 32.38 576.404 32.5559 576.71 32.8209C577.171 32.3712 577.614 31.9411 578.054 31.5056C578.726 30.8386 579.465 30.2238 580.05 29.4868C580.869 28.4533 581.868 28.4074 583.06 28.671C583.06 35.6156 583.06 42.5268 583.06 49.5152C582.38 49.5152 581.767 49.5152 581.031 49.5152C580.963 48.7374 580.899 47.9664 580.829 47.1959C580.509 43.6889 579.52 40.3927 577.593 37.4226C574.964 33.3692 571.311 30.8228 566.449 30.2006C563.662 29.844 560.924 30.0986 558.325 31.2617C553.017 33.6372 551.645 40.3015 555.574 44.6076C556.734 45.8791 558.151 46.8058 559.655 47.6112C562.9 49.3497 566.352 50.6059 569.799 51.8656C572.432 52.8277 575.066 53.7834 577.522 55.1559C580.616 56.884 583.233 59.0979 584.893 62.2971C586.073 64.573 586.621 67.0179 586.862 69.5466C587.265 73.7793 586.815 77.8953 585.001 81.7802C582.073 88.0469 577.09 91.751 570.374 93.2112C567.689 93.7949 564.967 93.9383 562.241 93.5944C558.542 93.1284 555.434 91.4195 552.736 88.908C552.453 88.643 552.166 88.3799 551.789 88.0316Z"></path>
</svg>