<svg width="695" height="208" viewBox="0 0 695 208" fill="none" xmlns="http://www.w3.org/2000/svg">
<g clip-path="url(#clip0_1001_60)">
<path d="M247.206 75.543H256.52L283.581 118.799V75.543H291.932V131.723H282.7L255.565 88.5493V131.723H247.215V75.543H247.206Z" fill="black"/>
<path d="M296.511 111.498C296.511 99.4643 303.494 90.6314 315.864 90.6314C321.085 90.6314 326.142 93.1171 328.629 96.6484V91.2734H336.419V131.723H328.629V126.266C326.701 129.715 321.563 132.365 315.947 132.365C303.503 132.365 296.52 123.542 296.52 111.498H296.511ZM316.818 125.541C324.288 125.541 329.262 119.928 329.262 111.498C329.262 103.069 324.288 97.4556 316.818 97.4556C309.349 97.4556 304.375 103.069 304.375 111.498C304.375 119.928 309.275 125.541 316.818 125.541Z" fill="black"/>
<path d="M348.294 118.478V98.0151H340.026V91.2734H345.963C347.486 91.2734 348.294 90.5488 348.294 88.9437V78.5882H356.085V91.2643H372.226V98.0059H356.085V118.231C356.085 122.56 358.489 124.972 362.343 124.972H368.042V131.714H361.783C353.598 131.714 348.294 126.734 348.294 118.469V118.478Z" fill="black"/>
<path d="M408.198 131.714H400.407V124.569C398.241 129.623 393.341 132.356 387.321 132.356C378.172 132.356 372.226 125.78 372.226 116.149V91.2734H380.017V114.626C380.017 121.047 383.788 125.376 389.487 125.376C395.828 125.376 400.407 120.24 400.407 113.177V91.2643H408.198V131.714Z" fill="black"/>
<path d="M421.926 113.425V131.723H414.135V91.2734H421.926V99.0607C423.77 93.6857 426.982 91.2734 432.681 91.2734H435.269V98.0151H431.717C424.33 98.0151 421.926 104.592 421.926 113.425Z" fill="black"/>
<path d="M437.856 91.2734H445.886L456.567 121.927L467.166 91.2734H475.278L460.421 131.723H452.713L437.856 91.2734Z" fill="black"/>
<path d="M521.766 118.478V98.0151H513.498V91.2734H519.435C520.959 91.2734 521.766 90.5488 521.766 88.9437V78.5882H529.557V91.2643H541.523V98.0059H529.557V118.231C529.557 122.56 531.961 124.972 535.815 124.972H541.514V131.714H535.246C527.061 131.714 521.757 126.734 521.757 118.469L521.766 118.478Z" fill="black"/>
<path d="M542.367 111.498C542.367 99.4643 549.351 90.6314 561.721 90.6314C566.942 90.6314 571.998 93.1171 574.485 96.6484V91.2734H582.276V131.723H574.485V126.266C572.558 129.715 567.419 132.365 561.803 132.365C549.36 132.365 542.377 123.542 542.377 111.498H542.367ZM562.675 125.541C570.145 125.541 575.118 119.928 575.118 111.498C575.118 103.069 570.145 97.4556 562.675 97.4556C555.205 97.4556 550.232 103.069 550.232 111.498C550.232 119.928 555.132 125.541 562.675 125.541Z" fill="black"/>
<path d="M596.077 113.425V131.723H588.287V91.2734H596.077V99.0607C597.922 93.6857 601.134 91.2734 606.832 91.2734H611.732V98.0151H605.869C598.482 98.0151 596.077 104.592 596.077 113.425Z" fill="black"/>
<path d="M615.513 91.2734H623.304V98.4187C625.47 93.3647 630.287 90.6314 636.307 90.6314C645.456 90.6314 651.402 97.2079 651.402 106.839V131.714H643.612V108.361C643.612 101.941 639.84 97.6115 634.142 97.6115C627.801 97.6115 623.304 102.748 623.304 109.811V131.723H615.513V91.2734Z" fill="black"/>
<path d="M655.091 111.498C655.091 99.4643 662.075 90.6314 674.445 90.6314C679.666 90.6314 684.722 93.1171 687.209 96.6484V91.2734H695V131.723H687.209V126.266C685.282 129.715 680.143 132.365 674.527 132.365C662.084 132.365 655.101 123.542 655.101 111.498H655.091ZM675.408 125.541C682.878 125.541 687.852 119.928 687.852 111.498C687.852 103.069 682.878 97.4556 675.408 97.4556C667.939 97.4556 662.965 103.069 662.965 111.498C662.965 119.928 667.865 125.541 675.408 125.541Z" fill="black"/>
<path d="M513.645 111.599C513.645 99.4826 505.349 90.7414 493.87 90.7414C482.39 90.7414 474.094 99.4826 474.094 111.599C474.094 123.716 482.39 132.457 493.87 132.457C502.973 132.457 510.066 126.963 512.617 118.653H504.68C502.707 122.964 498.834 125.633 493.87 125.633C486.978 125.633 482.188 120.487 481.674 112.957H513.617C513.645 112.507 513.654 112.049 513.654 111.59L513.645 111.599ZM482.133 107.27C483.078 101.189 487.749 96.9969 493.98 96.9969C500.211 96.9969 504.881 101.189 505.827 107.27H482.142H482.133Z" fill="black"/>
<path d="M89.1863 41.8256L94.4904 41.8073L104.869 70.5349L115.202 41.7523H120.506L107.539 76.7812H102.336L89.1863 41.8256Z" fill="black"/>
<path d="M137.611 49.0075L141.373 52.7498L128.388 80.4043L156.055 67.3521L159.818 71.0944L125.865 86.7056L122.176 83.0367L137.62 49.0167L137.611 49.0075Z" fill="black"/>
<path d="M166.774 88.3108L166.792 93.6124L138.051 103.986L166.847 114.314V119.616L131.802 106.655V101.455L166.774 88.3108Z" fill="black"/>
<path d="M159.588 136.722L155.844 140.483L128.177 127.504L141.235 155.158L137.491 158.919L121.873 124.982L125.544 121.294L159.579 136.731L159.588 136.722Z" fill="black"/>
<path d="M120.267 165.862L114.963 165.881L104.584 137.153L94.2518 165.936H88.9478L101.914 130.907H107.117L120.267 165.862Z" fill="black"/>
<path d="M71.8428 158.681L68.0804 154.938L81.0651 127.284L53.398 140.336L49.6357 136.594L83.5887 120.982L87.2776 124.651L71.8336 158.671L71.8428 158.681Z" fill="black"/>
<path d="M42.6799 119.377L42.6615 114.076L71.4023 103.702L42.6064 93.3739V88.0723L77.6515 101.033V106.233L42.6799 119.377Z" fill="black"/>
<path d="M49.8651 70.9752L53.6091 67.2145L81.2762 80.1933L68.218 52.5389L71.962 48.7782L87.5804 82.7157L83.9098 86.403L49.8742 70.966L49.8651 70.9752Z" fill="black"/>
<path d="M90.728 0.100893L96.5275 0.0825488L113.486 26.9757L113.394 0.0275151L118.597 0.00917053L118.716 35.0106L112.963 35.029L95.9586 8.19085L96.0504 35.0932L90.8473 35.1115L90.7188 0.110066L90.728 0.100893Z" fill="black"/>
<path d="M140.584 5.48502L145.732 8.16332L148.237 39.8536L160.69 15.9414L165.305 18.3446L149.136 49.3928L144.034 46.742L141.465 15.0792L129.04 38.9455L124.424 36.5424L140.593 5.49419L140.584 5.48502Z" fill="black"/>
<path d="M182.218 33.4238L185.53 38.1842L173.014 67.4071L195.156 52.0252L198.13 56.2995L169.371 76.2768L166.085 71.553L178.538 42.3209L156.441 57.6753L153.468 53.4011L182.227 33.4238H182.218Z" fill="black"/>
<path d="M206.086 77.4967L206.801 83.2569L182.126 103.307L208.884 99.9779L209.527 105.142L174.775 109.471L174.06 103.766L198.68 83.6696L171.967 86.9992L171.325 81.8352L206.076 77.5058L206.086 77.4967Z" fill="black"/>
<path d="M206.728 127.614L204.682 133.044L173.509 139.336L198.754 148.82L196.928 153.691L164.149 141.372L166.177 135.988L197.322 129.632L172.123 120.166L173.95 115.296L206.728 127.605V127.614Z" fill="black"/>
<path d="M183.989 172.283L179.657 176.145L149.127 167.229L167.067 187.353L163.186 190.811L139.886 164.679L144.181 160.854L174.711 169.697L156.808 149.609L160.69 146.151L183.989 172.283Z" fill="black"/>
<path d="M93.38 207.917L87.7456 206.542L77.7524 176.365L71.3656 202.552L66.3093 201.323L74.6049 167.312L80.1934 168.669L90.2508 198.809L96.6285 172.668L101.685 173.897L93.3891 207.908L93.38 207.917Z" fill="black"/>
<path d="M46.277 190.71L41.9274 186.876L47.1121 155.516L29.2822 175.732L25.3822 172.292L48.5436 146.032L52.8566 149.839L47.7453 181.199L65.5477 161.02L69.4477 164.459L46.2862 190.719L46.277 190.71Z" fill="black"/>
<path d="M12.581 153.599L10.5071 148.178L29.6859 122.817L4.49647 132.43L2.64282 127.568L35.357 115.076L37.4126 120.45L18.2979 145.839L43.4415 136.245L45.2952 141.106L12.581 153.599Z" fill="black"/>
<path d="M0 105.087L0.688237 99.3267L29.4565 85.7792L2.67954 82.5873L3.29436 77.4233L38.0641 81.5692L37.385 87.2743L8.65343 100.877L35.3754 104.06L34.7606 109.224L0 105.087Z" fill="black"/>
<path d="M11.4247 56.2812L14.7099 51.5024L46.4789 52.8782L24.2535 37.6155L27.1991 33.3321L56.0592 53.1534L52.8015 57.8955L21.0417 56.5838L43.2213 71.819L40.2756 76.1025L11.4156 56.2812H11.4247Z" fill="black"/>
<path d="M44.2399 18.3813L49.3695 15.6754L76.8623 31.6536L64.2813 7.81478L68.8788 5.3933L85.2129 36.3589L80.12 39.0373L52.6088 23.1233L65.1623 46.9162L60.5557 49.3377L44.2215 18.3721L44.2399 18.3813Z" fill="black"/>
<path d="M143.08 201.258L137.445 202.662L114.559 180.584L121.084 206.734L116.037 207.991L107.567 174.026L113.146 172.632L136.069 194.645L129.554 168.541L134.601 167.284L143.071 201.249L143.08 201.258Z" fill="black"/>
</g>
<defs>
<clipPath id="clip0_1001_60">
<rect width="695" height="208" fill="white"/>
</clipPath>
</defs>
</svg>
