<svg xmlns="http://www.w3.org/2000/svg" viewBox="0 0 500 115.7"><path d="M359.5 39.9c6.2 3.5 11.4-7.6 5.2-7.8-3.9-1.9-9.7 4.5-5.2 7.8zM116.4 7.4C90.5 2.9 87-4 57.7 2.9c-6.2-.7-21.8-.5-36.1 8.8-19.8 12.8-28 41.8-16 63.7.2 1.2.5 2.2.9 3.5 6.9 26.9 28.8 38.3 55.1 36.6 29.5-2.1 48.9-16.4 57.7-42 2.6-8.8 4.3-18.6 1.7-27.3-.7-2.1-2.4-7.1-4.7-8.1-2.4-5.4-5.5-9.8-8.1-13.1 2.4.7 8.3 2.1 13.5 4 7.6 2.2 12.8 6.6 15.7.2 4.4-12.3-10.7-19-21-21.8zm-79.3 4C15.6 24.3 4.2 42.8 5.2 72.7c-.3 0-1.4-3.5-1.4-3.5s-12.1-35 18.5-56.1c6.7-4 11.6-5.7 14.8-2.9.2.3.6.8 0 1.2zM115 39c0 .5-1.9 4-2.2 6.6.3 14-6.9 26.1-18.3 34.2-4 2.6-6.7 7.4-19.7 6.6-29.2-4.1-26.8-41.1-4-55.8 9-4.8 24-7.8 34.5-6 5.4 4.6 7.8 10.1 9.7 14.4zm283.3-11.4c3.6-7.9 8.6-13.1 9.3-9.5.3 1.4-5.4 9.3-11.7 17.4.7-2.7 1.5-5.3 2.4-7.9z"/><path d="M497.4 82.2c-5-.7-11.7-.5-19.2-1.2-6.9-.2 4-10.4.7-16.9-6.7-13.1-16.1-6.2-29.9 1-1 .7-25.9 18.1-26.4 11.4-1-14.3 14.2-26.8 20.9-37.5 2.1-3.5 11-20.2 2.8-23.3-6.9-1.4-19.5 12.3-23.7 16.9-7.4 8.6-13.3 18-19.7 27.3-1 1.4-16.1 21.2-15.2 13.3.5-5.2 1.9-11.2 3.3-16.2 1.6-5.5 2.4-12.4 4.1-19.2 6.7-8.5 12.4-16.1 13.3-18.8 1.9-6.7-1.7-4.3-4.5-1.9l.2-.2-.5.5c-.7.7-1.4 1.4-2.1 2.2-6.7 8.6-9 18-17.4 29-4.1 4.8-7.6 9.5-10.4 12.6l-3.1 2.4c-4.1 4.1-15.9 12.3-16.7 11.6-.7-.3.5-5.7 1.6-10 .3-4.3 2.1-5.9 1-8.5 1.7-16.6-13.1-5.5-18.6-2.6-9.1 5.4-14.7 11.7-23.8 18-.2.2-.7.5-.7.3-.2-.2-.2-4.1.7-9.5 0-9.1-3.8-14.7-12.8-7.1-5.5 4.7-10.2 10.4-15.5 15.2-8.3 7.4-7.6 6-7.1-3.6.9-13.3-4.7-9.7-8.5-10.9-8.6-8.1-16.2-3.8-23.8-.5-15.5 4.3-35 20.4-36.8 20-.9 0-1-10.7-1-17.1 0-1.9.2-5.5.3-6.2.3-.5 8.6-1.7 12.8-2.4.3-.3.7-1-1.4-.7-3.3.5-10.4.9-11 .7-.3.2.3-.9.9-4.7.7-4.5 5.2-8.8 1.2-12.8-.3-.3-1.9-.7-2.4 0-3.1 4.1-8.6 11.4-11.2 16.7-2.8.5-3.8.5-8.8 3.1-1.2.7-.9 1-.7 1.2.2 0 .7.5 2.2-.2 2.2-1 3.8-.3 5.5-.2.2 0-2.8 7.9-3.1 8.3-.5.9-1.4 2.2-4 4.8-6.2 4.8-18 19.5-22.3 10.2-.9-1.9-1.9-3.1-1.6-4.7 2.8-4.1 10.2-14.5 13.6-18.1.5-4.8-16.9 7.8-19.3 9.7 3.5-9.5 5.7-19.5 7.8-29.5 1.7-8.3 5.7-25-3.3-27.3-9.7-5.5-13.3 10.4-14.5 15.2-5.5 20.4-13.5 37.1-15.2 58-.3 5.4 1.6 11 3.8 12.9 2.9 1 5.7.3 8.3-.7 4.3-1.9 7.8-6.6 12.3-11.2 16.4 20.7 26.2-2.6 32.1-8.8-2.9 12.3 12.1 26.6 24.9 21.4 2.6-1 7.9-9.5 12.4-14 6-6 12.8-10.9 12.4-10-1 2.6-1.7 10.2 0 13.3 3.5 6.2 8.5 7.4 14.7 1.9 4.7-4.3 8.8-9.1 12.9-13.8 0-.2.2-.3.3-.2.3 1.7-.2 3.8-.2 5.4.3 3.8 3.3 8.1 6.4 10.2 4.3 2.8 7.8-.3 10.5-3.3 7.1-7.1 13.3-12.9 18.6-21.4.2-.2.3-.5.3-.2-1.4 6.6-3.8 15.2.3 21.6 3.8 5.9 10 3.6 14.5-.2 4.7-3.8 8.6-8.5 12.4-12.9 2.6-3.1 4.8-6.7 7.1-10.4.3-.5 2.2-3.6 2.8-5.9 13.8-10.4 14.2-2.2 13.6 1.4-5.5-.7-10.4 12.9-10.9 14.7-3.5 10.4 3.5 24.3 14.3 15.4 3.5-2.9 6.4-6.4 9.1-10.2.9-1.2 5.9-9.5 7.3-12.9 2.4-2.9 3.8-5 7.6-9.3-2.6 6.2-5.5 10.2-6.7 16.7-3.5 7.9 1 23.1 11.2 23.3 11.4-1.7 23.1-16.7 27.1-26.9-.5 6.2-1.9 15.7 3.5 20.4 6.4 5.9 28.7-8.6 28.5-8.8-.9 1-1.9 4.1-1.2 5.9 1.6 3.8 3.8 4.3 6.9 4.1 9.8-.5 14.5-6 16.7-10.2.2-.2.5-.3.5-.2.2.2.2 3.6.9 4.8 2.8 5.2 9.3 4 15.2 4.7 4.1.3 8.5-.7 13.6-1 2.2 0 2.9-3.1-.7-3.4zM264.7 64c-.9.9-9.1 8.3-11.9 11-.2.2-.7 0-.9-.2-.5-.7-1.7-11.7 11.9-11.6.9.1 1.2.5.9.8zM458 80.4c-.5.3-.7 0-.9-.2-1-1.4.9-10.5 12.1-11.9.3 0 1.4 0 1.2.3-.6 1.7-6.1 7.5-12.4 11.8z"/></svg>
