<svg xmlns="http://www.w3.org/2000/svg" viewBox="0 0 500 94.5"><path d="M355.1 60.6l2.5-6.2c1.5 1 3 1.7 4.5 2.2 1.5.5 3.2.7 4.7 1 2.2.2 4.5-.7 6-2.2 1.5-1.5 2.2-3.5 2.2-5.5 0-1.7-.5-3.2-1.2-4.7-1.7-2-4-3.7-6.5-4.7l-4-1.7c-2.7-1.2-5.2-3-6.7-5.7-1.2-2.5-2-5-2-7.7 0-3.5 1.2-6.7 3.7-9.2 2.5-2.5 6-3.7 9.7-3.5 5.2 0 9 1 11 2.7l-2 5.7c-1.2-.7-2.5-1.5-4-1.7-1.5-.5-3.2-.7-5-1-2 0-3.7.5-5.2 2-1.2 1.2-2 3.2-2 5 0 1.2.2 2.2.7 3.5.5 1 1 2 2 2.5 1.5 1.2 3.2 2.2 5 3l4 2c2.7 1.2 5.2 3.2 7 5.7 1.5 2.5 2 5.5 2 8.5 0 3.7-1.5 7-4.2 9.5-3.2 2.7-7.2 4-11.5 4-3.7-.5-7.7-1.5-10.7-3.5m71.3 2v-23c0-5.7-2.5-8.5-7.2-8.5-3 0-5.7 2-7 4.7v26.7H406V37.2c0-1.7-.7-3.2-2-4.2-1.5-1-3.2-1.5-5-1.5-1.5 0-2.7.5-4 1.5-1.2.7-2.2 2-3 3.2v26.7h-6.2V26.7h4l2 4.2c2-3 5.2-4.7 9-4.7 4-.5 8 1.5 10.5 4.7 1-1.5 2.2-2.7 4-3.5 1.7-.7 3.7-1.2 5.7-1.2 3.2-.2 6.2 1 8.5 3.2 2 2.7 3.2 6 3 9.2v24.2l-6.1-.2zm17-49.6c1 0 2 .5 2.7 1.2.7.7 1.2 1.7 1.2 2.7s-.5 2-1.2 2.7-1.7 1.2-2.7 1.2c-1 0-2-.5-2.7-1.2-.7-.7-1.2-1.7-1.2-2.7s.2-2 1-2.7c1.1-.7 1.9-1.2 2.9-1.2m-3.2 49.6V26.4h6.2v36.2h-6.2zm13.7-10.2V11.7h6.2v39.6c0 1.7.5 3.2 1.5 4.5 1 1.2 2.7 1.7 4.2 1.7v5.7c-7.7.1-11.9-3.4-11.9-10.8m30.9-21c-2.5 0-5 1-7 2.7-1.7 1.7-2.7 4-3 6.5H494c0-2.2-.7-4.7-2.2-6.5-1.8-1.9-4.5-2.9-7-2.7m15 14h-25.2c-.2 3.5 1 7 3.2 9.7 2 2 4.7 3 7.5 3 3.2 0 6.5-1 8.7-3.2l2.5 4.5c-1.2 1.2-2.7 2-4.5 2.5-2.7 1-5.5 1.5-8.2 1.5-4.2 0-8.2-1.5-11.2-4.5-3.5-3.7-5.2-8.5-5-13.7-.2-5.2 1.7-10.5 5.2-14.5 2.7-3 7-4.7 11-4.7 4.2-.2 8.5 1.2 11.7 4.2 2.7 3 4.2 7 4 11 .7 1.4.5 2.7.3 4.2M7 37.4c-.2 5 1 9.7 3.2 14.2 1.7 3.5 5.2 5.7 9 5.7 4 .2 8-1.7 10.2-5.2 2.5-4.5 3.7-9.5 3.5-14.7 0-12.7-4.5-19.2-13.7-19.2-3.7 0-7.5 2-9.2 5.2-2.2 4.3-3.5 9-3 14m-7 0c-.2-6.5 1.5-12.7 5.2-18 3-4.7 8.2-7.5 14-7.2 5.7-.2 11.5 2 15.2 6.5 3.5 4.5 5.2 10.5 5.2 18.5.5 6.7-1.5 13.5-5.2 19.2-3.7 4.7-9.2 7.2-15.2 7-5.7.2-11-2.5-14-7.2C1.5 50.4-.2 43.9 0 37.4m50.1-3.2v21.2c.7.7 1.5 1.5 2.5 1.7 1.2.5 2.5.7 3.7.7 7.7 0 11.5-4.5 11.5-13.5.2-3.5-.7-7.2-2.7-10-2.2-2.2-5.5-3.5-8.7-3.2-1 0-2.2.5-3.2 1-1.1.3-2.3 1.1-3.1 2.1m0 26.1v16.2h-6.2V26.4h6.2v3c2.2-2.2 5.2-3.7 8.5-3.5 4.5-.2 8.7 1.5 11.5 4.7 3 4 4.5 9 4.2 14 .2 4.7-1.2 9.5-4.2 13.5-3 3.5-7.5 5.5-12 5.2-1.5 0-3.2-.2-4.7-.7-1.3-.5-2.5-1.3-3.3-2.3m42.7-29.4c-2.5 0-5.2 1-7 2.7-1.7 1.7-2.7 4-3 6.5H102c.2-4.7-3.5-9-8.2-9.2h-1m14.9 14H82.6c-.2 3.5 1 7 3.2 9.7 2 2 4.7 3 7.5 3 3.2 0 6.5-1 8.7-3.2l2.5 4.5c-1.2 1.2-2.7 2-4.5 2.5-2.7 1-5.5 1.5-8.2 1.5-4.2 0-8.2-1.7-11.2-4.7-3.5-3.7-5.5-8.5-5-13.7-.2-5.2 1.7-10.5 5.2-14.5 2.7-3.2 7-5 11-4.7 4.2-.2 8.5 1.2 11.7 4.2 2.7 3 4.2 7 4 11 .5 1.9.5 3.1.2 4.4m23.2-12.5c-1.2-1-2.5-1.5-4-1.5-2.2 0-4.5 1.2-5.7 3.2-1.7 2.2-2.5 4.7-2.5 7.5v20.7h-6.2V26.4h6.2v5.7c1.7-4 5.7-6.5 10-6.5 1.5 0 3.2.2 4.7.5 0 .1-2.5 6.3-2.5 6.3zm23.5 12.2c-1.2-.2-2.7-.5-4-.7-2.7 0-5.5.7-7.7 2.5-1.7 1.5-3 3.5-3 6 0 3.7 2 5.7 6.5 5.7 3.2 0 6.5-1.7 8.2-4.5v-9zm.5 13.8c-2.7 3.2-7 5-11.5 4.7-2.7 0-5.2-1-7-3-2-2-3-4.7-3-7.7 0-3.7 1.7-7 4.5-9.2 3.2-2.7 7.5-4 11.7-3.7 1.5 0 3 .2 4.5 1 0-6-2.5-8.7-7.5-8.7-3.2-.2-6.5 1-9 3.2l-2.5-5.5c1.5-1.2 3-2 4.7-2.5 2-.7 4-1 6-1 4-.2 8 1 11 3.5 2.5 3.2 3.7 7.2 3.5 11.5v13c-.2 2.5.7 5 2.7 6.2v3.2c-2 .2-4-.2-5.7-1.2-1.2-1.1-1.9-2.4-2.4-3.8m14.9-27h-4v-5h4V19l6.2-2.5v10h9.5v5h-9.7v18c-.2 2.2.2 4.5 1.5 6.5 1.2 1.5 3 2 4.7 2 1.7 0 3.5-.5 5-1.2l1 5.7c-2.7.7-5.5 1-8.5 1-2.7 0-5.2-1.2-7-3.2-2-2.2-3-5-2.7-8V31.4zm25.5-18.7c1 0 2 .5 2.7 1.2.7.7 1.2 1.7 1.2 2.7s-.5 2-1.2 2.7c-.7.7-1.7 1.2-2.7 1.2-1 0-2-.5-2.7-1.2-.7-.7-1.2-1.7-1.2-2.7s.2-2 1-2.7c.9-.9 1.9-1.2 2.9-1.2M192 62.3V26.2h6.2v36.2H192zm17.5-17.9c0 9 3 13.5 9.2 13.5 2.7 0 5.2-1.2 6.7-3.5 1.7-3 2.7-6.5 2.5-10 0-9-3-13.5-9.2-13.5-2.7 0-5.2 1.2-6.7 3.5-1.8 3-2.8 6.5-2.5 10m-6.5 0c-.2-5 1.2-9.7 4.2-13.5 2.7-3.5 7-5.2 11.5-5 4.5-.2 8.7 1.5 11.7 5 3 4 4.5 8.7 4.2 13.7.2 5-1.2 9.7-4.2 13.7-6 6.2-16 6.5-22.4.7-.2-.2-.7-.5-1-1-2.7-3.9-4.2-8.9-4-13.6m56.9 17.9V41.4c.2-2.7-.2-5.7-1.7-8-1.5-1.7-3.5-2.5-5.7-2.2-1.5 0-3.2.5-4.5 1.2-1.5.7-2.7 2-3.5 3.2v26.9h-6.2V26.4h4.2l2 4.7c2-3.5 6-5.7 10-5.5 7.7 0 11.5 4.7 11.5 14.5v22.4c-.2.1-6.1-.2-6.1-.2z"/><path d="M352.6 66.3h-.5c-10.2 14.2-23.7 21.4-39.6 21.9-17.5.2-33.9-8.5-43.4-23.4 8.5 18.2 26.9 29.7 47.1 29.7 17.5-.5 33.4-10 42.4-24.9-2.5-1.5-4.5-2.5-6-3.3"/><path d="M295.3 53.4c-4.2-.5-8.5-1.5-12.2-3-.2-.5-.2-1.2-.5-1.7-1.7-6.2-1.7-12.7-.5-19 3.7 1.2 7.7 2 11.7 2.5-.2 2-.2 4-.2 6.2-.3 4.7.4 9.7 1.7 15m6.7 5.2c9.5-.7 18.7-3.7 26.7-8.7l-.7-1.7c-8.7 3.5-18 5.5-27.2 5.5-1.5-6.7-2.2-13.5-2.2-20.2v-1.7c9.2-.5 18-4 24.9-10 3 6.2 4.7 13 5.5 19.9.7 8.5.2 17-2 24.9-5.7 4.2-13 6-19.9 5.2-2.4-4.2-3.8-8.7-5.1-13.2m-16.7-2.7c3.7 1.5 7.7 2.5 12 2.7 1.5 4.5 3.7 8.7 6.5 12.5-.7-.2-1.5-.5-2.5-.7-7.3-2.6-13-7.8-16-14.5m-8.7-5c3 10.5 7.2 15 11.5 18.2 11.2 8.5 26.4 8.5 37.9.5-1.5 5.5-3 9-3 9l1.5.7c7.2-13.2 10.7-25.2 10.7-36.2v-.7l1 1.5.2-.2c3.2-2.2 6-5.5 7.7-9v1c0 8.2-3 17.7-7.2 22.4l1.2 1.2c.2-.2 17.7-21.4 7.7-42.1C336.2-3.5 312.2 1.7 312 2l.2 1.7c15.5-.7 26.7 7.7 30.7 22.2-.5 6.2-3.2 12-7.7 16.5 0-5-1-10-2.7-14.7-1.2-3.5-3-6.7-5-9.5 1.7-1.7 3.5-3.7 4.7-5.7l-1.5-1.2c-1.7 1.7-3.5 3.2-5.5 4.5-5.7-7-13.5-12.5-21.9-15.7v.2c7.2 4.7 13.5 11 18.2 18.5-6.7 4.5-14.7 7.5-22.7 8.2.2-4 .7-8 1.7-12 0-.2.2-.5.2-.5l-1.5-1.2-.2.2v.5c-2 4.2-3.5 8.5-4.2 13-4 0-7.7-.2-11.7-1 3-9.7 10.7-17 21.9-20.7l-.7-1.7c-1.7.5-3.2 1.2-4.7 2-.5.2-1.2.5-1.7.7-6.2 3.2-15 9.2-19.7 19-1.5-.2-3-.7-4.5-1.2 0 .2-.2.5-.2 1l-.2 1c1.5.7 2.7 1.5 4.2 2-1.5 3.7-2.2 7.7-2 11.7 0 2.5.2 4.7.7 7.2-1-.7-2-1.2-3-2l-1.2 1.5.2.2c1.1 1.2 2.6 2.7 4.4 4.2"/></svg>
