<svg width="639" height="140" viewBox="0 0 639 140" fill="none" xmlns="http://www.w3.org/2000/svg">
<g clip-path="url(#clip0_1001_41)">
<path d="M120.484 41.9405C120.484 49.7178 119.005 55.3763 115.632 58.9161C112.256 62.4559 108.452 64.2306 102.189 64.2306C95.9265 64.2306 92.1219 62.4591 88.749 58.9161C85.3729 55.3763 83.6881 49.7178 83.6881 41.9405V1.11243H70.6732V42.3585C70.6732 52.9811 73.4566 61.0702 79.0233 66.6258C84.5901 72.1814 92.2766 74.9592 102.089 74.9592C111.902 74.9592 119.585 72.1814 125.152 66.6258C130.719 61.0734 133.502 52.9843 133.502 42.3585V1.11243H120.487V41.9405H120.484Z" fill="black"/>
<path d="M203.66 37.253C202.722 36.8157 201.743 36.4685 200.738 36.1631C203.499 34.7131 205.751 32.6715 207.471 30.0159C209.246 27.2734 210.132 23.9587 210.132 20.0684C210.132 14.2363 207.851 9.61949 203.296 6.21473C198.737 2.8132 192.182 1.11243 183.625 1.11243H150.125V74.0172H185.713C195.036 74.0172 202.062 72.2843 206.794 68.812C211.523 65.3398 213.891 60.4786 213.891 54.2285C213.891 50.065 212.97 46.5574 211.127 43.7088C209.281 40.8635 206.798 38.7094 203.666 37.2498L203.66 37.253ZM182.372 11.5292C187.382 11.5292 191.041 12.153 193.754 13.8891C196.469 15.6252 197.826 17.9208 197.826 21.5313C197.826 25.1418 196.469 27.8328 193.754 29.6043C191.041 31.3726 187.382 32.26 182.372 32.26H163.14V11.5292H182.372ZM197.301 61.4238C194.446 63.16 190.307 63.6036 184.882 63.6036H163.137V41.9405H184.882C190.31 41.9405 194.446 42.844 197.301 44.6476C200.152 46.4545 201.579 49.2998 201.579 53.19C201.579 57.0803 200.152 59.6909 197.301 61.4238Z" fill="black"/>
<path d="M240.417 1.11243H227.402V74.0204H278.228V63.6036H240.417V1.11243Z" fill="black"/>
<path d="M45.7098 4.18602C41.1192 2.13802 35.6201 1.11563 29.2222 1.11563H0V74.0204H13.0148V50.843H29.2222C35.6233 50.843 41.1192 49.8206 45.7098 47.7726C50.3004 45.7247 53.8312 42.7732 56.3021 38.9184C58.7698 35.0635 60.0068 31.3083 60.0068 26.0292C60.0068 20.75 58.7698 16.892 56.3021 13.0371C53.8312 9.18223 50.3004 6.23401 45.7098 4.1828V4.18602ZM43.1004 36.5231C39.8982 39.1981 35.1079 40.4359 28.8034 40.4294H13.0148V11.5292H28.8034C35.1336 11.5292 39.8982 12.8506 43.1004 15.487C46.2993 18.1265 47.9004 21.1005 47.9004 26.0324C47.9004 30.9643 46.2993 33.8514 43.1004 36.5231Z" fill="black"/>
<path d="M300.627 1.11243H287.612V74.0172H300.627V1.11243Z" fill="black"/>
<path d="M316.854 26.6529H327.597V11.526H346.362V63.6036H336.443V74.0204H368.281V63.6036H358.408V11.526H377.24V26.6529H387.971L387.962 1.11884H316.844L316.854 26.6529Z" fill="black"/>
<path d="M457.839 63.6776H420.744V41.9405H447.495V32.2535H420.744V11.5292H457.037V24.4313H467.768V1.11243H398.776V11.5003H408.695V63.6776H398.776V74.0172L468.638 74.0204V50.9299L457.839 50.7434V63.6776Z" fill="black"/>
<path d="M538.802 21.2451H538.322C537.677 16.7055 535.712 12.8506 533.647 9.68056C531.579 6.51051 528.825 4.10242 525.375 2.46274C521.921 0.819841 517.778 0 512.943 0C507.782 0 503.001 0.916294 498.597 2.7521C494.194 4.5879 490.37 7.16316 487.129 10.4779C483.888 13.7958 481.356 17.7279 479.533 22.2836C477.713 26.8394 476.801 31.8677 476.801 37.3719C476.801 42.8761 477.719 47.943 479.558 52.5824C481.398 57.2153 483.978 61.2148 487.3 64.581C490.621 67.944 494.564 70.561 499.129 72.429C503.694 74.2969 508.684 75.2293 514.103 75.2293C520.391 75.2293 526.035 74.0494 531.032 71.6831C536.031 69.3168 540.19 65.9796 543.515 61.6617C546.836 57.3503 549.078 52.3123 550.238 46.5509L537.851 44.2329C537.046 48.1263 535.554 51.7658 533.38 54.6786C531.202 57.5915 528.467 59.8452 525.178 61.4399C521.886 63.0346 518.197 63.8319 514.099 63.8319C510.485 63.8319 507.18 63.1953 504.18 61.9254C501.181 60.6554 498.601 58.8518 496.442 56.5176C494.281 54.1835 492.593 51.4153 491.385 48.2131C490.176 45.0109 489.571 41.2461 489.571 37.3816C489.571 32.2953 490.611 27.5885 492.693 23.7272C494.774 19.8627 497.66 16.8534 501.352 14.6961C505.047 12.5388 509.309 11.6932 514.148 11.6932C520.243 11.6932 525.436 13.1175 529.727 16.4354C534.015 19.7501 536.837 24.4088 538.19 29.9451H549.533V1.11241H538.802V21.2451Z" fill="black"/>
<path d="M639 11.5292V1.11243H607.117V11.5292H617.033V32.35H580.414V11.5292H590.281V1.11243H558.446V11.5292H568.365V63.6036H558.446V74.0204H590.281V63.6036H580.414V42.2492H617.033V63.6036H607.117V74.0204H639V63.6036H629.081V11.5292H639Z" fill="black"/>
<path d="M464.028 132.072C462.691 132.072 461.602 131.847 460.764 131.393C459.927 130.943 459.266 130.416 458.789 129.815C458.309 129.213 457.939 128.677 457.678 128.204H457.324V131.638H453.116V102.4H457.443V113.27H457.678C457.926 112.826 458.284 112.299 458.751 111.691C459.215 111.084 459.869 110.553 460.706 110.103C461.544 109.653 462.652 109.425 464.028 109.425C465.783 109.425 467.352 109.868 468.737 110.759C470.119 111.65 471.212 112.939 472.01 114.623C472.809 116.311 473.209 118.347 473.209 120.726C473.209 123.105 472.816 125.108 472.03 126.809C471.244 128.509 470.158 129.811 468.776 130.715C467.394 131.618 465.809 132.068 464.028 132.068V132.072ZM463.064 128.403C464.324 128.403 465.374 128.062 466.221 127.384C467.065 126.702 467.707 125.783 468.138 124.616C468.57 123.452 468.786 122.143 468.786 120.69C468.786 119.237 468.573 117.961 468.148 116.816C467.723 115.672 467.085 114.765 466.241 114.099C465.397 113.434 464.337 113.1 463.064 113.1C461.202 113.1 459.788 113.797 458.818 115.189C457.849 116.581 457.362 118.417 457.362 120.693C457.362 122.97 457.855 124.841 458.838 126.265C459.82 127.693 461.231 128.403 463.064 128.403Z" fill="black"/>
<path d="M475.954 139.531L477.017 136.02L477.51 136.139C478.624 136.441 479.571 136.402 480.351 136.033C481.131 135.66 481.723 134.766 482.129 133.354L482.6 131.744L474.243 109.708H478.924L483.27 122.169C483.598 123.137 483.885 124.092 484.136 125.034C484.384 125.976 484.629 126.918 484.864 127.86C485.112 126.918 485.37 125.973 485.631 125.024C485.892 124.076 486.195 123.124 486.536 122.169L490.959 109.708H495.598L486.043 134.689C485.373 136.441 484.474 137.766 483.34 138.663C482.207 139.56 480.754 140.006 478.985 140.006C478.302 140.006 477.696 139.958 477.165 139.859C476.633 139.762 476.231 139.653 475.957 139.534L475.954 139.531Z" fill="black"/>
<path d="M518.838 131.641L508.239 102.403H513.075L518.777 118.671C519.144 119.784 519.563 121.115 520.037 122.664C520.507 124.214 521.032 126.011 521.609 128.05C522.185 125.969 522.704 124.166 523.161 122.632C523.619 121.102 524.028 119.78 524.379 118.668L529.923 102.4H534.781L524.321 131.638H518.835L518.838 131.641Z" fill="black"/>
<path d="M543.595 102.403V131.641H539.111V102.403H543.595Z" fill="black"/>
<path d="M559.973 132.13C556.684 132.13 554.062 131.361 552.11 129.824C550.158 128.288 549.114 126.185 548.985 123.516H553.489C553.621 125.111 554.307 126.294 555.554 127.059C556.8 127.825 558.266 128.207 559.957 128.207C561.819 128.207 563.359 127.776 564.577 126.911C565.795 126.047 566.407 124.908 566.407 123.497C566.407 122.227 565.872 121.282 564.806 120.661C563.736 120.041 562.415 119.52 560.843 119.102L557.422 118.16C555.022 117.52 553.15 116.572 551.807 115.315C550.464 114.058 549.79 112.431 549.79 110.428C549.79 108.74 550.245 107.264 551.156 106.004C552.068 104.74 553.305 103.76 554.874 103.059C556.439 102.358 558.208 102.008 560.173 102.008C562.138 102.008 563.946 102.358 565.473 103.059C567 103.76 568.198 104.721 569.071 105.943C569.944 107.168 570.398 108.55 570.437 110.093H566.072C565.927 108.759 565.308 107.727 564.213 106.994C563.118 106.261 561.739 105.895 560.073 105.895C558.305 105.895 556.894 106.296 555.847 107.1C554.797 107.904 554.275 108.93 554.275 110.171C554.275 111.1 554.555 111.849 555.119 112.418C555.682 112.987 556.375 113.437 557.193 113.771C558.012 114.106 558.794 114.369 559.542 114.566L562.393 115.312C563.324 115.546 564.284 115.864 565.273 116.263C566.262 116.662 567.177 117.179 568.014 117.813C568.852 118.446 569.532 119.234 570.05 120.166C570.569 121.102 570.827 122.23 570.827 123.552C570.827 125.201 570.401 126.674 569.548 127.966C568.694 129.262 567.46 130.278 565.84 131.017C564.219 131.757 562.264 132.126 559.97 132.126L559.973 132.13Z" fill="black"/>
<path d="M576.422 131.641V102.403H583.03L589.421 119.179C589.618 119.703 589.84 120.378 590.091 121.211C590.339 122.041 590.597 122.934 590.858 123.889C591.119 124.844 591.364 125.767 591.586 126.657C591.821 125.793 592.069 124.886 592.333 123.931C592.594 122.976 592.852 122.079 593.1 121.243C593.348 120.407 593.57 119.719 593.77 119.182L600.062 102.406H606.708V131.644H602.246V115.906C602.246 114.832 602.262 113.45 602.294 111.756C602.326 110.061 602.362 108.396 602.404 106.763C602.062 107.952 601.708 109.132 601.341 110.296C600.973 111.46 600.626 112.537 600.3 113.524C599.972 114.511 599.698 115.305 599.475 115.909L593.477 131.647H589.643L583.568 115.909C583.226 115.032 582.791 113.759 582.26 112.084C581.728 110.409 581.181 108.669 580.617 106.862C580.643 107.881 580.668 108.949 580.694 110.061C580.72 111.174 580.742 112.241 580.762 113.26C580.781 114.279 580.791 115.164 580.791 115.909V131.647H576.426L576.422 131.641Z" fill="black"/>
<path d="M611.018 131.641L621.44 102.403H626.945L637.563 131.641H632.705L630.012 123.928H618.489L615.873 131.641H611.015H611.018ZM619.768 120.202H628.694L627.003 115.376C626.61 114.212 626.185 112.862 625.724 111.325C625.267 109.788 624.748 107.984 624.171 105.917C623.595 108.01 623.079 109.833 622.628 111.383C622.177 112.932 621.765 114.263 621.401 115.376L619.768 120.202Z" fill="black"/>
</g>
<defs>
<clipPath id="clip0_1001_41">
<rect width="639" height="140" fill="white"/>
</clipPath>
</defs>
</svg>
