<svg width="220" height="220" viewBox="0 0 220 220" fill="none" xmlns="http://www.w3.org/2000/svg">
<g clip-path="url(#clip0_1001_95)">
<path d="M7.64627 150.388C4.44531 142.092 2.14541 133.563 0.978306 124.742C-0.128731 116.377 -0.308947 107.994 0.497731 99.5774C1.53612 88.6697 4.13637 78.1657 8.27274 68.0396C11.6024 59.889 15.8847 52.2708 21.0509 45.1507C21.3341 44.7556 21.5829 44.3262 21.849 43.9225C22.1665 43.5532 22.5012 43.1925 22.8101 42.806C41.5353 19.0238 65.8215 4.41442 95.8488 0.901636C137.032 -3.90805 170.836 10.5124 197.053 42.6772C197.396 43.098 197.748 43.5017 198.1 43.9139C200.571 47.7617 203.18 51.5235 205.488 55.4658C211.77 66.1845 215.846 77.7449 218.138 89.9323C219.7 98.229 220.292 106.62 219.871 115.054C219.262 127.233 216.73 139.017 212.294 150.388C207.102 163.289 199.902 174.935 190.35 185.052C172.775 203.664 151.338 215.044 126.013 218.797C74.9867 226.355 26.5946 197.6 7.89514 150.929C7.81791 150.749 7.72351 150.577 7.64627 150.397V150.388ZM81.5174 109.137V152.69H94.6216V137.514C96.275 137.325 97.3477 137.906 97.8398 139.257C99.333 143.371 100.852 147.477 102.311 151.608C102.62 152.475 103.023 152.827 103.993 152.793C106.258 152.716 108.524 152.767 110.79 152.767C112.532 152.767 114.265 152.767 116.144 152.767C115.93 152.175 115.801 151.814 115.655 151.453C113.493 145.914 111.304 140.374 109.185 134.817C109.013 134.353 109.047 133.426 109.339 133.237C112.918 130.866 114.102 127.388 114.162 123.325C114.214 119.976 113.896 116.695 111.871 113.886C109.511 110.623 105.992 109.446 102.208 109.317C95.6171 109.085 89.0178 109.128 82.4185 109.068C82.1353 109.068 81.8521 109.119 81.5174 109.154V109.137ZM77.3124 102.163C77.0892 101.51 76.9434 101.003 76.7546 100.514C74.6606 95.1542 72.5839 89.7863 70.447 84.4355C70.0523 83.4392 69.9836 82.8466 71.0563 82.1767C72.9615 80.9914 74.1457 79.162 74.7636 77.0063C75.6561 73.9057 75.699 70.7537 74.8838 67.6617C74.4547 66.0385 73.7853 64.3637 72.807 63.0067C70.5157 59.8374 67.0058 58.8239 63.3328 58.6951C56.7421 58.4718 50.1342 58.5148 43.5349 58.4546C43.2603 58.4546 42.9771 58.5319 42.711 58.5749V102.06H55.9097V86.9348C57.7547 86.3766 58.5786 87.0035 59.1364 88.7127C60.4837 92.8782 62.0627 96.9664 63.6074 101.063C63.7705 101.501 64.3283 102.094 64.7059 102.102C68.8337 102.18 72.97 102.145 77.3038 102.145L77.3124 102.163ZM127.429 68.1255C124.812 68.0311 122.272 67.7047 119.775 67.9108C115.415 68.2715 112.163 70.539 110.575 74.6873C108.129 81.0601 108.224 87.6649 109.777 94.1579C111.296 100.531 116.144 103.58 122.521 102.412C124.52 102.042 126.365 100.883 128.313 100.076C128.494 100.599 128.742 101.338 128.983 102.077H139.186V58.5577H127.438V68.1341L127.429 68.1255ZM149.733 118.842V152.681H161.456V151.024C161.456 143.93 161.456 136.827 161.464 129.732C161.464 129.26 161.542 128.41 161.687 128.384C163.103 128.143 164.571 127.8 165.97 127.963C167.308 128.118 167.103 129.492 167.103 130.505C167.111 137.359 167.103 144.204 167.103 151.058C167.103 151.582 167.103 152.106 167.103 152.639H178.842C178.842 143.354 178.928 134.19 178.799 125.034C178.748 121.616 176.577 119.297 173.298 118.61C169.248 117.76 165.472 118.404 162.151 121.041C161.876 121.255 161.567 121.41 161.052 121.736V118.851H149.716L149.733 118.842ZM132.021 153.145C139.512 152.87 144.721 148.447 146.034 141.044C146.833 136.543 146.833 132.008 145.52 127.594C144.464 124.055 142.31 121.341 138.817 119.812C135.565 118.387 132.184 118.224 128.717 118.43C122.735 118.782 117.655 122.982 116.179 128.779C115.192 132.661 115.132 136.586 115.664 140.503C116.136 143.964 117.346 147.167 120.066 149.598C123.508 152.673 127.653 153.274 132.021 153.145ZM105.795 102.154C105.795 93.3334 105.907 84.7103 105.735 76.0959C105.683 73.3732 104.319 71.0199 101.822 69.5169C99.496 68.1169 96.9301 67.8249 94.3127 67.7305C90.0562 67.5844 85.8597 67.9194 81.8006 69.285C81.3715 69.431 80.745 69.8862 80.7279 70.2126C80.6335 72.6518 80.6764 75.0996 80.6764 77.2468C84.1091 77.0664 87.3873 76.7658 90.6569 76.7658C93.034 76.7658 93.9952 77.9424 94.0981 80.1154C94.1411 81.043 93.7549 81.3092 92.9568 81.4295C91.1117 81.7129 89.2667 82.0135 87.4388 82.3742C80.4876 83.7312 77.6041 87.433 78.059 94.3727C78.325 98.3578 80.7622 101.355 84.6755 102.214C88.4686 103.047 92.1072 102.858 95.2567 99.7835C95.4798 100.411 95.5828 100.943 95.8488 101.381C96.0376 101.699 96.4324 102.103 96.7413 102.111C99.7363 102.163 102.731 102.145 105.812 102.145L105.795 102.154ZM73.382 134.439C72.5238 137.849 71.4168 141.052 69.3142 143.998C63.6932 137.617 58.1495 131.407 52.743 125.077C51.6875 123.849 50.9237 122.234 50.4603 120.671C49.2331 116.566 50.7435 112.83 54.1161 111C57.995 108.896 62.6892 109.6 65.7614 112.813C66.448 113.534 67.083 113.903 68.0012 113.5C68.3788 112.4 68.0012 111.679 67.2031 110.983C65.1607 109.214 62.8093 108.226 60.149 107.9C52.2453 106.921 46.4097 113.122 48.2805 120.731C48.7954 122.818 50.0398 124.717 50.8121 126.409C48.7611 128.023 46.3411 129.449 44.5389 131.442C39.4843 137.024 39.5015 147.425 47.4996 151.702C53.79 155.061 60.2005 154.811 66.1905 150.637C67.452 149.753 68.499 148.559 69.6833 147.468C71.0735 148.963 72.4895 150.405 73.811 151.926C74.5233 152.742 75.2613 152.991 76.4885 152.518C76.1882 151.934 76.008 151.333 75.6304 150.895C74.3088 149.366 72.9529 147.872 71.5455 146.42C70.9619 145.819 70.9362 145.424 71.3567 144.668C72.4723 142.65 73.5107 140.58 74.4032 138.459C74.9095 137.239 75.064 135.865 75.3987 134.439H73.3905H73.382ZM87.1212 60.3184C87.1212 63.4962 89.5155 65.7465 92.871 65.7293C96.1921 65.7121 98.6293 63.4103 98.6464 60.2754C98.6636 57.1749 96.1749 54.8646 92.8452 54.8731C89.4726 54.8903 87.1212 57.1234 87.1212 60.3184ZM125.799 116.437C128.21 116.446 130.098 114.556 130.09 112.16C130.081 109.841 128.21 107.926 125.91 107.874C123.585 107.823 121.56 109.781 121.525 112.126C121.491 114.487 123.413 116.428 125.799 116.437ZM136.105 116.437C138.491 116.437 140.422 114.496 140.396 112.134C140.371 109.798 138.337 107.823 136.02 107.874C133.711 107.917 131.849 109.824 131.832 112.151C131.815 114.565 133.694 116.446 136.105 116.446V116.437Z" fill="black"/>
<path d="M94.5444 129.303C94.5186 128.899 94.4757 128.556 94.4757 128.221C94.4757 124.931 94.4757 121.642 94.4757 118.189C96.7241 118.138 98.9725 117.64 100.637 119.658C101.985 121.29 102.113 125.189 100.955 127.259C99.9251 129.106 98.2002 129.672 94.5444 129.303Z" fill="black"/>
<path d="M55.7037 78.7242V67.5932C58.0036 67.5245 60.3378 67.0607 62.0799 69.1478C63.4702 70.8054 63.6332 74.2924 62.4747 76.4396C61.3848 78.4579 59.617 79.0677 55.7037 78.7242Z" fill="black"/>
<path d="M127.429 84.7878C127.429 87.2528 127.395 89.7092 127.447 92.1741C127.464 93.0244 127.121 93.3937 126.382 93.66C124.057 94.5017 121.851 93.6514 121.182 91.2723C120.006 87.081 120.041 82.7952 121.208 78.604C121.86 76.2506 123.971 75.3488 126.374 75.9758C127.181 76.1819 127.472 76.5598 127.447 77.4101C127.387 79.8665 127.429 82.3315 127.429 84.7964V84.7878Z" fill="black"/>
<path d="M127.223 136.217C127.421 133.649 127.472 131.717 127.747 129.827C128.056 127.706 129.137 126.744 130.871 126.735C132.647 126.735 133.934 127.611 134.063 129.724C134.303 133.683 134.149 137.669 134.123 141.645C134.123 142.066 133.866 142.487 133.703 142.899C133.179 144.179 132.218 144.814 130.828 144.789C129.42 144.763 128.348 144.05 128.09 142.736C127.635 140.383 127.447 137.978 127.215 136.217H127.223Z" fill="black"/>
<path d="M94.081 87.6737C94.081 89.7779 94.0896 91.7791 94.0639 93.7802C94.0639 94.0379 93.9266 94.3643 93.7378 94.5274C92.1244 95.936 89.1466 94.9741 88.6488 92.8956C87.8765 89.6662 89.2495 87.8111 92.502 87.6737C92.9397 87.6565 93.3859 87.6737 94.0725 87.6737H94.081Z" fill="black"/>
<path d="M68.2244 145.836C64.5944 150.56 59.883 152.364 54.1676 151.763C50.6749 151.393 47.534 150.294 45.3714 147.305C40.7201 140.855 44.1614 130.952 51.8763 128.633C52.2282 128.53 52.8289 128.59 53.0434 128.822C58.1066 134.456 63.1355 140.125 68.2244 145.836Z" fill="black"/>
<path d="M91.0087 60.3272C90.9915 59.202 91.7982 58.3432 92.8881 58.326C93.9694 58.3088 94.8104 59.1505 94.8447 60.2756C94.8704 61.3922 94.0466 62.2682 92.9653 62.2768C91.8669 62.2768 91.0344 61.4523 91.0173 60.3358L91.0087 60.3272Z" fill="black"/>
</g>
<defs>
<clipPath id="clip0_1001_95">
<rect width="220" height="220" fill="white"/>
</clipPath>
</defs>
</svg>
