<svg xmlns="http://www.w3.org/2000/svg" viewBox="0 0 500 174.7"><path d="M223.3 59.8c0-2 2.3-2.5 4.1-2.5 2.3 0 4.6.8 6.6 1.5l4.3-7.9c-4.1-1.5-6.9-2-11.2-2-8.4 0-16.3 3.6-16.3 12.7 0 12.5 16.3 7.6 16.3 13 0 2-2.5 2.5-4.1 2.5-3.3 0-6.9-1.5-9.4-3.1l-4.6 8.6c4.3 2.3 8.9 3.6 13.7 3.6 8.6 0 17.3-3.8 17.3-13.2-.2-12.7-16.7-8.7-16.7-13.2m-16.5-9.7h-15.3l-8.4 12.5v-30h-12.5V85h12.5V70.7l9.2 14.2h15.5l-13.2-18.8 12.2-16zm-55.2 34.8H164V49.8h-12.5v35.1zm6.1-53.1c-3.8 0-6.9 3.1-6.9 6.9s3.1 6.9 6.9 6.9c3.8 0 6.9-3.1 6.9-6.9.2-3.9-3.1-6.9-6.9-6.9m339 21.4c-2.8-2.8-6.4-3.8-10.2-3.8-4.8 0-8.1 1.3-11.2 5.1v-4.3h-12.5v35.1h12.5V66.4c0-4.1 2-7.1 6.6-7.1 4.3 0 5.6 3.1 5.6 7.1v18.8H500V63.1c0-4.4-.5-7.1-3.3-9.9m-57.5-4.1c-11.7 0-19.6 6.6-19.6 18.8 0 11.7 8.6 18.6 19.8 18.6 8.4 0 15.8-3.6 18.1-12h-12c-1.5 2.5-3.3 3.3-6.1 3.3-5.1 0-7.6-2.8-7.6-7.9h25.9v-1.3c.3-11.9-6.5-19.5-18.5-19.5m-6.6 13.5c.5-3.6 3.3-5.6 6.9-5.6s6.4 2 7.1 5.6h-14zm-30-8.9c-3.1-3.3-6.1-4.6-10.4-4.6-10.7 0-17.8 8.6-17.8 19.1 0 10.2 6.9 17.8 17 17.8 4.8 0 7.6-1.3 10.9-4.6v3.3c0 5.1-2.8 8.4-8.1 8.4-2.5 0-4.8-.8-5.8-3.6h-14c.5 3.3 1.5 4.8 3.8 7.4 4.6 4.6 9.7 6.1 16 6.1 5.8 0 11.4-1.3 15.5-5.6 4.3-4.6 4.8-8.4 4.8-14.5V50.4H402l.6 3.3zm-7.4 21.6c-4.3 0-8.1-3.6-8.1-7.9s3.6-7.9 8.1-7.9c4.3 0 7.9 3.6 7.9 7.9s-3.6 7.9-7.9 7.9M267.3 48.8c-3.1 0-6.9 1-9.4 3.1l-1.5 1.5V32.6h-12.5V85h12.5v-3.8c2.8 3.6 6.4 5.1 10.7 5.1 10.4 0 17.8-8.6 17.8-18.8-.1-10-7.4-18.7-17.6-18.7M264 75.5c-4.3 0-8.1-3.6-8.1-8.1 0-4.3 3.6-7.9 8.1-7.9 4.3 0 7.9 3.6 7.9 7.9 0 4.3-3.6 8.1-7.9 8.1m92.8-21.8c-3.1-3.3-6.1-4.6-10.4-4.6-10.7 0-17.8 8.6-17.8 19.1 0 10.2 6.9 17.8 17 17.8 4.8 0 7.6-1.3 10.9-4.6v3.3c0 5.1-2.8 8.4-8.1 8.4-2.5 0-4.8-.8-5.8-3.6h-14c.5 3.3 1.5 4.8 3.8 7.4 4.6 4.6 9.7 6.1 16 6.1 5.8 0 11.4-1.3 15.5-5.6 4.3-4.6 4.8-8.4 4.8-14.5V50.4h-12.5l.6 3.3zm-7.4 21.6c-4.3 0-8.1-3.6-8.1-7.9 0-4.3 3.6-7.9 8.1-7.9 4.3 0 7.9 3.6 7.9 7.9 0 4.3-3.5 7.9-7.9 7.9m-33.3-25.2L307 67.9l-9.4-17.8h-14.2l16.8 30.3-11.2 20.9h13.7l27.5-51.1h-14.1v-.1zm-175.5 8.4c2-2.8 3.1-6.4 3.1-9.7 0-4.3-1.5-8.6-4.6-11.7-3.6-3.8-7.9-4.6-12.7-4.6H105v52.4h13.7v-20l13 20.1h16.8L132 63.6c3.8-.8 6.6-2.1 8.6-5.1M121.3 56h-2.5V43h2.5c4.1 0 8.4 1.5 8.4 6.4 0 5-4.1 6.6-8.4 6.6"/><path d="M40.2 48.6h-1L75.8 85V32.6l-.8 1c-6.3 8.1-19.6 14-34.8 15m35.3-26C75.5 10.2 57.5 0 35.1 0 21.1 0 7.6 4.3.3 11.2l-.3.2v73.8l.8-.5c7.9-5.8 19.8-9.4 32.3-9.7h.5V45.5c2.8 0 18.3.3 30.5-6.9 7.6-4.5 11.4-10.1 11.4-16M36.9 50.9v71.5l50.4 52.4V101L36.9 50.9z"/></svg>
