<svg width="675" height="114" viewBox="0 0 675 114" fill="none" xmlns="http://www.w3.org/2000/svg">
<path d="M158.362 110.901C148.587 110.901 138.673 106.653 135.128 100.008C131.444 105.946 121.675 110.901 112.184 110.901C97.1709 110.901 85.4116 104.104 85.4116 91.229C85.4116 74.8199 104.956 68.4882 131.868 67.7813V55.843C131.868 52.4536 131.777 49.2818 126.436 49.2818C122.988 49.2818 121.167 51.5534 121.167 53.6922C121.167 55.2449 121.228 55.7705 121.228 57.4743C121.228 62.2895 116.038 65.8178 108.495 65.8178C98.0117 65.8178 92.0655 61.2503 92.0655 52.7618C92.0655 42.9984 103.534 32.5283 128.045 32.5283C152.688 32.5283 166.153 44.1282 166.153 57.287V90.8182C166.153 92.9388 167.557 94.0686 169.251 94.0686C171.095 94.0686 172.705 92.9327 172.705 90.8182V87.9604H184.597V87.9846C184.603 101.56 175.541 110.901 158.362 110.901ZM131.874 77.3573C121.645 77.9978 116.806 82.7103 116.806 87.9907C116.806 91.8392 119.594 94.0806 124.246 94.0806C128.523 94.0806 131.874 91.519 131.874 87.9363V77.3573Z" fill="black"/>
<path d="M46.6014 111.324C38.1025 111.324 28.5331 107.753 23.3733 104.388V109.342H2.26837V81.7557H17.4211C22.5204 89.1084 32.2955 93.6336 43.4922 93.6336C47.8777 93.6336 49.9102 91.1746 49.5835 88.6553C48.2346 78.3844 2.27442 87.2173 2.27442 56.9486C2.27442 42.938 16.8585 33.0781 36.4149 33.0781C45.0528 33.0781 53.2371 37.1985 54.5437 39.307L54.6889 34.2079H75.7938V59.5284H58.9232C56.2314 53.3055 48.3979 49.7651 39.7479 49.7651C35.5015 49.7651 32.8641 51.8434 32.8641 54.1091C32.8641 66.0172 80.6027 53.7284 80.6027 85.7009C80.5967 100.575 67.422 111.324 46.6014 111.324Z" fill="black"/>
<path d="M329.119 87.9846V57.9636C329.119 43.796 320.505 32.5706 307.083 32.5706C292.438 32.5706 283.395 42.0741 278.211 51.0278C276.082 40.1226 269.857 32.5706 258.413 32.5706C244.282 32.5706 235.602 41.0228 230.938 50.3511V34.2199H188.71V55.5832L198.074 55.5168V87.9544H188.71V109.348H235.021V87.9846H230.968V69.2676C230.968 60.773 235.868 55.4866 240.387 55.4866C245.135 55.4866 246.381 59.5345 246.381 68.0592V87.9544H242.328V109.348H283.437V87.9846H279.384V69.2676C279.384 60.773 284.284 55.4866 288.803 55.4866C293.551 55.4866 294.797 59.5345 294.797 68.0592V87.9544H290.744V109.348H338.495V87.9846H329.119Z" fill="black"/>
<path d="M527.786 110.901C518.011 110.901 508.096 106.653 504.552 100.008C500.868 105.946 491.099 110.901 481.608 110.901C466.594 110.901 454.835 104.104 454.835 91.229C454.835 74.8199 474.379 68.4882 501.291 67.7813V55.843C501.291 52.4536 501.201 49.2818 495.859 49.2818C492.411 49.2818 490.591 51.5534 490.591 53.6922C490.591 55.2449 490.651 55.7705 490.651 57.4743C490.651 62.2895 485.461 65.8178 477.918 65.8178C467.435 65.8178 461.489 61.2503 461.489 52.7618C461.489 42.9984 472.958 32.5283 497.468 32.5283C522.112 32.5283 535.577 44.1282 535.577 57.287V90.8182C535.577 92.9388 536.98 94.0686 538.674 94.0686C540.519 94.0686 542.128 92.9327 542.128 90.8182V87.9604H554.02V87.9846C554.02 101.56 544.965 110.901 527.786 110.901ZM501.291 77.3573C491.062 77.9978 486.223 82.7103 486.223 87.9907C486.223 91.8392 489.012 94.0806 493.664 94.0806C497.94 94.0806 501.291 91.519 501.291 87.9363V77.3573Z" fill="black"/>
<path d="M558.115 109.348V87.9846H567.479V24.0277H558.115V2.67041H601.825V87.9846H611.183V109.348H558.115Z" fill="black"/>
<path d="M618.49 109.348V87.9846H627.854V24.0277H618.49V2.67041H662.2V87.9846H671.558V109.348H618.49Z" fill="black"/>
<path d="M439.797 87.9846V57.9636C439.797 43.796 431.559 32.5645 417.325 32.5645C403.231 32.5645 393.728 41.3733 389.258 50.3451V2.67041H345.796V23.9612H355.154V87.9786H345.796V109.342H393.329V87.9786H389.276V69.2615C389.276 60.767 394.176 55.4805 398.695 55.4805C403.443 55.4805 404.689 59.5284 404.689 68.0532V87.9484H400.636V109.342H449.155V87.9786H439.797V87.9846Z" fill="black"/>
</svg>
