<svg xmlns="http://www.w3.org/2000/svg" viewBox="0 0 1200 284">
<g id="_310241528">
 <path class="fil0" d="M0 63c0,57 31,63 77,94 22,14 40,53 -8,64l0 13c42,0 69,-25 69,-63 0,-80 -99,-71 -99,-122 0,-34 24,-10 26,-36 -13,-11 -66,6 -66,49z"/>
 <path class="fil0" d="M551 26l0 191c-15,0 -15,-1 -16,13 12,7 51,3 66,3 13,0 1,1 10,-3 -1,-14 -2,-13 -16,-13l0 -198c0,-15 -15,-10 -49,-10 -11,0 -21,16 7,16z"/>
 <path class="fil0" d="M452 26l16 0 0 191 -16 0 0 16 73 0 0 -16 -16 0 0 -198c0,-14 -14,-10 -46,-10 -11,0 -10,6 -10,16z"/>
 <path class="fil0" d="M633 43c0,15 -2,25 3,36l-23 0 0 13 20 0 0 115c0,38 59,39 63,0 -15,-4 -8,-4 -23,0l0 -115 16 0 0 -13 -16 0c0,-41 6,-63 -10,-63 -17,0 -1,19 -30,26z"/>
 <path class="fil0" d="M1134 43c0,15 -2,25 3,36l-20 0 0 13 16 0 0 115c0,26 41,50 66,3 -18,-10 -7,-5 -26,-3l0 -115 16 0 0 -13 -16 0c0,-41 6,-59 -7,-62 -19,-5 -2,19 -32,26z"/>
 <path class="fil0" d="M926 244c0,34 -33,20 -44,17 -11,-4 -14,-4 -15,13 16,4 26,10 46,10 30,0 53,-19 53,-49l0 -142 16 0 0 -13 -56 0 0 165z"/>
 <polygon class="fil0" points="152,92 168,92 168,218 152,218 152,234 224,234 224,218 208,218 208,79 152,79 "/>
 <path class="fil0" d="M409 234c18,0 31,-5 40,-16 -11,-16 -5,-8 -23,-7 0,-34 9,-102 -17,-125 -5,-5 -29,-16 -34,-6 -8,16 8,-2 9,35 0,51 -11,119 26,119z"/>
 <path class="fil0" d="M221 96c11,0 16,-1 16,10l0 129 56 0 0 -16 -16 0 0 -112c0,-28 -35,-35 -49,-26 -10,6 -6,1 -7,16z"/>
 <path class="fil0" d="M808 234c19,0 31,-4 40,-16 -11,-16 -5,-8 -23,-7 0,-69 15,-130 -49,-135 0,27 8,13 10,36 5,53 -17,122 23,122z"/>
 <path class="fil0" d="M854 145c0,102 59,103 59,69l-16 0 0 -109c0,-10 8,-11 16,-13l0 -13 -16 0c-28,0 -43,37 -43,66z"/>
 <path class="fil0" d="M992 145c0,42 3,89 53,89 -1,-25 -10,-12 -10,-26l0 -99c0,-17 -1,-3 5,-15 3,-6 5,-5 5,-18 -36,1 -53,33 -53,69z"/>
 <path class="fil0" d="M709 195c0,23 27,53 66,33 -3,-6 -3,-4 -3,-13 -23,-2 -20,-12 -20,-36 0,-30 16,-5 16,-40 -27,6 -59,27 -59,56z"/>
 <path class="fil0" d="M310 195c0,19 16,40 40,40 11,0 13,-2 23,-3 -1,-31 -20,-9 -20,-30l0 -30c0,-21 16,1 16,-33 -28,7 -59,28 -59,56z"/>
 <path class="fil0" d="M1065 105l0 40c-16,0 -16,0 -16,16l59 0c0,-42 -7,-82 -53,-86 0,29 10,15 10,30z"/>
 <path class="fil0" d="M0 234l13 0c0,-13 -1,-8 3,-16 20,5 10,16 46,16l0 -13c-33,-3 -44,-24 -48,-51 -2,-16 2,-17 -14,-19l0 82z"/>
 <path class="fil0" d="M119 89l13 0 0 -79c-14,1 -13,2 -13,16 -21,-5 -17,-16 -46,-16 1,33 46,3 46,79z"/>
 <path class="fil0" d="M336 132c36,0 21,-31 23,-39 1,-3 3,7 3,-17 -55,1 -52,56 -26,56z"/>
 <path class="fil0" d="M719 109c0,36 43,26 42,0 -1,-17 -4,0 0,-21 1,-6 1,-6 1,-12 -22,2 -43,10 -43,33z"/>
 <path class="fil0" d="M785 26c0,32 -17,26 -10,33l10 0c33,-9 33,-60 -13,-60 5,17 13,4 13,26z"/>
 <path class="fil0" d="M320 33c0,43 40,21 40,7 0,-25 -40,-29 -40,-7z"/>
 <path class="fil0" d="M379 36c0,13 3,10 10,20l20 0c7,-10 10,-7 10,-20 0,-22 -40,-24 -40,0z"/>
 <path class="fil0" d="M729 16c0,47 6,33 33,46 -2,-20 -13,-11 -13,-33 0,-19 9,-14 13,-30 -23,1 -19,7 -33,16z"/>
 <path class="fil0" d="M1055 221l0 13c31,0 46,-22 46,-36 0,-5 -9,-8 -13,-10 -1,11 -4,17 -10,23 -4,4 -4,4 -10,6 -4,2 -8,2 -13,4z"/>
</g>
</svg>
