<svg width="739" height="149" viewBox="0 0 739 149" fill="none" xmlns="http://www.w3.org/2000/svg">
<g clip-path="url(#clip0_1001_116)">
<path d="M2.33477 115.6C2.37967 115.047 2.37967 114.314 2.20007 114.09H14.3529C14.0835 114.314 14.2182 115.047 14.3079 115.6L16.957 128.059L19.6061 115.6C19.6959 115.047 19.8306 114.314 19.5612 114.09H31.6242C31.3997 114.314 31.3548 115.047 31.3997 115.6L33.4051 144.123C33.4501 144.676 33.5399 145.394 33.8692 145.634H24.6947C24.9192 145.409 24.9192 144.676 24.8743 144.123L23.7817 128.598L20.7286 144.123C20.6388 144.676 20.5041 145.394 20.7735 145.634H13.2304C13.4549 145.409 13.3202 144.676 13.2304 144.123L10.0275 128.059L8.97989 144.123C8.89011 144.676 8.935 145.394 9.20438 145.634H0C0.269397 145.409 0.314296 144.676 0.404094 144.123L2.31981 115.6H2.33477Z" fill="black"/>
<path d="M36.0405 115.6C36.0405 115.047 35.9958 114.314 35.7264 114.09H45.3649C45.0952 114.314 45.0505 115.047 45.0505 115.6V135.777C45.0505 137.692 46.0533 138.559 47.2954 138.559C48.4327 138.559 49.4355 137.781 49.5402 136.046V115.6C49.5402 115.047 49.4955 114.314 49.2262 114.09H58.8646C58.5952 114.314 58.5502 115.047 58.5502 115.6V135.553C58.5502 141.625 55.3472 146.097 47.3103 146.097C39.2733 146.097 36.0707 141.625 36.0707 135.553V115.6H36.0405Z" fill="black"/>
<path d="M61.2562 135.912C63.1271 137.333 65.417 138.649 68.2907 138.649C70.1165 138.649 71.0746 137.647 71.0746 136.405C71.0746 135.029 70.3411 134.072 68.6498 132.756C64.8184 129.645 61.6157 127.865 61.6157 122.166C61.6157 117.186 65.5369 113.626 71.4784 113.626C74.3968 113.626 75.9536 114.075 77.2407 114.494C77.5998 114.628 77.8841 114.673 78.0189 114.673C78.3333 114.673 78.6176 114.449 78.6176 114.449V122.57C77.0161 121.523 75.3248 120.88 73.6786 120.88C71.8077 120.88 70.8947 121.703 70.8947 122.839C70.8947 123.976 72.7208 125.352 73.7236 126.085C77.2854 128.822 80.2939 131.335 80.2939 135.986C80.2939 141.834 76.2677 146.067 68.9642 146.067C66.6743 146.067 63.8904 145.29 62.6182 144.886C62.2591 144.751 61.9748 144.706 61.84 144.706C61.5259 144.706 61.2413 144.931 61.2413 144.931V135.897L61.2562 135.912Z" fill="black"/>
<path d="M83.1842 115.6C83.1842 115.047 83.1391 114.314 82.8698 114.09H99.1683V121.673C98.9436 121.404 98.2105 121.359 97.6566 121.359H92.1789V126.294H96.9681C97.522 126.294 98.2403 126.25 98.4798 125.98V133.055C98.2552 132.786 97.522 132.741 96.9681 132.741H92.1789V138.125H97.6566C98.2105 138.125 98.9287 138.08 99.1683 137.811V145.663H82.8698C83.1391 145.439 83.1842 144.706 83.1842 144.153V115.63V115.6Z" fill="black"/>
<path d="M102.176 115.6C102.176 115.047 102.131 114.314 101.861 114.09H111.5C111.23 114.314 111.185 115.047 111.185 115.6V135.777C111.185 137.692 112.188 138.559 113.43 138.559C114.568 138.559 115.571 137.781 115.675 136.046V115.6C115.675 115.047 115.631 114.314 115.361 114.09H125C124.73 114.314 124.685 115.047 124.685 115.6V135.553C124.685 141.625 121.482 146.097 113.445 146.097C105.408 146.097 102.206 141.625 102.206 135.553V115.6H102.176Z" fill="black"/>
<path d="M129.175 115.6C129.22 115.047 129.22 114.314 129.04 114.09H141.193C140.923 114.314 141.058 115.047 141.148 115.6L143.797 128.059L146.446 115.6C146.536 115.047 146.671 114.314 146.401 114.09H158.464C158.24 114.314 158.195 115.047 158.24 115.6L160.245 144.123C160.29 144.676 160.38 145.394 160.709 145.634H151.535C151.759 145.409 151.759 144.676 151.714 144.123L150.622 128.598L147.569 144.123C147.479 144.676 147.344 145.394 147.614 145.634H140.07C140.295 145.409 140.16 144.676 140.07 144.123L136.868 128.059L135.82 144.123C135.73 144.676 135.775 145.394 136.044 145.634H126.87C127.139 145.409 127.184 144.676 127.274 144.123L129.19 115.6H129.175Z" fill="black"/>
<path d="M170.649 129.75C170.649 119.758 174.764 113.641 183.026 113.641C191.288 113.641 195.448 119.758 195.448 129.75C195.448 139.741 191.288 146.082 183.026 146.082C174.764 146.082 170.649 139.741 170.649 129.75ZM185.989 129.75C185.989 125.322 185.301 121.164 183.026 121.164C180.751 121.164 180.108 125.322 180.108 129.75C180.108 134.446 180.796 138.559 183.026 138.559C185.256 138.559 185.989 134.446 185.989 129.75Z" fill="black"/>
<path d="M198.424 115.6C198.424 115.047 198.379 114.314 198.11 114.09H214.408V121.673C214.184 121.404 213.45 121.359 212.896 121.359H207.419V126.294H212.208C212.762 126.294 213.48 126.25 213.72 125.98V133.055C213.495 132.786 212.762 132.741 212.208 132.741H207.419V144.153C207.419 144.706 207.464 145.424 207.733 145.663H198.095C198.364 145.439 198.409 144.706 198.409 144.153V115.63L198.424 115.6Z" fill="black"/>
<path d="M223.315 135.912C225.186 137.333 227.475 138.649 230.349 138.649C232.175 138.649 233.133 137.647 233.133 136.405C233.133 135.029 232.399 134.072 230.708 132.756C226.876 129.645 223.674 127.865 223.674 122.166C223.674 117.186 227.595 113.626 233.537 113.626C236.455 113.626 238.012 114.075 239.299 114.494C239.658 114.628 239.943 114.673 240.077 114.673C240.391 114.673 240.676 114.449 240.676 114.449V122.57C239.074 121.523 237.383 120.88 235.737 120.88C233.866 120.88 232.953 121.703 232.953 122.839C232.953 123.976 234.779 125.352 235.782 126.085C239.344 128.822 242.352 131.335 242.352 135.986C242.352 141.834 238.326 146.067 231.022 146.067C228.732 146.067 225.949 145.29 224.677 144.886C224.317 144.751 224.033 144.706 223.898 144.706C223.584 144.706 223.3 144.931 223.3 144.931V135.897L223.315 135.912Z" fill="black"/>
<path d="M243.324 115.6C243.189 115.047 243.055 114.314 242.68 114.09H251.81C251.63 114.314 251.72 115.047 251.81 115.6L253.995 133.818L256.24 115.6C256.285 115.047 256.42 114.314 256.195 114.09H265.1C264.921 114.314 265.011 115.047 265.1 115.6L267.66 134.491L269.994 115.6C270.039 115.047 270.174 114.314 269.95 114.09H278.63C278.316 114.314 278.121 115.047 278.032 115.6L272.464 144.123C272.374 144.676 272.284 145.394 272.509 145.634H262.601C262.781 145.409 262.691 144.676 262.601 144.123L260.595 133.713L258.724 144.123C258.635 144.676 258.545 145.394 258.77 145.634H248.862C249.041 145.409 248.996 144.676 248.862 144.123L243.339 115.6H243.324Z" fill="black"/>
<path d="M281.01 115.6C281.01 115.047 280.965 114.314 280.696 114.09H296.994V121.673C296.769 121.404 296.036 121.359 295.482 121.359H290.005V126.294H294.794C295.348 126.294 296.066 126.25 296.305 125.98V133.055C296.081 132.786 295.348 132.741 294.794 132.741H290.005V138.125H295.482C296.036 138.125 296.755 138.08 296.994 137.811V145.663H280.696C280.965 145.439 281.01 144.706 281.01 144.153V115.63V115.6Z" fill="black"/>
<path d="M300.137 115.6C300.137 115.047 300.092 114.314 299.823 114.09H309.147C317.095 114.09 322.752 119.07 322.752 129.75C322.752 138.873 318.007 145.634 309.147 145.634H299.823C300.092 145.409 300.137 144.676 300.137 144.123V115.6ZM309.147 138.11C312.305 138.11 313.308 134.461 313.308 129.764C313.308 125.068 312.305 121.359 309.147 121.359V138.11Z" fill="black"/>
<path d="M325.717 115.6C325.717 115.047 325.672 114.314 325.403 114.09H335.039C334.77 114.314 334.725 115.047 334.725 115.6V144.123C334.725 144.676 334.77 145.394 335.039 145.634H325.403C325.672 145.409 325.717 144.676 325.717 144.123V115.6Z" fill="black"/>
<path d="M338.511 135.912C340.381 137.333 342.672 138.649 345.544 138.649C347.372 138.649 348.328 137.647 348.328 136.405C348.328 135.029 347.596 134.072 345.904 132.756C342.073 129.645 338.87 127.865 338.87 122.166C338.87 117.186 342.792 113.626 348.733 113.626C351.651 113.626 353.21 114.075 354.496 114.494C354.856 114.628 355.138 114.673 355.274 114.673C355.589 114.673 355.874 114.449 355.874 114.449V122.57C354.269 121.523 352.581 120.88 350.934 120.88C349.064 120.88 348.15 121.703 348.15 122.839C348.15 123.976 349.975 125.352 350.98 126.085C354.542 128.822 357.55 131.335 357.55 135.986C357.55 141.834 353.524 146.067 346.218 146.067C343.93 146.067 341.146 145.29 339.872 144.886C339.515 144.751 339.23 144.706 339.094 144.706C338.78 144.706 338.498 144.931 338.498 144.931V135.897L338.511 135.912Z" fill="black"/>
<path d="M360.438 115.6C360.438 115.047 360.395 114.314 360.123 114.09H369.763C369.494 114.314 369.448 115.047 369.448 115.6V126.279H373.01V115.6C373.01 115.047 372.965 114.314 372.696 114.09H382.335C382.066 114.314 382.021 115.047 382.021 115.6V144.123C382.021 144.676 382.066 145.394 382.335 145.634H372.696C372.965 145.409 373.01 144.676 373.01 144.123V132.935H369.448V144.123C369.448 144.676 369.494 145.394 369.763 145.634H360.123C360.395 145.409 360.438 144.676 360.438 144.123V115.6Z" fill="black"/>
<path d="M392.869 115.6C392.869 115.047 392.824 114.314 392.555 114.09H401.88C409.827 114.09 415.483 119.07 415.483 129.75C415.483 138.873 410.741 145.634 401.88 145.634H392.555C392.824 145.409 392.869 144.676 392.869 144.123V115.6ZM401.864 138.11C405.024 138.11 406.025 134.461 406.025 129.764C406.025 125.068 405.024 121.359 401.864 121.359V138.11Z" fill="black"/>
<path d="M418.449 115.6C418.449 115.047 418.404 114.314 418.135 114.09H428.776C436.318 114.09 440.285 117.156 440.285 123.767C440.285 127.79 438.593 130.438 435.809 131.754L441.287 144.123C441.601 144.676 441.886 145.394 442.291 145.634H432.428C432.561 145.409 432.607 144.676 432.292 144.123L427.547 132.711H427.46V144.123C427.46 144.676 427.502 145.394 427.774 145.634H418.135C418.404 145.409 418.449 144.676 418.449 144.123V115.6ZM428.267 127.102C429.732 127.102 430.915 125.876 430.915 123.812C430.915 121.748 429.732 120.521 428.267 120.521H427.534V127.087H428.267V127.102Z" fill="black"/>
<path d="M444.385 115.6C444.385 115.047 444.34 114.314 444.071 114.09H453.71C453.438 114.314 453.396 115.047 453.396 115.6V144.123C453.396 144.676 453.438 145.394 453.71 145.634H444.071C444.34 145.409 444.385 144.676 444.385 144.123V115.6Z" fill="black"/>
<path d="M457.632 115.6C457.632 115.047 457.587 114.314 457.318 114.09H466.491L466.403 114.179C466.267 114.449 466.491 115.092 466.672 115.6L471.145 127.566V115.6C471.145 115.047 471.1 114.314 470.831 114.09H480.006C479.737 114.314 479.692 115.047 479.692 115.6V144.123C479.692 144.676 479.737 145.394 480.006 145.634H470.831L470.876 145.589C471.057 145.319 470.788 144.631 470.652 144.123L466.176 132.157V144.123C466.176 144.676 466.222 145.394 466.491 145.634H457.318C457.587 145.409 457.632 144.676 457.632 144.123V115.6Z" fill="black"/>
<path d="M483.941 115.6C483.941 115.047 483.896 114.314 483.627 114.09H493.266C492.997 114.314 492.952 115.047 492.952 115.6V126.504L498.07 115.6C498.339 115.047 498.384 114.314 498.248 114.09H507.664C507.259 114.314 506.841 115.047 506.614 115.6L500.763 128.059L506.886 144.123C507.11 144.676 507.395 145.394 507.797 145.634H497.934C498.07 145.409 498.115 144.676 497.888 144.123L492.952 131.2V144.123C492.952 144.676 492.997 145.394 493.266 145.634H483.627C483.896 145.409 483.941 144.676 483.941 144.123V115.6Z" fill="black"/>
<path d="M510.584 115.6C510.584 115.047 510.539 114.314 510.27 114.09H519.906C519.637 114.314 519.592 115.047 519.592 115.6V144.123C519.592 144.676 519.637 145.394 519.906 145.634H510.27C510.539 145.409 510.584 144.676 510.584 144.123V115.6Z" fill="black"/>
<path d="M523.828 115.6C523.828 115.047 523.782 114.314 523.513 114.09H532.686L532.595 114.179C532.462 114.449 532.686 115.092 532.868 115.6L537.341 127.566V115.6C537.341 115.047 537.295 114.314 537.026 114.09H546.202C545.933 114.314 545.888 115.047 545.888 115.6V144.123C545.888 144.676 545.933 145.394 546.202 145.634H537.026L537.071 145.589C537.25 145.319 536.981 144.631 536.848 144.123L532.372 132.157V144.123C532.372 144.676 532.417 145.394 532.686 145.634H523.513C523.782 145.409 523.828 144.676 523.828 144.123V115.6Z" fill="black"/>
<path d="M561.452 127.386H573.876V129.764C573.876 139.756 569.714 146.097 561.452 146.097C553.19 146.097 549.074 139.756 549.074 129.764C549.074 119.773 553.19 113.656 561.452 113.656C566.975 113.656 570.67 116.393 572.498 121.194L563.682 124.485C563.86 124.215 563.773 123.482 563.591 122.974C563.144 121.748 562.366 121.194 561.452 121.194C559.206 121.194 558.535 125.352 558.535 129.779C558.535 134.476 559.222 138.589 561.452 138.589C563.008 138.589 563.831 136.629 564.191 133.848H562.962C562.411 133.848 561.692 133.892 561.452 134.162V127.401V127.386Z" fill="black"/>
<path d="M601.967 145.678C601.967 145.678 601.698 145.454 601.368 145.454C601.144 145.454 600.962 145.499 600.68 145.589C599.766 145.903 598.807 146.097 597.475 146.097C589.349 146.097 583.677 140.384 583.677 129.764C583.677 119.908 588.75 113.656 597.193 113.656C598.418 113.656 599.75 113.835 600.664 114.164C600.933 114.254 601.115 114.299 601.351 114.299C601.666 114.299 601.951 114.075 601.951 114.075L602.042 122.376C601.128 121.598 599.796 121.194 598.389 121.194C595.517 121.194 593.135 124.574 593.135 129.779C593.135 135.298 595.559 138.589 598.389 138.589C599.812 138.589 601.128 138.185 602.042 137.407L601.951 145.708L601.967 145.678Z" fill="black"/>
<path d="M604.991 115.6C604.991 115.047 604.946 114.314 604.677 114.09H614.313C614.044 114.314 613.999 115.047 613.999 115.6V135.777C613.999 137.692 615.004 138.559 616.245 138.559C617.383 138.559 618.384 137.781 618.491 136.046V115.6C618.491 115.047 618.446 114.314 618.177 114.09H627.813C627.544 114.314 627.498 115.047 627.498 115.6V135.553C627.498 141.625 624.296 146.097 616.261 146.097C608.223 146.097 605.021 141.625 605.021 135.553V115.6H604.991Z" fill="black"/>
<path d="M631.573 115.6C631.573 115.047 631.527 114.314 631.258 114.09H640.894C640.625 114.314 640.583 115.047 640.583 115.6V138.559H646.061C646.612 138.559 647.332 138.514 647.571 138.245V145.634H631.271C631.544 145.409 631.586 144.676 631.586 144.123V115.6H631.573Z" fill="black"/>
<path d="M652.446 121.359H648.751C648.197 121.359 647.464 121.404 647.238 121.673V114.09H666.649V121.673C666.426 121.404 665.693 121.359 665.139 121.359H661.444V144.138C661.444 144.691 661.486 145.409 661.755 145.648H652.119C652.388 145.424 652.433 144.691 652.433 144.138V121.359H652.446Z" fill="black"/>
<path d="M669.346 115.6C669.346 115.047 669.301 114.314 669.032 114.09H678.671C678.402 114.314 678.357 115.047 678.357 115.6V135.777C678.357 137.692 679.358 138.559 680.6 138.559C681.737 138.559 682.742 137.781 682.846 136.046V115.6C682.846 115.047 682.801 114.314 682.531 114.09H692.171C691.902 114.314 691.856 115.047 691.856 115.6V135.553C691.856 141.625 688.654 146.097 680.616 146.097C672.578 146.097 669.375 141.625 669.375 135.553V115.6H669.346Z" fill="black"/>
<path d="M695.704 115.6C695.704 115.047 695.658 114.314 695.389 114.09H706.03C713.572 114.09 717.54 117.156 717.54 123.767C717.54 127.79 715.848 130.438 713.064 131.754L718.541 144.123C718.856 144.676 719.141 145.394 719.546 145.634H709.683C709.816 145.409 709.861 144.676 709.547 144.123L704.802 132.711H704.714V144.123C704.714 144.676 704.756 145.394 705.029 145.634H695.389C695.658 145.409 695.704 144.676 695.704 144.123V115.6ZM705.521 127.102C706.99 127.102 708.169 125.876 708.169 123.812C708.169 121.748 706.99 120.521 705.521 120.521H704.789V127.087H705.521V127.102Z" fill="black"/>
<path d="M722.1 115.6C722.1 115.047 722.058 114.314 721.786 114.09H738.086V121.673C737.862 121.404 737.127 121.359 736.576 121.359H731.098V126.294H735.885C736.44 126.294 737.159 126.25 737.399 125.98V133.055C737.172 132.786 736.44 132.741 735.885 132.741H731.098V138.125H736.576C737.127 138.125 737.846 138.08 738.086 137.811V145.663H721.786C722.058 145.439 722.1 144.706 722.1 144.153V115.63V115.6Z" fill="black"/>
<path d="M640.175 90.1139C639.906 91.7293 639.77 93.8979 638.963 94.5709H666.098C665.288 93.8979 665.155 91.7442 665.424 90.1139L668.523 42.626L677.964 90.1139C678.237 91.7293 678.639 93.8979 677.964 94.5709H700.235C699.428 93.8979 699.833 91.7442 700.102 90.1139L709.142 44.2413L712.373 90.1139C712.509 91.7293 712.509 93.8979 711.835 94.5709H738.971C738.028 93.8979 737.755 91.7442 737.622 90.1139L731.681 5.78752C731.545 4.17216 731.681 2.00343 732.355 1.33038H696.705C697.512 2.00343 697.107 4.1572 696.838 5.78752L689.01 42.626L681.183 5.78752C680.914 4.17216 680.509 2.00343 681.319 1.33038H645.413C645.954 2.00343 645.954 4.1572 645.818 5.78752L640.146 90.1139H640.175ZM570.777 64.7473C570.777 82.6953 580.773 95.9171 603.987 95.9171C627.2 95.9171 637.196 82.6953 637.196 64.7473V5.78752C637.196 4.17216 637.332 2.00343 638.139 1.33038H609.659C610.466 2.00343 610.602 4.1572 610.602 5.78752V66.2279C610.333 71.358 607.37 73.6465 603.987 73.6465C600.334 73.6465 597.371 71.0889 597.371 65.4204V5.78752C597.371 4.17216 597.507 2.00343 598.314 1.33038H569.834C570.641 2.00343 570.777 4.1572 570.777 5.78752V64.7473ZM518.438 90.1139C518.438 91.7293 518.305 93.8979 517.494 94.5709H565.688V71.358C565.014 72.1659 562.859 72.3003 561.228 72.3003H545.035V56.3865H559.206C560.823 56.3865 562.995 56.5209 563.666 57.3287V36.4192C562.995 37.2267 560.839 37.3614 559.206 37.3614H545.035V22.7934H561.228C562.842 22.7934 565.014 22.928 565.688 23.7357V1.34533H517.494C518.305 2.01839 518.438 4.17216 518.438 5.80245V90.1288V90.1139ZM458.407 92.5368C458.407 92.5368 459.217 91.864 460.157 91.864C460.562 91.864 461.369 91.9984 462.449 92.4023C466.234 93.6138 474.467 95.9022 481.215 95.9022C502.812 95.9022 514.697 83.3535 514.697 66.0783C514.697 52.3181 505.79 44.8995 495.256 36.793C492.278 34.6393 486.888 30.5859 486.888 27.2206C486.888 23.8553 489.584 21.4174 495.12 21.4174C499.985 21.4174 504.983 23.3019 509.699 26.4129V2.39231C509.699 2.39231 508.889 3.06536 507.946 3.06536C507.544 3.06536 506.734 2.93075 505.657 2.52692C501.872 1.31542 497.292 -0.0306931 488.641 -0.0306931C471.083 -0.0306931 459.486 10.4989 459.486 25.2014C459.486 42.0727 468.928 47.3224 480.272 56.506C485.273 60.4247 487.429 63.2515 487.429 67.3049C487.429 70.9541 484.599 73.9157 479.196 73.9157C470.694 73.9157 463.946 69.997 458.407 65.824V92.5368ZM388.169 64.7473C388.169 82.6953 398.169 95.9171 421.379 95.9171C444.593 95.9171 454.592 82.6953 454.592 64.7473V5.78752C454.592 4.17216 454.725 2.00343 455.535 1.33038H427.051C427.862 2.00343 427.994 4.1572 427.994 5.78752V66.2279C427.725 71.358 424.747 73.6465 421.379 73.6465C417.729 73.6465 414.764 71.0889 414.764 65.4204V5.78752C414.764 4.17216 414.9 2.00343 415.707 1.33038H387.226C388.037 2.00343 388.169 4.1572 388.169 5.78752V64.7473ZM287.46 90.1139C287.191 91.7293 287.056 93.8979 286.248 94.5709H313.382C312.574 93.8979 312.439 91.7442 312.709 90.1139L315.807 42.626L325.251 90.1139C325.52 91.7293 325.925 93.8979 325.251 94.5709H347.521C346.714 93.8979 347.116 91.7442 347.385 90.1139L356.425 44.2413L359.66 90.1139C359.792 91.7293 359.792 93.8979 359.118 94.5709H386.254C385.311 93.8979 385.042 91.7442 384.906 90.1139L378.964 5.78752C378.831 4.17216 378.964 2.00343 379.639 1.33038H344.004C344.812 2.00343 344.406 4.1572 344.137 5.78752L336.31 42.626L328.482 5.78752C328.213 4.17216 327.811 2.00343 328.618 1.33038H292.699C293.237 2.00343 293.237 4.1572 293.103 5.78752L287.43 90.1139H287.46ZM246.931 90.1139C246.931 91.7293 246.796 93.8979 245.988 94.5709H274.469C273.661 93.8979 273.527 91.7442 273.527 90.1139V22.7934H284.467C286.083 22.7934 288.253 22.928 288.927 23.7357V1.34533H231.546V23.7357C232.219 22.928 234.374 22.7934 236.005 22.7934H246.946V90.1139H246.931ZM200.46 90.1139C200.46 91.7293 200.325 93.8979 199.517 94.5709H227.999C227.19 93.8979 227.056 91.7442 227.056 90.1139V5.78752C227.056 4.17216 227.19 2.00343 227.999 1.33038H199.517C200.325 2.00343 200.46 4.1572 200.46 5.78752V90.1139ZM155.127 39.7843V20.3554H157.282C161.607 20.3554 165.109 23.8703 165.109 30.0773C165.109 36.2844 161.592 39.7843 157.282 39.7843H155.127ZM128.262 90.1139C128.262 91.7293 128.127 93.8979 127.319 94.5709H155.8C154.992 93.8979 154.857 91.7442 154.857 90.1139V56.3865H155.127L169.165 90.1139C170.108 91.7293 169.974 93.8979 169.569 94.5709H198.739C197.527 93.8979 196.719 91.7442 195.761 90.1139L179.567 53.5444C187.799 49.6257 192.797 41.8036 192.797 29.9278C192.797 10.3643 181.049 1.33038 158.779 1.33038H127.319C128.127 2.00343 128.262 4.1572 128.262 5.78752V90.1139ZM86.8944 42.4916V20.3704H89.0498C93.3749 20.3704 96.877 25.2313 96.877 31.4384C96.877 37.6455 93.36 42.5065 89.0498 42.5065H86.8944V42.4916ZM60.0298 90.1139C60.0298 91.7293 59.8949 93.8979 59.0869 94.5709H87.5679C86.7599 93.8979 86.625 91.7442 86.625 90.1139V61.7858C88.2414 61.9205 89.7233 61.9205 90.6811 61.9205C107.833 61.9205 124.565 51.9291 124.565 31.2888C124.565 11.7254 112.816 1.33038 90.5463 1.33038H59.0869C59.8949 2.00343 60.0298 4.1572 60.0298 5.78752V90.1139ZM-0.000902665 92.5368C-0.000902665 92.5368 0.807289 91.864 1.75018 91.864C2.15427 91.864 2.96246 91.9984 4.04005 92.4023C7.82658 93.6138 16.0581 95.9022 22.808 95.9022C44.4048 95.9022 56.2881 83.3535 56.2881 66.0783C56.2881 52.3181 47.3828 44.8995 36.8466 36.793C33.8831 34.6393 28.4803 30.5859 28.4803 27.2206C28.4803 23.8553 31.1743 21.4174 36.7117 21.4174C41.5758 21.4174 46.5599 23.3019 51.2892 26.4129V2.39231C51.2892 2.39231 50.4811 3.06536 49.5382 3.06536C49.1341 3.06536 48.326 2.93075 47.2483 2.52692C43.4619 1.31542 38.8821 -0.0306931 30.2314 -0.0306931C12.6757 -0.0306931 1.06172 10.4989 1.06172 25.2014C1.06172 42.0727 10.5056 47.3224 21.8502 56.506C26.849 60.4247 29.0042 63.2515 29.0042 67.3049C29.0042 70.9541 26.1755 73.9157 20.7726 73.9157C12.2716 73.9157 5.52175 69.997 -0.0158691 65.824V92.5368H-0.000902665Z" fill="black"/>
</g>
<defs>
<clipPath id="clip0_1001_116">
<rect width="739" height="149" fill="white"/>
</clipPath>
</defs>
</svg>
