<svg width="340" height="130" viewBox="0 0 340 130" fill="none" xmlns="http://www.w3.org/2000/svg">
<g clip-path="url(#clip0_1001_148)">
<path d="M190.163 2.60968H106.91L102.405 25.5359H121.318C127.761 25.5359 130.32 30.1602 129.215 36.3146L111.084 127.994H137.477L155.609 35.1416C156.722 29.3441 160.624 25.5444 167.067 25.5444H185.666L190.172 2.61818L190.163 2.60968Z" fill="black"/>
<path d="M199.267 2.60968L174.726 127.985H201.12L225.669 2.60968H199.267Z" fill="black"/>
<path d="M54.4536 -1.90177e-05C32.6245 0.0169822 12.3255 16.1512 10.3789 37.6747C9.19737 45.0533 10.5914 53.3414 16.5247 60.8644C21.0555 66.6449 28.3403 70.7762 38.8044 73.4879C42.3915 74.3464 53.0086 76.8031 55.7542 77.8657C61.067 79.9228 63.7531 83.7906 63.7531 88.5255C63.2346 99.2532 55.3462 106.496 44.1001 106.504C36.6877 106.504 32.548 104.235 28.9014 99.9418C25.7052 96.1675 25.3567 89.8941 27.8133 81.2999H2.00601C-1.82768 93.8043 -0.136097 106.564 6.80025 114.818C15.0287 124.611 27.4053 129.991 44.1936 130C66.3627 130 87.0613 116.084 90.5974 90.2511C91.9065 80.6709 88.6083 72.5103 84.0691 66.7894C79.1134 60.5584 71.735 57.2432 64.2036 55.101C56.7062 52.9759 47.4833 51.0377 43.4966 49.4906C40.5214 48.139 38.4813 46.5494 37.2488 44.6112C36.2032 42.8261 35.8122 40.7095 35.8717 39.3324C36.3647 29.1486 43.8706 22.2631 54.5811 22.2631C61.645 22.2631 65.5042 24.4308 68.9809 28.5196C72.092 32.1918 72.3895 38.3293 69.8734 46.7789L94.4651 46.8979C98.4008 34.8355 96.6837 22.4161 89.9514 14.4255C82.097 5.12586 73.3586 -0.0170203 54.4536 -1.90177e-05Z" fill="black"/>
<path d="M313.81 2.60968C313.81 2.60968 299.904 15.2841 297.736 17.2648C295.568 19.2369 291.947 21.6681 288.343 21.6681C284.739 21.6681 281.67 19.0414 280.463 17.3498L270.135 2.60968H245.45L220.909 127.985H247.303L262.187 52.4743C263.352 46.0564 270.713 45.8013 273.969 51.9813L280.234 61.5785L294.03 49.2951C297.6 45.9033 304.851 47.544 303.831 52.7463L289.065 127.977H315.544L340 2.60968H313.81Z" fill="black"/>
</g>
<defs>
<clipPath id="clip0_1001_148">
<rect width="340" height="130" fill="white"/>
</clipPath>
</defs>
</svg>
