<svg width="814" height="187" viewBox="0 0 814 187" fill="none" xmlns="http://www.w3.org/2000/svg">
<g clip-path="url(#clip0_1001_104)">
<path fill-rule="evenodd" clip-rule="evenodd" d="M122.035 62.3333V0H61.0174V62.3333H0V124.667H61.0174V187H122.035V124.667H183.052V62.3333H122.035Z" fill="black"/>
<path fill-rule="evenodd" clip-rule="evenodd" d="M808.009 81.8084H797.915V90.7969H794.529V98.0268H797.915V120.759H808.009V98.0268H814V90.7969H808.009V81.8084ZM774.83 96.3659C778.151 96.3659 780.203 97.9291 781.18 101.251H768.318C769.458 97.9291 771.509 96.3659 774.798 96.3659H774.83ZM775.97 113.626C771.867 113.626 769.197 111.249 768.253 107.048H790.654C790.589 96.0077 784.859 89.5594 775.123 89.5594C765.388 89.5594 759.527 95.7797 759.527 104.801C759.527 113.822 766.234 120.726 776.002 120.726C782.221 120.726 786.747 118.218 790.134 113.008L783.622 109.067C781.277 112.259 779.031 113.594 776.002 113.594L775.97 113.626ZM754.969 96.3659C752.95 91.774 749.564 89.592 744.452 89.592C737.907 89.592 733.154 93.728 733.154 99.2969C733.154 103.693 735.628 106.331 741.587 108.318C745.95 109.686 746.568 110.077 746.568 111.705C746.568 113.073 745.526 114.082 744.029 114.082C742.14 114.082 740.805 113.073 739.666 110.761L732.242 113.138C734.488 118.642 737.842 120.791 743.898 120.791C750.834 120.791 755.62 116.785 755.62 110.956C755.62 108.318 754.415 105.941 752.396 104.508C750.931 103.498 750.15 103.14 746.373 101.935C743.149 100.86 742.01 100.046 742.01 98.613C742.01 97.1801 743.182 96.0402 744.615 96.0402C746.015 96.0402 746.861 96.7893 747.773 98.613L755.001 96.3659H754.969ZM728.335 89.592C723.972 90.1456 720.585 91.8717 718.111 94.933V90.3084H708.864V120.791H718.111V107.504C718.111 104.996 718.469 103.27 719.316 101.837C720.455 99.8831 722.572 98.6456 724.753 98.6456C725.958 98.6456 726.739 98.9061 728.335 99.6877V89.6571V89.592ZM687.602 112.975C683.141 112.975 679.82 109.653 679.82 105.192C679.82 100.73 683.141 97.4081 687.537 97.4081C691.933 97.4081 695.091 100.795 695.091 105.257C695.091 109.718 691.77 112.975 687.602 112.975ZM687.537 89.592C677.443 89.592 669.955 96.3008 669.955 105.224C669.955 114.148 677.313 120.726 687.342 120.726C697.37 120.726 705.022 114.213 705.022 105.42C705.022 96.6264 697.598 89.5594 687.57 89.5594L687.537 89.592ZM668.392 74.0249H656.638L640.716 94.2816V74.0249H630.98V120.791H640.716V99.8506L657.777 120.791H669.955L650.028 96.7567L668.424 74.0575L668.392 74.0249ZM597.997 112.975C593.504 112.975 590.117 109.653 590.117 105.322C590.117 100.99 593.601 97.4081 598.29 97.4081C602.979 97.4081 606.267 100.795 606.267 105.257C606.267 109.718 602.653 112.975 598.03 112.975H597.997ZM606.104 90.2759V94.0536C602.979 90.9272 599.853 89.592 595.718 89.592C587.057 89.592 580.349 96.431 580.349 105.322C580.349 114.213 586.894 120.759 595.783 120.759C600.048 120.759 602.751 119.684 606.104 116.557V120.075H615.417V90.2759H606.104ZM559.511 112.78C554.757 112.78 551.306 109.36 551.306 104.703C551.306 100.046 554.757 96.7893 559.511 96.7893C564.265 96.7893 567.814 100.274 567.814 104.866C567.814 109.458 564.135 112.812 559.511 112.812V112.78ZM567 70.1494V92.751C563.744 89.9828 560.813 88.7778 556.906 88.7778C548.245 88.7778 541.408 95.8123 541.408 104.768C541.408 113.724 548.245 120.759 557.264 120.759C561.074 120.759 563.744 119.782 567 117.209V119.977H576.442V70.0843H567V70.1494ZM527.765 70.1494C524.607 70.1494 521.937 72.7548 521.937 75.9138C521.937 79.2356 524.542 81.841 527.765 81.841C530.988 81.841 533.593 79.2356 533.593 75.9789C533.593 72.7222 530.988 70.1494 527.765 70.1494ZM512.201 70.1494C509.043 70.1494 506.373 72.7548 506.373 75.9138C506.373 79.2356 508.978 81.841 512.201 81.841C515.425 81.841 518.03 79.2356 518.03 76.0115C518.03 72.7874 515.425 70.1494 512.201 70.1494ZM520.146 113.008C515.685 113.008 512.364 109.686 512.364 105.224C512.364 100.762 515.685 97.4406 520.081 97.4406C524.476 97.4406 527.667 100.828 527.667 105.289C527.667 109.751 524.346 113.008 520.179 113.008H520.146ZM520.081 89.6245C509.987 89.6245 502.498 96.3333 502.498 105.257C502.498 114.18 509.857 120.759 519.886 120.759C529.914 120.759 537.566 114.245 537.566 105.452C537.566 96.659 530.142 89.592 520.113 89.592L520.081 89.6245ZM485.567 94.0211C484.297 94.8027 482.572 95.0632 478.665 95.0632H477.232V81.8084H479.446C485.991 81.8084 488.335 83.5671 488.335 88.4847C488.335 90.9923 487.423 92.9789 485.567 94.0211ZM487.846 101.381C495.303 99.6877 498.656 95.4866 498.656 87.7682C498.656 83.1437 497.224 79.6264 494.326 77.249C491.33 74.7414 487.423 74.0249 476.971 74.0249H467.431V120.791H477.232V102L490.386 120.791H502.466L487.814 101.381H487.846ZM430.541 113.008C426.048 113.008 422.661 109.686 422.661 105.354C422.661 101.023 426.145 97.4406 430.834 97.4406C435.523 97.4406 438.811 100.828 438.811 105.289C438.811 109.751 435.197 113.008 430.573 113.008H430.541ZM438.648 90.3084V94.0862C435.523 90.9598 432.397 89.6245 428.262 89.6245C419.601 89.6245 412.893 96.4636 412.893 105.354C412.893 114.245 419.438 120.791 428.327 120.791C432.592 120.791 435.295 119.716 438.648 116.59V120.107H447.96V90.3084H438.648ZM412.079 89.7548H400.911L390.72 101.674V70.1494H381.766V120.791H390.72V107.308L401.595 120.791H412.893L399.055 104.508L412.079 89.7548ZM377.208 96.3985C375.189 91.8065 371.803 89.6245 366.691 89.6245C360.179 89.6245 355.392 93.7605 355.392 99.3295C355.392 103.726 357.834 106.364 363.825 108.351C368.188 109.718 368.807 110.109 368.807 111.738C368.807 113.105 367.765 114.115 366.267 114.115C364.379 114.115 363.044 113.105 361.904 110.793L354.481 113.171C356.727 118.674 360.081 120.824 366.137 120.824C373.072 120.824 377.859 116.818 377.859 110.989C377.859 108.351 376.654 105.973 374.635 104.54C373.17 103.531 372.389 103.172 368.612 101.967C365.388 100.893 364.249 100.079 364.249 98.6456C364.249 97.2127 365.421 96.0728 366.854 96.0728C368.254 96.0728 369.1 96.8218 370.012 98.6456L377.24 96.3985H377.208ZM328.986 90.3084H319.414V120.791H328.986V104.312C328.986 102.098 329.41 100.86 330.451 99.7529C331.624 98.4502 333.577 97.6035 335.628 97.6035C339.34 97.6035 341.033 99.6877 341.033 104.377V120.791H350.606V103.466C350.606 99.5249 350.248 97.0824 349.369 95.0958C347.904 91.7088 344.029 89.6245 339.308 89.6245C335.075 89.6245 332.242 90.8621 329.019 94.1839V90.3084H328.986ZM295.808 96.3985C299.129 96.3985 301.18 97.9617 302.157 101.284H289.296C290.435 97.9617 292.486 96.3985 295.808 96.3985ZM296.947 113.692C292.845 113.692 290.175 111.314 289.263 107.113H311.664C311.599 96.0728 305.869 89.6245 296.133 89.6245C286.398 89.6245 280.537 95.8448 280.537 104.866C280.537 113.887 287.244 120.791 297.012 120.791C303.231 120.791 307.757 118.284 311.143 113.073L304.631 109.132C302.287 112.324 300.04 113.659 297.012 113.659L296.947 113.692ZM280.472 89.6245H270.964L263.085 107.764L255.205 89.6245H245.405L259.015 120.791H266.699L280.472 89.6245ZM244.167 75.523C240 71.7127 236.19 70.1494 230.883 70.1494C221.929 70.1494 215.384 76.4674 215.384 85.228C215.384 91.1226 218.282 95.2912 223.948 97.7989C227.573 99.3621 229.863 100.415 230.818 100.958C233.488 102.358 234.627 103.987 234.627 106.397C234.627 109.556 232.25 111.9 229.027 111.9C226.032 111.9 223.427 110.5 220.301 107.341L214.245 114.929C218.412 119.033 222.743 120.824 228.571 120.824C238.697 120.824 245.405 114.799 245.405 105.68C245.405 101.479 243.907 98.0268 240.944 95.454C239.153 93.8257 237.46 92.9464 233.651 91.546C227.399 89.2663 225.511 87.6379 225.511 84.5441C225.511 81.4502 227.985 79.0402 231.013 79.0402C233.781 79.0402 235.865 80.3755 237.883 83.3065L244.135 75.523H244.167Z" fill="black"/>
</g>
<defs>
<clipPath id="clip0_1001_104">
<rect width="814" height="187" fill="white"/>
</clipPath>
</defs>
</svg>
