<svg xmlns="http://www.w3.org/2000/svg" viewBox="0 0 500 277.7"><path d="M311.2 60.7L256 208.8 200.9 60.7h-48.4l79.4 212.8h48.3l79.4-212.8zM35.2 210.6L0 236.1c13.7 20.3 41.2 41.7 78.1 41.7 41.5 0 73.9-25.4 73.9-65 0-25.9-15.1-45.5-46-59.8-4.3-2-21.8-9.8-25.2-11.2-16.3-6.8-24.2-14.6-24.2-23.8 0-9.6 7.5-18.8 22.8-18.8 10.7 0 20.5 5.1 30 15.4l33.5-24.3C129.4 69.6 104.6 56.8 78 56.8c-35.2 0-66.3 22.7-66.3 60.9 0 26.6 15.1 47.1 45.9 60.3 9 3.9 15.4 6.5 22.5 9.6 10.2 4.4 26.7 11.2 26.7 25.8 0 14.6-14.4 22.1-30 22.1-14 0-28.8-8.9-41.6-24.9zM449.4 234.6c-10.3 0-18.9-6.2-23.5-15.1-3.5-6.6-3.6-17.4-3.6-26.4v-88.4h49.2l16.5-44h-65.7V0h-45v200.1c.1 9.2.5 17.8 4.1 28.9 9.8 28.4 36.4 48.8 68.1 48.8 18.2 0 36.8-6.9 50.5-19.8l-28.2-32.2c-6 5.1-14.3 8.8-22.4 8.8z"/></svg>
