<svg xmlns="http://www.w3.org/2000/svg" viewBox="0 0 500 267.6"><path d="M431.3.1c-25.8 0-46.6 20.9-46.6 46.6s20.9 46.6 46.6 46.6c25.8 0 46.6-20.9 46.6-46.6C478.1 21 457.1.1 431.3.1m36.5 20.7c-2.4 1.6-4.9 3.1-7.5 4.4-1.5-3.1-3.4-6-5.6-8.8 1.9-1.1 3.8-2.5 5.4-3.9 2.8 2.4 5.5 5.1 7.7 8.3zM448.2 5.3c3.8 1.5 7.3 3.5 10.5 6-1.6 1.4-3.4 2.5-5.1 3.6-2.3-2.6-4.9-5-7.6-7.1.6-.8 1.4-1.7 2.2-2.5zm3.5 10.5c-2.5 1.4-5.1 2.5-7.9 3.3-1.1-2.6-2.5-5.1-3.9-7.6 1.5-.6 2.9-1.5 4.3-2.5 2.7 2 5.2 4.3 7.5 6.8zm-5.5-11.3c-.6.8-1.4 1.5-2.1 2.1-2.5-1.8-5.1-3.1-7.9-4.4 3.5.4 6.8 1.2 10 2.3zm-3.7 3.4c-1.1.8-2.4 1.4-3.6 2-1.4-2.1-2.9-4.3-4.5-6.3 2.9 1.2 5.6 2.5 8.1 4.3zm-10.2-4c1.8 2.1 3.4 4.3 4.9 6.6-1.5.5-3.1.8-4.9.9V3.9zm0 9.4c2-.1 4-.5 5.9-1.1 1.4 2.4 2.8 4.9 3.9 7.4-3.1.8-6.4 1.3-9.8 1.4v-7.7zM430.4 4v7.4c-1.6-.1-3.3-.4-4.8-.9 1.4-2.2 3.1-4.4 4.8-6.5zm-6.6 5.9c-1.3-.5-2.5-1.3-3.6-2 2.5-1.6 5.3-3.1 8-4.3-1.5 2-3 4-4.4 6.3zm2.6-7.6c-2.8 1.3-5.4 2.6-7.9 4.4-.8-.6-1.4-1.4-2.1-2.1 3.3-1.2 6.6-2 10-2.3zm32 80.1c-6.3-3.4-6.4-8.1-6-9.9.4-1.8 1.5-1 2.4-1 4.1 0 8.4-1.3 13.6-6.6 6-6.1 7.9-19.6-1.4-28.4-9.9-9.5-20.4-7.9-27.1.8-1.4 1.8-4.8 3-7.8 2.9-4.4-.1-1.6 3.3-1.6 4 0 .8-.6 1.3-1 1.1-1.5-.4-.9 1.8-.9 2.4 0 .6-.6 1-.9 1-1.9 0-1.4 1.6-1.3 2.1 0 .4-.1 1.3-.8 1.5-.6.4-1.3 1.8-1.3 2.9 0 2 1.9 3.4 4.9 5.6 3 2.3 3.4 4.4 3.5 6 0 1.5.3 4 .9 5.6.9 2 .8 5.6-3.5 5.8-5.1.3-14.3 4.3-15 4.6-2.9 1-6.8 1.4-9.6.6-1.6-1.1-3.1-2.4-4.6-3.8-.6-2 .5-4.3 1.5-5.8 1.8 1.8 4.3 1.6 5.6 1.6s8.4-1 9.4-1.4c1-.4 1.4-.3 2 0 2.6 1 6.4 1.3 7.9-3.9 1.5-5.1-2-3.8-2.5-3.5s-1 .1-.9-.3c.6-1.3-.4-1.1-.9-1.3-1.4-.1-3.3 1.4-3.9 1.9-.6.5-1.3.5-1.4.4-1.9-1-7.5.4-9.3-2.6.1-.9-1.4-13.3-2.3-15.4-.1-.5-.4-1.3.3-2 1.5-2.1 5.4.1 7.5.1 2.6-.1 3-1.1 3.8-2 .6-.9 1.1-.4 1.5-.6.5-.3 0-.9.3-1.3.1-.4.4-.1.8-.5.5-.4 0-1.3.1-1.5.6-1 2.4-.3 1.4-2.8-.6-1.4.3-2.9 1-3.9 1.3-1.6 6.1-8.4-2.4-15.4-8.1-6.8-16.3-6.1-21.6-.5-5.3 5.8-2.6 14.1-2.1 16.3.5 2.3-1 4.3-2.9 5.1-1.5.6-4.8 2.9-7.3 5 .4-18 11.3-33.8 28-40.5.8.9 1.5 1.8 2.4 2.5-1.9 1.4-5.9 5-5.9 5s.5.1 1.1.3c.4.1 1.1.3 1.1.3s3.6-3 5.3-4.3c1.3 1 2.8 1.9 4.3 2.5-.9 1.4-2.9 5.3-2.9 5.3s.5.3.9.6l.8.5s2.3-4.3 3.1-5.6c1.9.6 3.9 1 5.8 1.1v7.6c-1.1 0-3.9-.1-5-.3l-.8-.1.4.6c.3.5.5.9.8 1.3l.1.1h.3c.9.1 3.4.1 4.4.1v14h2V33c2.9-.1 5.3-.4 8.1-.6h.1l2.5-2.3-1.4.1c-3 .4-5.6.6-8.1.8 0 0-.9 0-1.3.1v-8.9c3.5-.1 7-.6 10.5-1.5 1 2.3 2.8 7.9 2.8 7.9l1.9-.6s-1.8-5.5-2.8-7.9c2.9-.9 5.8-2.1 8.4-3.5 2.1 2.6 4 5.5 5.5 8.6-1.4.6-3.9 1.5-3.9 1.5 2 .3 3.5.8 3.5.8s.8-.3 1.1-.5c.1.4.5 1.3.5 1.3l2.5 1.1-.3-.8s-.9-2-1-2.5c2.6-1.4 5.3-2.9 7.8-4.5 4.8 7.3 7.3 15.8 7.3 24.5-.2 15.2-7.2 28.1-18 36.3zm-78-69.9l-.8.6c-2.8 2.4-9 8.9-8 15.9l.1.5.3 1.4.9-.8c3.9-3.5 6.8-9.5 7.9-16.3l.4-1.9-.8.6m-12.6 12.1l-.4.9c-.4 1.1-1.3 3.6-1.6 6.9-.6 4.6-.5 11.1 3.6 16.1l.5.6.5.6.6-3c.6-5.3-.3-16.3-2.1-21.3l-.6-1.6-.5.8m-4.7 18.9v.9c-.4 4.8-.1 16.4 9.4 22.5l1.1.8v-1.4c-.1-4.4-5.4-17.6-9.1-22.4l-1.1-1.4-.3 1m1.7 20.9l.1.8c1.4 6.8 7.8 17.5 17.5 20.6l1.4.4-.5-1.4c-1.9-5-11.3-16.6-17.4-20.5l-1.4-.9.3 1m19.6-41.9l-.8.5c-7.3 4.5-10.8 9.9-10.5 16.5l.1 1.5 1-.9c4-3.3 8.9-11.6 10.4-16.4l.5-1.8-.7.6m-4.3 14.6l-.5.5c-1.9 1.8-7.9 8.3-7.4 16.1.1 1.3.4 2.5.9 3.9l.4 1.3.8-1.1c2.9-4 6.8-14.8 6.5-19.8l-.1-1.5-.6.6m.3 13.8l-.4.6c-3 4.5-4.6 9.1-4.5 13.5.1 3.1 1.1 6.3 3 9l.6 1 .5-1c1.4-2.5 2.4-10.5 2.3-16.9 0-2.3-.3-4.1-.6-5.4l-.4-1.4-.5.6m3.5 14.8l-.3.6c-.9 2.9-1.4 5.8-1.3 8.5.1 6.1 2.9 11 8.1 14.4l.9.5.3-1.3.1-1c-.1-5-3.9-17.6-6.8-21.5l-.8-1-.2.8m-10.3 19.6l.4.6c3.9 6.6 10.6 15.1 23 12.9l1-.1-.6-.9c-2.4-3.5-17.5-12-22.8-12.9l-1.5-.3.5.7zm18.6 16.6l-2 .6 1.9.8c7.9 3.3 17.9 4.3 23.6 2.3 2.1-.8 3.5-1.9 5.1-3.5 10.1 1 19.6 9.5 25.1 16.4l.3.4.4-.1c.6-.3 1.6-1 2-1.4l.4-.4-.4-.5c-5.8-7.5-14.9-12.3-15.3-12.4-8-4.2-22.4-7.2-41.1-2.2"/><path d="M392.5 80.9l.1.6c1.3 7.5 4.3 17.3 16.9 16.1l.8-.1-.3-.8c-.9-3.4-12.4-13.3-16.5-16l-1.3-.6.3.8m89.2-69l.4 1.9c1.1 6.9 4 12.8 7.9 16.3l.9.8.3-1.4.1-.5c1-7-5.3-13.4-8-15.9l-.8-.6-.8-.6m13.1 11.9l-.6 1.6c-1.9 4.9-2.9 16-2.1 21.3l.6 3 .5-.6.5-.6c4-4.9 4.1-11.5 3.6-16.1-.4-3.3-1.3-5.8-1.6-6.9l-.4-.9-.5-.8m4.9 18.8l-1.1 1.4c-3.9 4.8-9 17.9-9.1 22.4v1.4l1.1-.8c9.4-6.1 9.6-17.8 9.4-22.5l-.1-.9-.2-1m-1.4 21.1l-1.4.9c-6.1 3.9-15.5 15.5-17.4 20.5l-.5 1.4 1.4-.4c9.8-3.1 16.1-14 17.5-20.6l.1-.8.3-1m-20.2-41.8l.5 1.8c1.4 4.8 6.1 13.3 10 16.5l1 .9.1-1.5c.4-6.6-2.9-12.1-10.1-16.8l-.8-.5-.7-.4m4.1 14.7v1.5c-.3 5 3.6 15.8 6.5 19.8l.8 1.1.4-1.3c.5-1.4.8-2.6.9-3.9.5-8-5.5-14.4-7.4-16.1l-.5-.5-.7-.6m-.1 13.7l-.4 1.4c-.4 1.3-.6 3.1-.6 5.4-.1 6.4.9 14.4 2.3 16.9l.5 1 .6-1c1.9-2.8 2.9-5.9 3-9 .1-4.3-1.5-8.9-4.5-13.5l-.4-.6-.5-.6M478.7 65l-.8 1c-2.9 3.9-6.6 16.5-6.8 21.5 0 0 .1.9.1 1l.3 1.3.9-.5c5.3-3.4 8-8.1 8.1-14.4.1-2.8-.4-5.6-1.3-8.5l-.3-.6-.2-.8m10.9 19.7l-1.5.3c-5.4.9-20.5 9.4-22.8 12.9l-.6.9 1 .1c12.5 2.1 19.1-6.3 23-12.9l.4-.6.5-.7zm-60.2 19.2c-.4.1-9.5 4.9-15.3 12.4l-.4.5.4.4c.4.4 1.4 1.1 2 1.4l.4.1.3-.4c5.5-6.9 15-15.3 25.1-16.4 1.6 1.6 2.9 2.8 5.1 3.5 5.8 2 15.6 1 23.6-2.3l2-.6-2-.5c-18.7-5.1-33.1-2.1-41.2 1.9m41-23.6l-1.3.6c-4 2.8-15.6 12.6-16.5 16l-.3.8.8.1c12.6 1.1 15.6-8.8 16.9-16.1l.1-.6.3-.8M147.8 3.4h16v14.5h-15.9V3.4h-.1zm1.3 31h13.4v70.8h-13.4V34.4zm-101.2.1h13.4v70.8H48.1V94.8h-.3c-5.4 8.9-14.4 12.5-24.3 12.5C8.9 107.3.4 96 .4 81.8V34.5h13.4v41.9c0 12.3 2.9 21.3 15.6 21.3 5.5 0 13-2.9 15.8-10.1 2.5-6.6 2.6-15 2.6-16.6V34.5M88 44.9h.3c4.5-8.9 14.4-12.5 21.4-12.5 4.9 0 26.8 1.3 26.8 24v48.9h-13.3V60.6c0-11.8-5-18-16.3-18 0 0-7.4-.4-13 5.3-2 2-5.6 5.1-5.6 18.9v38.5H74.9V34.5H88v10.4m130.6 12.2c-.8-8.9-4.9-15-14.4-15-12.8 0-17.6 11-17.6 27.6 0 16.5 4.9 27.6 17.6 27.6 8.9 0 14.3-5.8 15-15.9h13.4c-1.1 15.9-12.9 25.5-28.5 25.5-22.5 0-31.5-16-31.5-36.8 0-20.6 10.4-37.9 32.6-37.9 14.9 0 26 9.4 26.8 24.6h-13.4m33.9 15.5c-1 12.4 4.1 25.1 17.6 25.1 10.4 0 15.5-4 17.1-14.3h14c-2.1 16-14.5 24-31.3 24-22.5 0-31.5-16-31.5-36.8 0-20.6 10.4-37.9 32.6-37.9 21 .5 31 13.8 31 33.3v6.6h-49.6m35.7-9.3c.3-11.8-5-20.9-18-20.9-11.1 0-17.6 9.4-17.6 20.9h35.6zm29.1 42V43.9h-12.1v-9.3h12.1V19.5C317.6 4 329.3 0 339.3 0c3.3 0 6.4.9 9.5 1.4v11.1c-2.3-.1-4.5-.4-6.8-.4-7.5 0-11.9 2-11.5 9.6v12.9h16.3v9.3h-16.3V105h-13.3M.1 153.8h494.8v2.8H.1v-2.8zM10.6 266v-47.1H0v-5.8h10.6v-11.3c0-9.1 3.8-13.3 12.8-13.3 2 0 4.1.8 6 1.1v5.1c-1.3-.3-2.6-.4-3.9-.4-8.6 0-8.9 4.4-8.5 11.9v6.8h12v5.8H17V266h-6.4m70.2-26.5c0 13.9-7.8 28.1-24.8 28.1-16.9 0-24.8-14.1-24.8-28.1 0-13.9 7.8-28.1 24.8-28.1s24.8 14.1 24.8 28.1m-24.7-22.3c-12.8 0-17.9 12.5-17.9 22.3 0 9.9 5.1 22.3 17.9 22.3S74 249.2 74 239.5c-.1-9.9-5.1-22.3-17.9-22.3zM43 191.3h7.8v9.3H43v-9.3zm18.4 0h7.8v9.3h-7.8v-9.3zM96.3 266H90v-41c.1-4.1-.4-8.4-.5-11.9H96l.4 7.8h.3c1.9-5.4 6.6-9.1 11.9-9.4 2.1-.1 4.3 0 6.4.1v6.1c-1.3-.1-2.6-.4-3.9-.4-9.4 0-14.4 6.8-14.6 16.9V266m85.8-37.4c-.6-8.6-5.1-11.4-12.5-11.4-6.6 0-12.1 2-13 9.1H150c1.6-10.9 9.8-15 19.9-15 11.8 0 19 5.4 18.8 17.5V254c-.1 4.1.4 8.4.5 11.9h-6.5l-.3-7.8h-.3l-.4.8c-2.4 4.4-9.4 8.6-16.6 8.6-9.9 0-17.6-6-17.6-16.4 0-7.1 4.4-12.6 10.6-15.3 7.1-3 16.3-2 24-2.4v-4.9m-15.5 33.2c13.9 0 16.5-11.4 15.9-22.5-9 .4-27.8-1.4-27.8 11.9-.1 7.3 5.4 10.6 11.9 10.6zm34.4-72h6.4V266H201v-76.3zm18.7 0h6.4V266h-6.4v-76.3zm49.7 38.9c-.6-8.6-5.1-11.4-12.5-11.4-6.6 0-12.1 2-13 9.1h-6.8c1.6-10.9 9.8-15 19.9-15 11.8 0 19 5.4 18.8 17.5V254c-.1 4.1.4 8.4.5 11.9h-6.5l-.3-7.8h-.3l-.4.8c-2.4 4.4-9.4 8.6-16.6 8.6-9.9 0-17.6-6-17.6-16.4 0-7.1 4.4-12.6 10.6-15.3 7.1-3 16.3-2 24-2.4v-4.9m-15.7 33.2c13.9 0 16.5-11.4 15.9-22.5-9 .4-27.8-1.4-27.8 11.9 0 7.3 5.5 10.6 11.9 10.6zm68.8 4.3h-6.5c.3-3.6.5-7.8.5-11.9v-64.3h6.4v31l.3.3c3.8-6.3 11.1-9.6 18.1-9.6 15.8 0 21.8 14.1 21.8 27.9 0 13.3-6 28.3-21.4 28.3-7.8 0-14.1-3.5-18.5-9.9l-.3.4-.4 7.8m.2-27.7c0 12 4.3 23.4 18 23.4 12.1 0 15.3-13.3 15.3-23 0-10.1-4.1-21.5-16.1-21.5-12.4 0-17.2 10.4-17.2 21.1zm80.4-9.7c-.6-8.6-5.1-11.4-12.5-11.4-6.6 0-12.1 2-13 9.1h-6.8c1.6-10.9 9.8-15 19.9-15 11.8 0 19 5.4 18.8 17.5V254c-.1 4.1.4 8.4.5 11.9h-6.5l-.3-7.8h-.3l-.4.8c-2.4 4.4-9.4 8.6-16.6 8.6-9.9 0-17.6-6-17.6-16.4 0-7.1 4.4-12.6 10.6-15.3 7.1-3 16.3-2 24-2.4v-4.9M387 261.7c13.9 0 16.5-11.4 15.9-22.5-9 .4-27.8-1.4-27.8 11.9 0 7.3 5.5 10.6 11.9 10.6zm40.8 4.3h-6.4v-41c.1-4.1-.4-8.4-.5-11.9h6.5l.4 7.8h.3c1.9-5.4 6.6-9.1 11.9-9.4 2.1-.1 4.3 0 6.4.1v6.1c-1.3-.1-2.6-.4-3.9-.4-9.4 0-14.4 6.8-14.6 16.9V266m31.7 0h-6.4v-41c0-4.1-.4-8.4-.5-11.9h6.5l.4 7.8.3.3c3.8-6.5 9.8-9.6 16.6-9.6 17.3 0 18.6 15.3 18.6 21.4v33h-6.4v-34.3c0-9.1-5.3-14.6-13.9-14.6-10.5 0-15.3 8.8-15.3 18.3l.1 30.6"/></svg>
