<svg width="364" height="68" viewBox="0 0 364 68" fill="none" xmlns="http://www.w3.org/2000/svg">
<path fill-rule="evenodd" clip-rule="evenodd" d="M37.5632 0.111938C57.3836 2.03026 79.1223 11.9393 91.5914 26.3267C107.575 44.5485 102.142 62.7726 79.442 66.9267C56.7441 71.4028 25.4138 59.8951 9.43002 41.6711C-2.71935 27.6034 -2.39738 13.5379 8.79058 5.8669L71.7687 52.5415L37.5632 0.111938Z" fill="black"/>
<path fill-rule="evenodd" clip-rule="evenodd" d="M349.576 66.9267L341.586 34.9569C340.622 31.1225 339.985 27.2859 339.347 23.7689H339.026C338.388 27.6056 338.066 31.1225 337.107 35.2766L329.112 66.9267H315.366L333.59 0.431625H344.461L363.644 66.9267H349.576V66.9267ZM139.862 0.431625L147.855 32.3991C149.134 36.2358 149.454 40.0747 150.093 43.5871H150.413C151.053 39.7527 151.372 35.9138 152.331 32.0794L160.324 0.431625H174.07L155.848 66.9267H144.978L125.797 0.431625H139.862V0.431625ZM183.977 0.431625H197.085V66.9267H183.977V0.431625ZM271.256 0.431625L277.966 39.755L283.401 0.431625H300.983L307.697 66.9267H294.271L291.074 18.9731L288.836 35.2766L283.401 66.9267H273.172L266.778 34.9569L264.54 20.252V18.9731H264.22L262.302 66.9267H248.234L253.991 0.431625H271.256ZM229.695 0.431625C227.457 2.03023 225.86 4.90546 224.581 7.78294C221.065 15.7759 224.899 22.1681 228.096 27.9231C228.418 28.5625 229.06 29.5217 229.375 30.4808C236.729 42.6279 239.286 51.5779 234.173 64.3644L232.894 66.9244H216.908C218.826 65.3236 220.743 63.09 221.702 60.53C225.541 51.8976 221.065 43.9068 216.908 35.9116C212.115 26.6419 206.997 17.0526 212.432 3.94404C212.754 2.66516 214.033 0.427124 214.033 0.427124H229.695V0.431625Z" fill="black"/>
</svg>
