<svg xmlns="http://www.w3.org/2000/svg" viewBox="0 0 500 121.3"><path d="M170.9 68.8c0 24-17.2 52.1-51.9 52.1-20.6 0-31.6-13.6-31.6-33.7 0-21.8 16-51.8 51.9-51.8 20.7 0 31.6 15.4 31.6 33.4M114 100.1c-.2 10.4 1.2 15.5 5.9 15.5 12.3 0 24-36.9 24.5-58.5.2-9-1.2-16.5-6.7-16.5-12 .1-23.3 38.9-23.7 59.5M175.1 50.5l.5-3.3c6.3-5.8 16.5-12.1 27.9-12.1 7.3 0 14.6 4.6 10.5 20.1L202.1 100h.8c4.4-3.6 8.9-9 13-14.6l4.6 2c-10.4 20.3-23.9 33.1-37 33.1-5.9 0-11.3-4.8-8.2-16.2l14.1-51.9c-2.2-1.9-9.3-3-14.3-1.9M242 121.3c-12.3 0-21.5-8.5-21.5-18 0-4.3 2.2-9.2 6.8-14.1h.5c7.3 11.9 18.9 23.1 27.3 23.1 3.1 0 5.8-2.2 5.8-5.6 0-3.3-2.2-6.4-7.3-11.3l-13.3-12.9c-7.5-7.3-10.9-11.6-10.8-17 .2-15.4 19.6-30.6 36.6-30.6 10.4 0 19 6.8 19 15.1-.2 5.3-2.6 9-7.2 14.5h-.5c-7.5-10.7-17.7-19.2-24.9-19.2-3.1 0-5.6 2.2-5.6 5.1 0 3.3 2 5.3 8.3 11.4l11.1 10.6c9 8.9 12.8 13.6 12.8 19.5 0 13.8-17.9 29.4-37.1 29.4M341 93.6c.3-17.7 10.5-34.2 25-45.6 11.3-8.7 22.5-12.9 33.1-12.9 7.7 0 15.5 3.9 15.4 13.1-.2 16.9-25.4 28.4-47.5 33.4-.2 1.2-.2 2.2-.2 3.4-.2 13.8 5.4 19.2 12.3 19.2 8.3 0 18.8-10.4 25-18.9l4.3 2.4c-6.5 14.1-23.1 33.3-42.7 33.3-16 .1-24.9-9.7-24.7-27.4m26.6-17.1c12.9-4.8 24.7-16.2 25-26.9 0-3.8-1.7-6.3-4.9-6.3-7.8.2-17.3 15.8-20.1 33.2M329.2 37.4l4.9-22.5h-13.6l-14.3 21.3-17.7 3.3-.8 6.4h15l-14.1 59.3c-2.2 9.4 2.6 15.3 9.2 15.3 17.4 0 29.6-16.2 39.8-32.5l-4.2-2.6c-4.9 6.2-11 11.9-17.9 16.2h-.7l13.1-55.7h20.6l1.5-8.5h-20.8zM485 91.6c8.2 0 15 6.7 15 14.8 0 8.2-6.7 14.6-15.2 14.6-8 0-14.4-6.4-14.4-14.6.1-8.1 6.6-14.8 14.6-14.8M484.8 34.9c-2 0-3.8.4-5.8 1.2-9.8 3.5-22.3 23.2-31.7 45.7h-1.8l8.3-25.6c5.1-15.3-2.6-20.9-11.1-20.9s-19 5.2-25.7 12l-.5 3.1c7.2-1.3 12.9.7 14.5 1.8 0 0-10.2 38.6-12.4 46.8l-5.1 19.5 2.2 2.4 23.3-4.8 3.9-11.6c6.5-19.8 21.1-43.3 28.4-49.4 2.1 5.4 7.2 9.2 13.4 9.2 8.4 0 15.1-6.4 15.1-14.6.1-8.1-6.7-14.8-15-14.8M207.7 0c8.2 0 15 6.7 15 14.8 0 8.2-6.7 14.6-15.2 14.6-8 0-14.4-6.4-14.4-14.6C193 6.7 199.6 0 207.7 0M109.3 14.8c0-8-6.7-14.8-15-14.8-8 0-14.6 6.7-14.6 14.8 0 8.2 6.4 14.6 14.4 14.6 1.3 0 2.5-.2 3.8-.5l-46.1 61s-2.8.5-2.7-1.2L50.5 21C49.7 3.6 42.9 0 32.9 0 23 0 9.5 6.7.5 16c-.2.2-.4.5-.5.8v.1c-.3 1.3.7 2.3 2 2.2 1 0 2-.1 2.8-.1 4.3 0 8.9 1.1 12.8 2.7v88.8c0 .7.2 1.3.8 1.6l14.7 8.7s1.8 1 2.6-.1c.6-.8 66.9-87.8 66.9-87.8 6.2-8.4 6.7-13.5 6.7-18.1"/></svg>
