<svg class="Logotype-vector" viewBox="0 0 135 49" fill="none" xmlns="http://www.w3.org/2000/svg">
  <path d="M13.0435 24.5434L27.7174 0.0869141H37.9891L23.3152 24.5434L37.9891 49H27.7174L13.0435 24.5434Z" class="Logotype-path" />
  <path d="M9.78261 0.0869141H0V49H9.78261V0.0869141Z" class="Logotype-path" />
  <path d="M110.544 0.0869141H105.652V9.86952H110.544C118.631 9.86952 125.218 16.4565 125.218 24.5434C125.218 32.6304 118.631 39.2174 110.544 39.2174H105.652V49H110.544C124.044 49 135 38.0434 135 24.5434C135 11.0434 124.044 0.0869141 110.544 0.0869141Z" class="Logotype-path" />
  <path d="M50.2172 0.0869141H40.4346L59.9998 49L64.8911 36.7717L50.2172 0.0869141Z" class="Logotype-path" />
  <path d="M69.7826 0.0869141H60L79.5652 49L84.4565 36.7717L69.7826 0.0869141Z" class="Logotype-path" />
  <path d="M89.3478 0.0869141L84.4565 12.3152L89.3478 24.5434L94.2392 12.3152L99.1305 0.0869141H89.3478Z" class="Logotype-path" />
</svg>
