<svg xmlns="http://www.w3.org/2000/svg" viewBox="0 0 424 163.4">
  <linearGradient id="logotype-gradient-{{include.location}}" gradientUnits="userSpaceOnUse" x1="305.5" y1="189.076" x2="18.169" y2="-15.12" gradientTransform="matrix(1 0 0 -1 0 164.39)">
    <stop offset=".2" stop-color="{{ page.color2 }}">
      <animate attributeName="stop-color" values="{{ page.color2 }}; {{ page.color3 }}; {{ page.color2 }}" dur="20s" repeatCount="indefinite" />
    </stop>

    <stop offset=".5" stop-color="{{ page.color3 }}">
      <animate attributeName="stop-color" values="{{ page.color3 }}; {{ page.color4 }}; {{ page.color3 }}" dur="20s" repeatCount="indefinite" />
    </stop>

    <stop offset=".8" stop-color="{{ page.color4 }}">
      <animate attributeName="stop-color" values="{{ page.color4 }}; {{ page.color2 }}; {{ page.color4 }}" dur="20s" repeatCount="indefinite" />
    </stop>
  </linearGradient>

  <path d="M253.8 123.9L199.3 0h109l-54.5 123.9zM0 161.2h60.3L0 80.6v80.6zM139.1 0l54.5 123.9 12.7-29L164.7.1h-25.6V0zM0 0v80.6L60.3 0H0zm377.9 115.6c9.8-9.2 14.6-20.9 14.6-35s-4.6-25.7-14.1-35c-9.4-9.2-21-13.3-35.3-13.3h-20.8V129h20.8c14.4-.1 25.1-4.2 34.8-13.4z" fill="url(#logotype-gradient-{{include.location}})" />
  <path d="M322.3 161.2V129h20.8c14.4 0 25.2-4.1 34.8-13.3 9.8-9.2 14.6-20.9 14.6-35s-4.6-25.7-14.1-35c-9.4-9.2-21-13.3-35.3-13.3h-20.8V0h23.2c23.2 0 41 7.1 56.1 22.6S424 57.5 424 80.7c0 23-7.5 42.2-22.7 57.5s-34.3 23-57.5 23h-21.5zM199.4 0h-34.8l41.7 94.9 30.2 68.6 17.4-39.5L199.4 0zm-95.1 0l71.9 163.4 17.4-39.5L139 0h-34.7zM37.1 80.6L97.3 0h-37L0 80.6l60.3 80.6h37L37.1 80.6z" fill="#fff" />
</svg>
