<svg width="61" height="60" viewBox="0 0 61 60" fill="none" xmlns="http://www.w3.org/2000/svg" class="u-floatLeft">
<path fill-rule="evenodd" clip-rule="evenodd" d="M0 30V60H30.5H61V30V0H30.5H0V30ZM16.622 7.03674C16.9237 7.08239 17.3568 7.22181 17.6557 7.36942C19.4288 8.24534 20.47 10.4229 20.4706 13.2564C20.4713 16.4906 19.2093 24.5819 17.034 35.2906C16.4441 38.1945 16.4003 38.3849 16.2831 38.5545C16.1993 38.6759 16.1348 38.6857 16.0394 38.5915C15.8972 38.4512 15.8841 38.4011 15.4416 36.3057C13.0943 25.1896 11.6807 16.508 11.6808 13.2086C11.6808 11.3603 12.1348 9.77188 12.9881 8.63472C13.2166 8.33014 13.6905 7.86884 13.9875 7.66182C14.7773 7.11136 15.6877 6.89534 16.622 7.03674ZM40.9055 16.7938C42.3441 16.9661 43.4821 17.8628 43.9258 19.1737C44.0556 19.5572 44.1002 19.8201 44.1155 20.2906C44.136 20.9246 44.066 21.3731 43.8422 22.0425C43.4727 23.1479 42.7553 24.2235 41.6867 25.2746C39.5079 27.4176 33.9365 31.4903 25.5826 37.0466C23.801 38.2316 20.9223 40.1054 20.7703 40.179C20.5938 40.2644 20.4178 40.2927 20.3593 40.2449C20.3052 40.2007 20.3242 40.0308 20.4021 39.8635C20.5527 39.5401 24.2985 33.9955 26.4041 30.9793C30.8765 24.5727 34.1353 20.3727 35.8059 18.8619C37.1288 17.6657 38.4414 16.9894 39.8006 16.8039C40.0902 16.7644 40.6193 16.7596 40.9055 16.7938ZM49.1861 39.9587C50.1279 40.0612 51.05 40.3009 51.7601 40.6279C53.342 41.3563 54.3234 42.6425 54.3873 44.0708C54.434 45.1155 54.0193 46.0771 53.1779 46.8754C52.5786 47.444 51.8411 47.8591 50.9102 48.152C49.5648 48.5753 48.1094 48.6466 45.5557 48.4146C41.477 48.044 34.2879 46.8749 25.6555 45.1783C22.7023 44.598 22.4873 44.5503 22.3109 44.437C22.1827 44.3548 22.1661 44.2704 22.2616 44.1865C22.4116 44.0546 22.4706 44.0398 24.4983 43.625C34.453 41.5883 42.9093 40.1942 46.7213 39.9613C46.9551 39.947 47.1955 39.9314 47.2556 39.9266C47.4792 39.9087 48.952 39.9332 49.1861 39.9587Z" fill="#35042D"/>
</svg>
