<svg width="30" height="30" viewBox="0 0 30 30" fill="none" xmlns="http://www.w3.org/2000/svg">
  <path d="M14.895 7.30838C10.6692 7.30838 7.26062 10.7425 7.26062 15C7.26062 19.2575 10.6692 22.6916 14.895 22.6916C19.1208 22.6916 22.5293 19.2575 22.5293 15C22.5293 10.7425 19.1208 7.30838 14.895 7.30838ZM14.895 20.0006C12.1642 20.0006 9.93165 17.758 9.93165 15C9.93165 12.242 12.1575 9.99944 14.895 9.99944C17.6325 9.99944 19.8583 12.242 19.8583 15C19.8583 17.758 17.6258 20.0006 14.895 20.0006V20.0006ZM24.6223 6.99375C24.6223 7.99119 23.825 8.78779 22.8416 8.78779C21.8516 8.78779 21.0609 7.98449 21.0609 6.99375C21.0609 6.00301 21.8583 5.19971 22.8416 5.19971C23.825 5.19971 24.6223 6.00301 24.6223 6.99375ZM29.6787 8.81457C29.5657 6.41136 29.0209 4.28261 27.2734 2.52873C25.5326 0.774852 23.4197 0.225929 21.0344 0.105433C18.576 -0.0351445 11.2074 -0.0351445 8.74895 0.105433C6.37027 0.219235 4.25737 0.768158 2.5099 2.52203C0.76244 4.27591 0.224247 6.40466 0.104649 8.80788C-0.0348829 11.2847 -0.0348829 18.7086 0.104649 21.1854C0.217603 23.5886 0.76244 25.7174 2.5099 27.4713C4.25737 29.2251 6.36363 29.7741 8.74895 29.8946C11.2074 30.0351 18.576 30.0351 21.0344 29.8946C23.4197 29.7808 25.5326 29.2318 27.2734 27.4713C29.0142 25.7174 29.5591 23.5886 29.6787 21.1854C29.8182 18.7086 29.8182 11.2914 29.6787 8.81457V8.81457ZM26.5027 23.843C25.9844 25.1551 24.9811 26.1659 23.6722 26.6947C21.7121 27.478 17.061 27.2972 14.895 27.2972C12.7289 27.2972 8.07123 27.4713 6.11779 26.6947C4.8155 26.1726 3.8122 25.1618 3.28729 23.843C2.5099 21.8682 2.6893 17.1823 2.6893 15C2.6893 12.8177 2.51655 8.12507 3.28729 6.15698C3.80555 4.84492 4.80885 3.8341 6.11779 3.30525C8.07787 2.52203 12.7289 2.70278 14.895 2.70278C17.061 2.70278 21.7187 2.52873 23.6722 3.30525C24.9745 3.8274 25.9778 4.83822 26.5027 6.15698C27.2801 8.13176 27.1007 12.8177 27.1007 15C27.1007 17.1823 27.2801 21.8749 26.5027 23.843Z" fill="#1a1919"/>
</svg>
