<svg width="31" height="30" viewBox="0 0 31 30" fill="none" xmlns="http://www.w3.org/2000/svg">
  <path d="M27.6068 0H2.56902C1.20148 0 0.00585938 0.984632 0.00585938 2.33655V27.429C0.00585938 28.7887 1.20148 30 2.56902 30H27.5989C28.9743 30 30.0058 28.7809 30.0058 27.429V2.33655C30.0136 0.984632 28.9743 0 27.6068 0ZM9.30514 25.0065H5.00715V11.6437H9.30514V25.0065ZM7.30462 9.61188H7.27337C5.89801 9.61188 5.00715 8.58817 5.00715 7.30659C5.00715 6.00156 5.92145 5.0013 7.32807 5.0013C8.73468 5.0013 9.59428 5.99375 9.62554 7.30659C9.62554 8.58817 8.73468 9.61188 7.30462 9.61188ZM25.0123 25.0065H20.7143V17.6999C20.7143 15.9495 20.0892 14.7538 18.5341 14.7538C17.3463 14.7538 16.643 15.5587 16.3304 16.3402C16.2132 16.6215 16.1819 17.0044 16.1819 17.3952V25.0065H11.8839V11.6437H16.1819V13.5035C16.8071 12.6127 17.7839 11.3311 20.0579 11.3311C22.879 11.3311 25.0123 13.1909 25.0123 17.1998V25.0065Z" fill="#1a1919"/>
</svg>
