<svg width="414" height="160" viewBox="0 0 414 160" version="1.1" xmlns="http://www.w3.org/2000/svg" xmlns:xlink="http://www.w3.org/1999/xlink" xmlns:figma="http://www.figma.com/figma/ns">
<title>KWD-logo</title>
<desc>Created using Figma</desc>
<g id="Canvas" transform="translate(-1839 2643)" figma:type="canvas">
<g id="KWD-logo" style="mix-blend-mode:normal;" figma:type="frame">
<g id="Mask" style="mix-blend-mode:normal;" figma:type="frame">
<g id="Union" style="mix-blend-mode:normal;" figma:type="vector-operation">
<use xlink:href="#path0_fill" transform="translate(1839 -2642.3)" fill="url(#paint0_linear)" style="mix-blend-mode:normal;"/>
</g>
</g>
<g id="Spartanskt" style="mix-blend-mode:normal;" figma:type="frame">
<g id="D" style="mix-blend-mode:normal;" figma:type="vector">
<use xlink:href="#path1_fill" transform="translate(2152.86 -2642.3)" fill="#FFFFFF" style="mix-blend-mode:normal;"/>
</g>
<g id="W" style="mix-blend-mode:normal;" figma:type="frame">
<g id="Vector" style="mix-blend-mode:normal;" figma:type="vector">
<use xlink:href="#path2_fill" transform="translate(1999.31 -2642.3)" fill="#FFFFFF" style="mix-blend-mode:normal;"/>
</g>
<g id="Vector" style="mix-blend-mode:normal;" figma:type="vector">
<use xlink:href="#path3_fill" transform="translate(1940.61 -2642.3)" fill="#FFFFFF" style="mix-blend-mode:normal;"/>
</g>
</g>
<g id="K" style="mix-blend-mode:normal;" figma:type="vector">
<use xlink:href="#path4_fill" transform="translate(1839 -2642.3)" fill="#FFFFFF" style="mix-blend-mode:normal;"/>
</g>
</g>
</g>
</g>
<defs>
<linearGradient id="paint0_linear" x1="0" y1="0" x2="1" y2="0" gradientUnits="userSpaceOnUse" gradientTransform="matrix(2.53015e-14 159.22 -413.205 9.7494e-15 413.205 -9.7494e-15)">
<stop offset="0" stop-color="#FFFFFF"/>
<stop offset="1" stop-color="#FFFFFF" stop-opacity="0"/>
</linearGradient>
<path id="path0_fill" fill-rule="evenodd" d="M 36.127 78.4883L 94.7037 156.977L 0 156.977L 0 0L 94.834 0L 36.127 78.4883ZM 101.607 0.000488281L 171.604 159.22L 200.957 92.4375L 230.311 159.22L 300.307 0.000488281L 101.607 0.000488281ZM 313.855 0.000488281L 313.855 156.977L 334.901 156.977C 357.534 156.977 376.157 149.516 390.941 134.599C 405.726 119.684 413.205 101.019 413.205 78.6089C 413.205 56.05 405.788 37.1968 391.077 22.0579C 376.366 6.91919 359.014 0.000488281 336.435 0.0192871L 313.855 0.000488281Z"/>
<path id="path1_fill" d="M 0 0L 0 31.3954L 20.3216 31.3954C 34.1939 31.3954 45.5339 35.3865 54.7101 44.4257C 63.884 53.4648 68.416 64.8187 68.416 78.4873C 68.416 92.1581 63.7323 103.512 54.2596 112.551C 44.7845 121.593 34.3433 125.581 20.3216 125.581L 0 125.581L 0 156.977C 9.7727 156.977 16.7823 156.977 20.8119 156.977C 44.1006 156.977 62.2405 149.519 77.0851 134.598C 91.9252 119.681 99.3499 102.035 99.3499 78.4873C 99.3499 54.9396 92.1896 37.8485 77.869 22.71C 63.5484 7.57152 46.1469 0.00228092 22.5795 0.00228092L 0 0.00228092L 0 0Z"/>
<path id="path2_fill" d="M 69.9964 159.219L 0 0L 33.8693 0L 86.9371 120.712L 69.9964 159.219Z"/>
<path id="path3_fill" d="M 69.9965 159.219L 0 0L 33.8693 0L 86.9264 120.688L 69.9965 159.219Z"/>
<path id="path4_fill" d="M 36.1272 78.4884L 94.834 0L 58.7067 0L 0 78.4884L 58.7067 156.977L 94.834 156.977L 36.1272 78.4884Z"/>
</defs>
</svg>
