<svg xmlns="http://www.w3.org/2000/svg" viewBox="-304 302.7 414 159.2"><linearGradient id="a" gradientUnits="userSpaceOnUse" x1="-6.428" y1="278.651" x2="-286.305" y2="477.549"><stop offset=".106" stop-color="#effc13"/><stop offset=".521" stop-color="#00b295"/><stop offset=".939" stop-color="#00ffea"/></linearGradient><path fill="url(#a)" d="M-56.8 423.4l-53.1-120.7H-3.7l-53.1 120.7zM-304 459.7h58.7l-58.7-78.5v78.5zm135.5-157l53.1 120.7 12.4-28.2-40.6-92.4h-24.9zm-135.5 0v78.5l58.7-78.5H-304zM64.1 415.3c9.5-9 14.2-20.4 14.2-34.1 0-13.7-4.5-25-13.7-34.1-9.2-9-20.5-13-34.4-13H9.9v94.2h20.3c14 0 24.4-4 33.9-13z"/><path fill="#FFF" d="M9.9 459.7v-31.4h20.3c14 0 24.5-4 33.9-13 9.5-9 14.2-20.4 14.2-34.1 0-13.7-4.5-25-13.7-34.1-9.2-9-20.5-13-34.4-13H9.9v-31.4h22.6c22.6 0 39.9 6.9 54.6 22 14.7 15.1 21.9 34 21.9 56.6 0 22.4-7.3 41.1-22.1 56-14.8 14.9-33.4 22.4-56 22.4h-21zm-119.7-157h-33.9l40.6 92.4 29.4 66.8 16.9-38.5-53-120.7zm-92.6 0l70 159.2 16.9-38.5-53.1-120.7h-33.8zm-65.5 78.5l58.7-78.5h-36.1l-58.7 78.5 58.7 78.5h36l-58.6-78.5z"/></svg>